<?xml version="1.0" standalone="no"?>
<!DOCTYPE svg PUBLIC "-//W3C//DTD SVG 1.1//EN" "http://www.w3.org/Graphics/SVG/1.1/DTD/svg11.dtd" >
<svg xmlns="http://www.w3.org/2000/svg" xmlns:xlink="http://www.w3.org/1999/xlink" version="1.1">
<metadata>
Created by FontForge 20170731 at Sun Oct 14 16:56:09 2018
 By Aleksey,,,
Copyright (c) 2018 by Mans Greback. All rights reserved.
</metadata>
<defs>
<font id="Atures100PERSONALUSEONLY" horiz-adv-x="604" >
  <font-face 
    font-family="Atures 100 PERSONAL USE ONLY"
    font-weight="250"
    font-stretch="normal"
    units-per-em="1000"
    panose-1="0 0 0 0 0 0 0 0 0 0"
    ascent="800"
    descent="-200"
    x-height="583"
    cap-height="739"
    bbox="-103 -295 1098 988"
    underline-thickness="50"
    underline-position="-150"
    unicode-range="U+000D-FB02"
  />
<missing-glyph horiz-adv-x="228" 
 />
    <glyph glyph-name="fi" unicode="fi" horiz-adv-x="523" 
d="M150 495h309v-496h-23v473h-286v-473h-24v473h-131v23h131v40q0 42 17 79t46 65t67.5 44t82.5 16h107q6 0 10.5 -4.5t4.5 -13.5q0 -7 -4.5 -11.5t-10.5 -4.5t-11.5 3t-7.5 8h-88q-39 0 -73 -14t-60 -38.5t-41 -57.5t-15 -71v-40z" />
    <glyph glyph-name="fl" unicode="fl" horiz-adv-x="625" 
d="M489 119q0 -41 29 -68.5t72 -27.5h40v-24h-40q-27 0 -49.5 9t-39 25t-26 38t-9.5 48v597h-127q-39 0 -73 -14t-60 -38.5t-41 -57.5t-15 -71v-169h220v-24h-220v-343h-24v343h-131v24h131v169q0 42 17 79t46 65t67.5 44t82.5 16h150v-620v0z" />
    <glyph glyph-name=".notdef" horiz-adv-x="228" 
 />
    <glyph glyph-name=".null" horiz-adv-x="0" 
 />
    <glyph glyph-name="nonmarkingreturn" unicode="&#xd;" horiz-adv-x="228" 
 />
    <glyph glyph-name="NULL" horiz-adv-x="0" 
 />
    <glyph glyph-name="NULL" horiz-adv-x="0" 
 />
    <glyph glyph-name="space" unicode=" " horiz-adv-x="353" 
 />
    <glyph glyph-name="exclam" unicode="!" horiz-adv-x="118" 
d="M72 228h-24v511h24v-511zM60 60q11 0 20 -8.5t9 -20.5q0 -14 -9 -23t-20 -9q-12 0 -21 9t-9 23q0 12 9 20.5t21 8.5z" />
    <glyph glyph-name="quotedbl" unicode="&#x22;" horiz-adv-x="317" 
d="M134 750l-47 -248h-24l47 248h24zM252 750l-47 -248h-24l47 248h24z" />
    <glyph glyph-name="numbersign" unicode="#" horiz-adv-x="583" 
d="M492 255h-71l-14 -127h-24l14 127h-244l-14 -127h-23l14 127h-67v22h69l24 216h-66v22h68l13 116h23l-13 -116h244l13 116h24l-13 -116h70v-22h-72l-24 -216h69v-22zM155 277h244l24 216h-244z" />
    <glyph glyph-name="dollar" unicode="$" horiz-adv-x="598" 
d="M505 627q-32 23 -80.5 40t-114.5 17q-53 0 -90 -10.5t-60 -27t-34 -38t-11 -43.5q0 -42 30.5 -68.5t76.5 -47t99 -38.5t99 -43t76.5 -60.5t30.5 -90.5q0 -35 -15.5 -66t-45 -55t-71 -38.5t-93.5 -16.5v-101h-21v100q-76 2 -129 24t-91 60l12 21q32 -36 85 -58.5
t129 -22.5q52 0 92 13t67 34.5t41 49t14 57.5q0 49 -30.5 81.5t-76.5 55.5t-99.5 42t-99.5 41t-76.5 52t-30.5 77q0 23 11 47t35 44.5t63.5 33.5t96.5 15v95h20v-95q66 -2 116.5 -19t82.5 -40z" />
    <glyph glyph-name="percent" unicode="%" horiz-adv-x="696" 
d="M95 40h-30l531 667h29zM221 418q-33 0 -61.5 9.5t-49.5 28.5t-33 45.5t-12 61.5q0 66 42.5 106t113.5 40q70 0 114 -39.5t44 -106.5q0 -34 -12.5 -61t-34.5 -45.5t-50.5 -28.5t-60.5 -10zM221 688q-60 0 -96.5 -35.5t-36.5 -89.5t36.5 -89t96.5 -35q28 0 52.5 9
t42.5 25.5t28.5 39.5t10.5 50q0 58 -36.5 91.5t-97.5 33.5zM474 39q-33 0 -61.5 9.5t-49.5 28t-33 45t-12 61.5q0 66 42 105.5t114 39.5t114.5 -39t42.5 -106q0 -34 -12.5 -61t-34.5 -45.5t-50.5 -28t-59.5 -9.5zM474 308q-61 0 -97 -35.5t-36 -89.5t36 -89t97 -35
q28 0 52.5 9t42.5 25.5t28.5 39.5t10.5 50q0 58 -36.5 91.5t-97.5 33.5z" />
    <glyph glyph-name="ampersand" unicode="&#x26;" horiz-adv-x="710" 
d="M230 716q-43 0 -72 -16.5t-41 -41.5t-5.5 -54.5t33.5 -54.5l535 -479v-71h-475q-63 0 -106 25t-60 67q-15 42 -4 84t48 75l181 159l-135 122q-35 31 -41.5 67.5t9 68t50.5 52t83 20.5h415v-23h-415zM281 395l-184 -163q-30 -27 -39 -62.5t4 -68.5q13 -35 51 -56.5
t92 -21.5h452v35z" />
    <glyph glyph-name="quotesingle" unicode="'" horiz-adv-x="199" 
d="M134 750l-47 -248h-24l47 248h24z" />
    <glyph glyph-name="parenleft" unicode="(" horiz-adv-x="455" 
d="M88 331q0 -65 22.5 -122t63 -108.5t96.5 -97t123 -86.5l-15 -18q-71 42 -129.5 90t-99.5 102t-63.5 114t-22.5 126q0 67 22.5 127t64 113.5t99.5 101t129 89.5l15 -17q-67 -41 -123 -86.5t-96.5 -97t-63 -109t-22.5 -121.5z" />
    <glyph glyph-name="parenright" unicode=")" horiz-adv-x="455" 
d="M367 331q0 64 -22.5 121.5t-63 109t-96.5 97t-123 86.5l15 18q71 -42 129 -90t99.5 -102t64 -114t22.5 -126q0 -67 -22.5 -127t-64 -113.5t-99.5 -101t-129 -89.5l-15 17q67 41 123 86.5t96.5 97t63 108.5t22.5 122z" />
    <glyph glyph-name="asterisk" unicode="*" horiz-adv-x="408" 
d="M216 687l-2 -136l122 47l7 -20l-124 -43l82 -108l-19 -14l-78 111l-79 -111l-18 14l82 108l-126 43l10 20l122 -47l-3 136h24z" />
    <glyph glyph-name="plus" unicode="+" horiz-adv-x="516" 
d="M270 486v-139h182v-24h-182v-138h-24v138h-183v24h183v139h24z" />
    <glyph glyph-name="comma" unicode="," horiz-adv-x="200" 
d="M136 116l-49 -247h-24l48 247h25z" />
    <glyph glyph-name="hyphen" unicode="-" horiz-adv-x="582" 
d="M519 263h-456v24h456v-24z" />
    <glyph glyph-name="period" unicode="." horiz-adv-x="172" 
d="M63 22q0 10 7.5 16.5t16.5 6.5t16 -6.5t7 -16.5q0 -9 -7 -16t-16 -7t-16.5 7t-7.5 16z" />
    <glyph glyph-name="slash" unicode="/" horiz-adv-x="670" 
d="M93 -101h-30l513 864h30z" />
    <glyph glyph-name="zero" unicode="0" horiz-adv-x="670" 
d="M389 739q52 0 97.5 -19.5t79.5 -53.5t54 -80t20 -98v-228q0 -54 -20.5 -101.5t-55.5 -83t-82 -56t-100 -20.5h-84q-55 0 -104 21.5t-85.5 58.5t-57.5 86.5t-21 105.5v211q0 54 20.5 100.5t55.5 81.5t81.5 55t99.5 20h102zM617 488q0 48 -18 89.5t-49 72.5t-72.5 48.5
t-88.5 17.5h-102q-48 0 -90.5 -18.5t-74.5 -50t-50.5 -74t-18.5 -91.5v-211q0 -51 19.5 -96t52.5 -79t77.5 -53.5t95.5 -19.5h84q49 0 91.5 18.5t74.5 51t50.5 75.5t18.5 92v228z" />
    <glyph glyph-name="one" unicode="1" horiz-adv-x="281" 
d="M30 739h221v-740h-23v717h-198v23z" />
    <glyph glyph-name="two" unicode="2" horiz-adv-x="615" 
d="M94 23h491v-24h-534v16l428 436q39 40 52.5 86t1 86t-51 66.5t-103.5 26.5h-325v-189h-23v212h348q69 0 114 -29t62 -73.5t4 -98t-60 -101.5z" />
    <glyph glyph-name="three" unicode="3" horiz-adv-x="629" 
d="M459 383q31 -16 59.5 -40.5t48 -55t28 -66.5t-0.5 -76q-7 -33 -23 -59.5t-39 -46t-51.5 -30t-61.5 -10.5h-389v24h389q43 0 74 17t50.5 43.5t27 58.5t4.5 62q-5 43 -36.5 87t-99.5 75h-237v24h233q20 24 43 54t39 64t20 69.5t-13 70.5q-36 68 -135 68h-359v23h359
q54 0 95.5 -20t61.5 -61q13 -27 15.5 -56t-7 -62t-33 -72t-62.5 -85z" />
    <glyph glyph-name="four" unicode="4" horiz-adv-x="624" 
d="M571 739h23v-740h-23v229h-319q-45 0 -85.5 16.5t-71 45t-48 66.5t-17.5 82v301h23v-301q0 -39 16 -72.5t43 -59t63 -40t77 -14.5h319v487z" />
    <glyph glyph-name="five" unicode="5" horiz-adv-x="648" 
d="M463 382q37 -15 68.5 -38t52.5 -53t29.5 -66.5t0.5 -76.5q-6 -33 -22.5 -60t-41 -46.5t-55.5 -31t-64 -11.5h-401v24h401q35 0 63 11t48 29.5t32.5 42t17.5 47.5t1.5 53t-18.5 57.5t-44.5 54t-75.5 42.5l-388 147v232h534v-23h-511v-192z" />
    <glyph glyph-name="six" unicode="6" horiz-adv-x="651" 
d="M434 533q38 0 72 -13t59.5 -36t40.5 -54t15 -67v-103q0 -54 -23 -101.5t-62 -83t-91.5 -56t-112.5 -20.5q-63 0 -118 21.5t-96 59t-64.5 87.5t-23.5 106v209q0 54 21.5 100.5t58.5 81.5t87 55t106 20h117v-23h-117q-44 0 -84 -14t-72.5 -38.5t-55.5 -58t-33 -72.5h376z
M598 363q0 30 -13 56.5t-35.5 46.5t-52.5 31.5t-63 11.5h-381v-236q0 -51 22 -96.5t60 -79.5t88.5 -54t108.5 -20q55 0 103.5 18.5t84.5 51t57 75.5t21 92v103z" />
    <glyph glyph-name="seven" unicode="7" horiz-adv-x="638" 
d="M569 668q-15 23 -38.5 35.5t-51.5 12.5h-449v23h449q34 0 63 -15t46 -44q18 -29 20 -61.5t-12 -62.5l-264 -557h-25l268 569q11 25 9.5 51t-15.5 49z" />
    <glyph glyph-name="eight" unicode="8" horiz-adv-x="651" 
d="M506 568q0 -48 -24 -88.5t-62 -62.5h14q38 0 72 -12.5t59.5 -33.5t40.5 -49.5t15 -59.5v-24q0 -49 -23 -92.5t-62 -76t-91.5 -51.5t-112.5 -19q-62 0 -117 20t-95.5 54t-64 79.5t-23.5 96.5v15q0 32 14 60t37.5 48.5t53.5 32.5t63 12h44q-38 22 -61 62.5t-23 88.5
q0 35 13.5 66t37 54.5t54.5 37t67 13.5t67.5 -13.5t55.5 -37t37.5 -54.5t13.5 -66zM598 262q0 27 -13 50.5t-35.5 41.5t-52.5 28.5t-63 10.5h-234q-30 0 -56 -10.5t-46 -28t-31.5 -41t-11.5 -49.5v-15q0 -47 21.5 -88t59 -71.5t88 -48.5t108.5 -18q55 0 103.5 17t84.5 46
t57 68.5t21 83.5v24zM184 568q0 -31 11.5 -58.5t31.5 -48t47 -32.5t58 -12t58.5 12t47.5 32.5t32 48t12 58.5t-12 58t-32 47t-47.5 31.5t-58.5 11.5t-58 -11.5t-47 -31.5t-31.5 -47t-11.5 -58z" />
    <glyph glyph-name="nine" unicode="9" horiz-adv-x="602" 
d="M295 739q58 0 108.5 -19.5t88 -53.5t59 -79t21.5 -96v-492h-23v275h-346q-36 0 -67.5 12.5t-55 34t-37 50t-13.5 60.5v71q0 49 21 92.5t57 75.5t84 50.5t103 18.5zM549 491q0 47 -20 88t-54.5 71.5t-81 48t-98.5 17.5q-50 0 -94 -17t-77 -46t-52 -68t-19 -83v-71
q0 -28 11.5 -52t32 -42t47.5 -28.5t59 -10.5h346v193z" />
    <glyph glyph-name="colon" unicode=":" horiz-adv-x="171" 
d="M63 22q0 10 7.5 16.5t16.5 6.5t16 -6.5t7 -16.5q0 -9 -7 -16t-16 -7t-16.5 7t-7.5 16zM63 492q0 10 7.5 16.5t16.5 6.5t16 -6.5t7 -16.5q0 -9 -7 -16t-16 -7t-16.5 7t-7.5 16z" />
    <glyph glyph-name="semicolon" unicode=";" horiz-adv-x="200" 
d="M136 116l-49 -247h-24l48 247h25zM82 492q0 10 7.5 16.5t16.5 6.5t16 -6.5t7 -16.5q0 -9 -7 -16t-16 -7t-16.5 7t-7.5 16z" />
    <glyph glyph-name="less" unicode="&#x3c;" horiz-adv-x="484" 
d="M407 111l-344 212v18l342 210l14 -16l-329 -203l330 -205z" />
    <glyph glyph-name="equal" unicode="=" horiz-adv-x="516" 
d="M452 261h-389v24h389v-24zM452 385h-389v24h389v-24z" />
    <glyph glyph-name="greater" unicode="&#x3e;" horiz-adv-x="484" 
d="M77 553l344 -212v-18l-342 -210l-14 16l329 203l-330 205z" />
    <glyph glyph-name="question" unicode="?" horiz-adv-x="527" 
d="M386 739q23 0 43 -10.5t35 -28.5t24 -42t9 -52v-184q0 -43 -13.5 -80.5t-37 -65t-54 -43t-64.5 -15.5h-133v23h133q30 0 56.5 14t46.5 38.5t31.5 57.5t11.5 71v184q0 47 -25.5 78.5t-62.5 31.5h-356v23h356zM196 60q11 0 20 -8.5t9 -20.5q0 -14 -9 -23t-20 -9
q-12 0 -21 9t-9 23q0 12 9 20.5t21 8.5z" />
    <glyph glyph-name="at" unicode="@" horiz-adv-x="871" 
d="M596 437v-226q0 -40 23 -59t62 -19q21 0 40 7.5t33.5 24t22.5 43t8 65.5q0 86 -28.5 149.5t-76.5 105t-111.5 62t-133.5 20.5t-133 -20.5t-111 -62.5t-76 -105.5t-28 -148.5q0 -84 28.5 -145.5t76.5 -102t111 -60t132 -19.5q60 0 111.5 12.5t86.5 38.5l14 -16
q-35 -28 -90 -42.5t-122 -14.5q-79 0 -147 22.5t-118 67t-78.5 109.5t-28.5 150q0 86 27.5 153t77 112.5t118 69.5t149.5 24q79 0 147 -24t118 -69.5t78 -112.5t28 -153q0 -83 -35.5 -122.5t-89.5 -39.5q-37 0 -61.5 14t-36.5 39q-17 -20 -55.5 -36.5t-92.5 -16.5
q-44 0 -76.5 14t-54 37.5t-32 53.5t-10.5 63t10.5 63t32 53.5t54 37.5t76.5 14q51 0 86 -13.5t52 -33.5v37h23zM437 133q47 0 83.5 14.5t55.5 35.5q-3 13 -3 27v165q-17 23 -51 36.5t-85 13.5q-38 0 -67 -11.5t-48 -31.5t-28.5 -46.5t-9.5 -56.5t9.5 -56.5t28.5 -46.5
t48 -31.5t67 -11.5z" />
    <glyph glyph-name="A" unicode="A" horiz-adv-x="664" 
d="M-10 -1l222 646q16 45 48 69.5t73 24.5q40 0 72 -24.5t47 -69.5l222 -646h-25l-64 186h-505l-64 -186h-26zM87 207h490q-38 109 -74.5 215.5t-74.5 214.5q-13 36 -38 57.5t-57 21.5q-34 0 -59.5 -21.5t-37.5 -56.5z" />
    <glyph glyph-name="B" unicode="B" horiz-adv-x="622" 
d="M545 247q36 -36 43.5 -79.5t-8.5 -81t-53 -62.5t-89 -25h-408v740h381q53 0 86.5 -20.5t45.5 -52t3 -68.5t-42 -69l-122 -120zM53 119l435 427q27 27 34.5 57t-3 55t-38 41.5t-70.5 16.5h-358v-597zM438 23q42 0 74 20t46.5 51t8.5 67.5t-39 69.5l-164 162l-311 -307v-63
h385z" />
    <glyph glyph-name="C" unicode="C" horiz-adv-x="515" 
d="M30 480q0 54 18 101t49.5 82t73.5 55.5t90 20.5h254v-23h-254q-44 0 -81.5 -19t-66 -51t-44.5 -75t-16 -91v-313q0 -29 10 -55.5t27.5 -46t40.5 -31t50 -11.5h334v-24h-334q-31 0 -58.5 13t-48 36t-32.5 53.5t-12 65.5v313v0z" />
    <glyph glyph-name="D" unicode="D" horiz-adv-x="587" 
d="M324 739q48 0 90.5 -20.5t74 -55.5t50 -82t18.5 -101v-313q0 -35 -12 -65.5t-32.5 -53.5t-48.5 -36t-60 -13h-374v740h294zM533 480q0 48 -16.5 91t-45 75t-66.5 51t-81 19h-271v-693h351q27 0 51 11.5t41 31t27 46t10 55.5v313z" />
    <glyph glyph-name="E" unicode="E" 
d="M30 573q0 34 13 64.5t35 53t52 35.5t64 13h380v-23h-380q-29 0 -54.5 -11t-45 -30.5t-30.5 -45.5t-11 -56v-158h521v-24h-521v-235q0 -28 10.5 -52t28.5 -42t42.5 -28.5t52.5 -10.5h387v-24h-387q-33 0 -61.5 12.5t-49.5 33.5t-33.5 49.5t-12.5 61.5v417v0z" />
    <glyph glyph-name="F" unicode="F" horiz-adv-x="495" 
d="M30 499q0 49 17.5 93t47.5 76.5t70.5 51.5t86.5 19h243v-23h-243q-41 0 -77 -17t-63 -46t-43 -69t-16 -85v-181h442v-24h-442v-295h-23v500v0z" />
    <glyph glyph-name="G" unicode="G" horiz-adv-x="681" 
d="M467 415q38 0 71.5 -15.5t58.5 -42.5t39.5 -63.5t14.5 -77.5v-217h-462q-33 0 -62 13t-50.5 36t-34 53.5t-12.5 65.5v313q0 54 19.5 101t52.5 82t77.5 55.5t94.5 20.5h270v-23h-270q-46 0 -86 -19t-70 -51t-47.5 -75t-17.5 -91v-313q0 -29 11 -55.5t29.5 -46t43 -31
t52.5 -11.5h438v193q0 36 -12.5 67.5t-34.5 55.5t-51 38t-62 14h-184v24h184v0z" />
    <glyph glyph-name="H" unicode="H" horiz-adv-x="624" 
d="M53 -1h-23v740h23v-309h518v309h23v-740h-23v407h-518v-407z" />
    <glyph glyph-name="I" unicode="I" horiz-adv-x="150" 
d="M87 -1h-23v740h23v-740z" />
    <glyph glyph-name="J" unicode="J" horiz-adv-x="607" 
d="M406 739q35 0 66 -13t54.5 -36t37 -54t13.5 -67v-309q0 -54 -20.5 -101.5t-56 -83t-82.5 -56t-101 -20.5h-287v24h287q48 0 91.5 18.5t75.5 51t51 75.5t19 92v309q0 31 -11.5 57.5t-31.5 46.5t-47 31.5t-58 11.5h-376v23h376v0z" />
    <glyph glyph-name="K" unicode="K" horiz-adv-x="646" 
d="M361 477l295 -478h-28l-283 459l-292 -315v-144h-23v740h23v-563q131 141 259 281.5t259 281.5h32z" />
    <glyph glyph-name="L" unicode="L" horiz-adv-x="561" 
d="M53 238q0 -44 18 -83.5t49 -68.5t72.5 -46t88.5 -17h280v-24h-280q-52 0 -98 19t-80 51t-53.5 75.5t-19.5 93.5v501h23v-501v0z" />
    <glyph glyph-name="M" unicode="M" horiz-adv-x="780" 
d="M464 739q60 0 112 -23t90.5 -62t61 -91.5t22.5 -111.5v-452h-24v452q0 55 -20.5 103.5t-56 84.5t-83.5 56.5t-103 20.5h-56v-717h-24v717h-200q-27 0 -51 -9.5t-41.5 -26t-27.5 -39t-10 -47.5v-595h-23v595q0 30 12 56t32.5 46t48.5 31.5t60 11.5h281z" />
    <glyph glyph-name="N" unicode="N" horiz-adv-x="736" 
d="M706 739v-607q0 -38 -16 -66t-40.5 -44t-55 -20t-59 4t-52 29t-34.5 55l-179 548q-9 30 -28.5 47.5t-43.5 24.5t-50 3t-47 -18t-34.5 -37t-13.5 -55v-604h-23v604q0 38 16 66t41 45t55 21.5t59.5 -3.5t54 -29.5t37.5 -57.5l180 -548q9 -28 28 -45.5t42.5 -24t48 -2.5
t45 17.5t33.5 36t13 53.5v607h23z" />
    <glyph glyph-name="O" unicode="O" horiz-adv-x="607" 
d="M434 739q30 0 56 -11.5t45.5 -31.5t30.5 -46t11 -56v-374q0 -45 -17.5 -85.5t-47.5 -70.5t-71 -47.5t-88 -17.5h-177q-30 0 -56.5 11t-46.5 30.5t-31.5 46t-11.5 56.5v374q0 46 17.5 86.5t47.5 70.5t70.5 47.5t86.5 17.5h182zM554 594q0 25 -9.5 47.5t-26 39t-38.5 26
t-46 9.5h-182q-41 0 -77 -15.5t-63 -42.5t-43 -63.5t-16 -77.5v-374q0 -24 9.5 -46t26.5 -38.5t39 -26t48 -9.5h177q41 0 77.5 15.5t64 42t43.5 62.5t16 77v374z" />
    <glyph glyph-name="P" unicode="P" horiz-adv-x="601" 
d="M431 739q66 0 112.5 -28.5t61.5 -76.5q17 -52 -9 -104.5t-86 -92.5l-457 -298v-140h-23v740h401zM496 456q55 36 78 81t10 90q-14 41 -53.5 65t-99.5 24h-378v-550z" />
    <glyph glyph-name="Q" unicode="Q" horiz-adv-x="670" 
d="M174 -1q-30 0 -56.5 11t-46 30.5t-30.5 46t-11 56.5v374q0 46 17.5 86.5t47.5 70.5t70 47.5t85 17.5h244q30 0 56.5 -11.5t46.5 -31.5t31.5 -46t11.5 -56v-374q0 -45 -17.5 -85.5t-48 -70.5t-71 -47.5t-86.5 -17.5h-243zM53 143q0 -24 9.5 -46t26 -38.5t38.5 -26t47 -9.5
h243q41 0 77.5 15.5t63.5 42t43 62.5t16 77v374q0 25 -10 47.5t-26.5 39t-39 26t-47.5 9.5h-244q-41 0 -77 -15.5t-62.5 -42.5t-42 -63.5t-15.5 -77.5v-374zM111 -107h406v-24h-406v24z" />
    <glyph glyph-name="R" unicode="R" horiz-adv-x="610" 
d="M30 739h406q54 0 89.5 -19.5t49.5 -49t5 -64t-45 -64.5l-150 -126q56 -105 111 -208.5t112 -208.5h-28l-213 403l-314 -269v-134h-23v740zM53 165l465 396q30 26 38 53.5t-4 50t-41.5 37t-74.5 14.5h-383v-551z" />
    <glyph glyph-name="S" unicode="S" horiz-adv-x="596" 
d="M466 305q41 -22 64.5 -53t30.5 -65t-2 -67.5t-32.5 -60.5t-60 -43.5t-84.5 -16.5h-352v24h352q41 0 73 14t52.5 36.5t29 51t2.5 57.5t-26.5 56t-57.5 46l-325 167q-39 20 -62 49t-30.5 61t0.5 64t30.5 57t58 41t84.5 16h311v-23h-311q-62 0 -99.5 -27.5t-48 -66t8 -80.5
t69.5 -71z" />
    <glyph glyph-name="T" unicode="T" horiz-adv-x="565" 
d="M273 716h-327v23h679v-23h-328v-717h-24v717z" />
    <glyph glyph-name="U" unicode="U" horiz-adv-x="622" 
d="M592 154q0 -32 -12.5 -60.5t-33.5 -49.5t-49.5 -33t-60.5 -12h-166q-50 0 -93.5 19t-76 51t-51.5 75.5t-19 93.5v501h23v-501q0 -44 17 -83.5t46.5 -68.5t69 -46t84.5 -17h166q28 0 52 10.5t42 28t28.5 41.5t10.5 51v585h23v-585z" />
    <glyph glyph-name="V" unicode="V" horiz-adv-x="637" 
d="M661 739l-223 -647q-14 -43 -45 -68t-71 -25q-39 0 -71 25t-48 68l-222 647h26l220 -640q12 -35 37.5 -55.5t57.5 -20.5t57 20.5t39 55.5l220 640h23z" />
    <glyph glyph-name="W" unicode="W" horiz-adv-x="945" 
d="M953 739l-130 -647q-11 -43 -43 -68t-74 -25t-73 25t-42 68l-121 588l-120 -588q-11 -43 -42 -68t-73 -25t-74 25t-43 68l-132 647h23l132 -642q8 -35 33.5 -54.5t60.5 -19.5q33 0 58.5 19.5t33.5 54.5l132 642h23l130 -642q10 -34 35.5 -54t58.5 -20q32 0 57.5 19.5
t35.5 54.5l130 642h24z" />
    <glyph glyph-name="X" unicode="X" horiz-adv-x="509" 
d="M532 -1h-25l-148 313q-13 27 -40 41.5t-57 15t-57.5 -13.5t-41.5 -44q-36 -78 -73.5 -156t-74.5 -156h-26l153 324q9 19 25.5 33t37.5 25q-45 17 -63 56l-144 302h26l139 -292q13 -26 40 -40t57.5 -14.5t58 12.5t40.5 42l138 292h26l-143 -302q-10 -20 -25.5 -34
t-34.5 -22q20 -11 35.5 -25t24.5 -33z" />
    <glyph glyph-name="Y" unicode="Y" horiz-adv-x="481" 
d="M506 739l-146 -367q-15 -35 -44 -56.5t-64 -25.5v-291h-23v290q-36 4 -64.5 26t-43.5 57l-147 367h25l143 -358q14 -32 40 -50t58 -18t59 18t39 50l142 358h26z" />
    <glyph glyph-name="Z" unicode="Z" horiz-adv-x="644" 
d="M190 -1q-61 0 -102.5 22t-52.5 63q-9 23 -4.5 45t17 41.5t30.5 36t36 29.5l391 281q35 25 51 61t6 69q-12 33 -46.5 51t-89.5 18h-365v23h365q63 0 103.5 -22t53.5 -64q14 -42 -4 -83.5t-59 -70.5l-392 -282q-43 -31 -62 -64t-11 -62q11 -32 46 -50t89 -18h424v-24h-424
v0z" />
    <glyph glyph-name="bracketleft" unicode="[" horiz-adv-x="337" 
d="M274 -100h-211v862h211v-22h-188v-818h188v-22z" />
    <glyph glyph-name="backslash" unicode="\" horiz-adv-x="726" 
d="M63 762h30l570 -862h-30z" />
    <glyph glyph-name="bracketright" unicode="]" horiz-adv-x="337" 
d="M63 762h211v-862h-211v22h188v818h-188v22z" />
    <glyph glyph-name="asciicircum" unicode="^" horiz-adv-x="451" 
d="M63 539l153 173h19l152 -173h-29l-132 151l-133 -151h-30z" />
    <glyph glyph-name="underscore" unicode="_" horiz-adv-x="549" 
d="M485 -41h-422v23h422v-23z" />
    <glyph glyph-name="grave" unicode="`" horiz-adv-x="267" 
d="M177 602l-114 191h28l113 -191h-27z" />
    <glyph glyph-name="a" unicode="a" horiz-adv-x="528" 
d="M385 583q59 -1 85.5 -27.5t26.5 -71.5v-485h-348q-51 0 -85.5 18.5t-46 46.5t4 61.5t63.5 63.5q85 56 169.5 110.5t169.5 109.5q27 18 39 44t7.5 50t-25.5 40.5t-60 16.5h-361v23h361zM474 424q-7 -11 -16.5 -19.5t-21.5 -16.5l-339 -220q-38 -23 -51 -48.5t-4.5 -47
t36 -35.5t71.5 -14h325v401z" />
    <glyph glyph-name="b" unicode="b" horiz-adv-x="530" 
d="M290 583q47 0 85.5 -18.5t66.5 -50t43 -73t15 -87.5v-224q0 -28 -11 -52t-29.5 -41.5t-44 -27.5t-53.5 -10h-332v740h23v-156h237zM477 354q0 43 -14.5 81t-40 65.5t-59.5 43.5t-73 16h-237v-537h309q23 0 44 8.5t36.5 23t25 34t9.5 41.5v224z" />
    <glyph glyph-name="c" unicode="c" horiz-adv-x="532" 
d="M30 373q0 44 17 82.5t46.5 67.5t68.5 45.5t84 16.5h256v-24h-256q-40 0 -75 -15t-61.5 -40.5t-41.5 -59.5t-15 -73v-237q0 -23 9.5 -43.5t25.5 -36t37.5 -24.5t46.5 -9h330v-24h-330q-30 0 -56 11t-45 29.5t-30 43.5t-11 53v237v0z" />
    <glyph glyph-name="d" unicode="d" horiz-adv-x="543" 
d="M489 739h24v-740h-302q-84 0 -132.5 45t-48.5 121v231q0 39 16 73t44 59.5t66 40t81 14.5h252v156zM489 560h-252q-38 0 -71 -13t-58.5 -35.5t-40 -52.5t-14.5 -63v-231q0 -67 41.5 -104.5t116.5 -37.5h278v537z" />
    <glyph glyph-name="e" unicode="e" horiz-adv-x="534" 
d="M88 101q25 -35 65 -56.5t88 -21.5h275v-24h-275q-44 0 -82 17t-67 45.5t-45.5 67t-16.5 82.5v159q0 43 16.5 82t45.5 68t67 46t82 17h161q45 0 73 -18.5t36.5 -46.5t-4 -61.5t-49.5 -62.5zM53 211q0 -24 6 -46.5t16 -41.5l371 289q30 24 40 50t3 48t-29 36t-58 14h-161
q-39 0 -73.5 -15t-60 -41t-40 -60.5t-14.5 -73.5v-159z" />
    <glyph glyph-name="f" unicode="f" horiz-adv-x="370" 
d="M150 366h220v-24h-220v-343h-24v343h-131v24h131v169q0 42 17 79t46 65t67.5 44t82.5 16h29v-23h-29q-39 0 -73 -14t-60 -38.5t-41 -57.5t-15 -71v-169z" />
    <glyph glyph-name="g" unicode="g" horiz-adv-x="563" 
d="M404 596q27 0 50.5 -10t41 -27.5t27.5 -41.5t10 -51v-388q0 -41 -15 -76.5t-41.5 -62t-62 -42t-75.5 -15.5h-276v24h276q35 0 66 13.5t54 37t36.5 54.5t13.5 67v21h-351q-27 0 -50 9.5t-40.5 26.5t-27.5 40t-10 49v181q0 39 15.5 74t42 61t62.5 41t77 15h177zM509 466
q0 22 -8 41.5t-22.5 34t-33.5 23t-41 8.5h-177q-36 0 -67.5 -13.5t-55 -36t-37.5 -53.5t-14 -65v-181q0 -21 8.5 -40t22.5 -32.5t33.5 -21.5t40.5 -8h351v344z" />
    <glyph glyph-name="h" unicode="h" horiz-adv-x="543" 
d="M308 583q43 0 80.5 -14.5t65 -40t43.5 -59.5t16 -73v-397h-24v397q0 33 -14 63t-39 52.5t-58 35.5t-70 13h-255v-561h-23v740h23v-156h255v0z" />
    <glyph glyph-name="i" unicode="i" horiz-adv-x="153" 
d="M66 572h23v-573h-23v573zM78 687q6 0 11 -5t5 -13q0 -7 -5 -11.5t-11 -4.5q-8 0 -13.5 4.5t-5.5 11.5q0 8 5.5 13t13.5 5z" />
    <glyph glyph-name="j" unicode="j" horiz-adv-x="151" 
d="M63 572h23v-679h-23v679zM75 687q7 0 13 -5t6 -13q0 -7 -6 -11.5t-13 -4.5q-6 0 -11 4.5t-5 11.5q0 8 5 13t11 5z" />
    <glyph glyph-name="k" unicode="k" horiz-adv-x="576" 
d="M53 -1h-23v740h23v-593l359 220q38 23 58 60t20 80v77h24v-77q0 -50 -24 -92.5t-66 -68.5l-77 -48l221 -298h-30l-212 286l-273 -166v-120z" />
    <glyph glyph-name="l" unicode="l" horiz-adv-x="255" 
d="M119 119q0 -41 29 -68.5t72 -27.5h40v-24h-40q-27 0 -49.5 9t-39 25t-26 38t-9.5 48v620h23v-620v0z" />
    <glyph glyph-name="m" unicode="m" horiz-adv-x="664" 
d="M393 583q49 0 93 -18t77 -49t52 -72.5t19 -89.5v-355h-24v355q0 43 -17 80.5t-46 65.5t-69 44t-85 16h-50v-561h-23v561h-137q-32 0 -56 -12.5t-40.5 -32t-25 -44.5t-8.5 -49v-423h-23v423q0 29 10 57.5t29 51.5t47.5 37.5t66.5 14.5h210v0z" />
    <glyph glyph-name="n" unicode="n" horiz-adv-x="556" 
d="M305 583q50 0 90.5 -16t69.5 -45.5t45 -71t16 -91.5v-360h-24v360q0 45 -14 82t-40 63.5t-62 41t-81 14.5h-122q-63 0 -96.5 -36t-33.5 -102v-423h-23v423q0 33 10.5 62.5t30 51.5t48 34.5t64.5 12.5h122z" />
    <glyph glyph-name="o" unicode="o" 
d="M428 583q30 0 56.5 -11.5t46.5 -31.5t31.5 -46t11.5 -56v-218q0 -45 -17.5 -85.5t-48 -70.5t-71 -47.5t-86.5 -17.5h-177q-30 0 -56.5 11t-46 30.5t-30.5 46t-11 56.5v218q0 46 17.5 86.5t47.5 70.5t70 47.5t85 17.5h178zM550 438q0 25 -9.5 47.5t-26 39t-39 26
t-47.5 9.5h-178q-41 0 -77 -16t-62.5 -43t-42 -63t-15.5 -77v-218q0 -24 9.5 -46t26 -38.5t38.5 -26t47 -9.5h177q41 0 77.5 15.5t63.5 42t42.5 62.5t15.5 77v218z" />
    <glyph glyph-name="p" unicode="p" horiz-adv-x="552" 
d="M328 583q39 0 74 -14t62 -39.5t42.5 -60.5t15.5 -77v-152q0 -38 -17.5 -71.5t-47.5 -59t-70 -40t-86 -14.5h-248v-157h-23v485q0 41 16.5 77.5t45.5 63.5t67 43t82 16h87zM498 392q0 31 -11 61t-32.5 54t-53 38.5t-73.5 14.5h-87q-39 0 -73.5 -13.5t-60 -37.5t-40 -56.5
t-14.5 -69.5v-305h248q41 0 77 12.5t62.5 34.5t42 51.5t15.5 63.5v152z" />
    <glyph glyph-name="q" unicode="q" horiz-adv-x="567" 
d="M408 583q27 0 50.5 -9.5t41 -25.5t27.5 -38t10 -47v-565h-24v157h-256q-50 0 -91.5 14t-73.5 38q-62 54 -62 133v152q0 42 11.5 76t36.5 58q51 57 149 57h181zM513 463q0 20 -8 38t-22 31t-33.5 20.5t-41.5 7.5h-181q-48 0 -81 -15t-54 -39t-30 -54t-9 -60v-152
q0 -35 15.5 -65t42.5 -51.5t64.5 -33.5t81.5 -12h256v385z" />
    <glyph glyph-name="r" unicode="r" horiz-adv-x="340" 
d="M30 359q0 50 16 91.5t44.5 71t69 45.5t90.5 16h126v-23h-126q-44 0 -80.5 -14.5t-62.5 -41t-40 -63.5t-14 -82v-360h-23v360v0z" />
    <glyph glyph-name="s" unicode="s" horiz-adv-x="528" 
d="M114 389q-36 27 -47 60.5t0 63.5t41.5 50t77.5 20h379v-23h-379q-36 0 -62 -15t-35.5 -37.5t-1 -49.5t41.5 -51l290 -219q37 -26 51 -59t6.5 -62t-36.5 -48.5t-79 -19.5h-391v24h391q38 0 62 13.5t30.5 34.5t-5 47t-43.5 51z" />
    <glyph glyph-name="t" unicode="t" horiz-adv-x="369" 
d="M109 74q23 -27 59.5 -39t89.5 -12h133v-24h-133q-113 0 -165.5 57.5t-52.5 181.5v322h-70v23h70v156h23v-156h307v-23h-307v-322q0 -112 46 -164z" />
    <glyph glyph-name="u" unicode="u" horiz-adv-x="593" 
d="M539 583h24v-427q0 -33 -12 -61.5t-33 -49.5t-50 -33.5t-62 -12.5h-134q-50 0 -94 19t-77 52t-52 77.5t-19 94.5v341h23v-341q0 -45 17.5 -85t47 -69.5t69.5 -47t85 -17.5h134q28 0 52.5 10.5t42.5 28.5t28 42t10 52v427z" />
    <glyph glyph-name="v" unicode="v" horiz-adv-x="530" 
d="M506 583h25l-166 -519q-10 -31 -38.5 -47.5t-60.5 -17t-61 15.5t-40 49l-167 519h25l164 -513q8 -23 30.5 -35t48 -12.5t48 11t30.5 36.5z" />
    <glyph glyph-name="w" unicode="w" horiz-adv-x="745" 
d="M726 583h24l-105 -513q-8 -34 -32.5 -52.5t-56.5 -18.5q-34 0 -58 18.5t-32 52.5l-95 450q-23 -112 -45.5 -224.5t-45.5 -225.5q-8 -34 -32.5 -52.5t-57.5 -18.5q-32 0 -56.5 18.5t-32.5 52.5l-106 513h24l102 -506q8 -31 29 -42.5t40 -11.5q20 0 39.5 11.5t27.5 42.5
l103 506h23l104 -506q10 -31 30 -42.5t39 -11.5q18 0 38.5 11.5t28.5 42.5z" />
    <glyph glyph-name="x" unicode="x" horiz-adv-x="496" 
d="M117 242q27 46 78 64l-181 277h25l156 -234q23 -33 52.5 -33t52.5 33l156 234h26l-179 -276q24 -7 45 -25.5t32 -38.5l129 -244h-25l-125 231q-16 31 -46 46.5t-63 16t-63.5 -15t-48.5 -46.5l-126 -232h-26z" />
    <glyph glyph-name="y" unicode="y" horiz-adv-x="505" 
d="M-2 583h25l111 -431q17 -66 67 -97.5t128 -31.5l155 560h24l-215 -772h-24l54 188q-80 0 -135 36t-74 110z" />
    <glyph glyph-name="z" unicode="z" horiz-adv-x="535" 
d="M98 177q-31 -18 -44.5 -44.5t-10 -51t25.5 -41.5t62 -17h442v-24h-442q-46 0 -74 22t-35.5 53t7.5 64.5t55 56.5l359 208q33 19 44 45.5t2.5 51.5t-35.5 42.5t-70 17.5h-385v23h385q55 0 88 -22.5t42 -55t-5 -66.5t-53 -56l-353 -204z" />
    <glyph glyph-name="braceleft" unicode="{" horiz-adv-x="399" 
d="M63 343q48 0 76.5 10.5t44 29.5t21 45t8.5 57t6 66t13 70.5t30 71.5t57 69l16 -13q-44 -39 -63 -83t-25.5 -88t-8 -84.5t-10 -74t-31 -57t-71.5 -31.5q49 -8 71.5 -31.5t31 -57t10 -74t8 -84.5t25.5 -88t63 -83l-16 -13q-37 33 -57 69t-30 71.5t-13 70.5t-6 66t-8.5 57
t-21 45t-44 29.5t-76.5 10.5v24z" />
    <glyph glyph-name="bar" unicode="|" horiz-adv-x="150" 
d="M86 762v-862h-23v862h23z" />
    <glyph glyph-name="braceright" unicode="}" horiz-adv-x="399" 
d="M336 319q-48 0 -76.5 -10.5t-44 -29.5t-21 -45t-8.5 -57t-6 -66t-13 -70.5t-30 -71.5t-57 -69l-16 13q44 39 63 83t25.5 88t8 84.5t10 74t31 57t71.5 31.5q-49 8 -71.5 31.5t-31 57t-10 74t-8 84.5t-25.5 88t-63 83l16 13q37 -33 57 -69t30 -71.5t13 -70.5t6 -66t8.5 -57
t21 -45t44 -29.5t76.5 -10.5v-24z" />
    <glyph glyph-name="asciitilde" unicode="~" horiz-adv-x="485" 
d="M420 354q0 -51 -20.5 -84t-64.5 -33q-34 0 -57 14.5t-42 32t-38 32t-46 14.5q-35 0 -50.5 -26t-15.5 -67h-23q0 51 22 84t63 33q30 0 50.5 -14.5t39.5 -32t40.5 -32t53.5 -14.5q35 0 50.5 26.5t15.5 66.5h22z" />
    <glyph glyph-name="uni00A0" unicode="&#xa0;" horiz-adv-x="353" 
 />
    <glyph glyph-name="exclamdown" unicode="&#xa1;" horiz-adv-x="171" 
d="M99 372h24v-511h-24v511zM111 540q-11 0 -20 8.5t-9 20.5q0 14 9 23t20 9q12 0 21 -9t9 -23q0 -12 -9 -20.5t-21 -8.5z" />
    <glyph glyph-name="cent" unicode="&#xa2;" horiz-adv-x="562" 
d="M498 117q-19 -21 -64 -42.5t-115 -24.5v-150h-22v150q-49 1 -92 17.5t-74.5 52t-49.5 89.5t-18 130t18.5 130.5t50 89.5t74.5 52t91 18v134h22v-135q35 -1 63 -7.5t50.5 -16t38.5 -21t27 -22.5l-13 -17q-25 23 -68 42t-114 19q-42 0 -81.5 -14t-69.5 -45.5t-48 -82.5
t-18 -124q0 -72 17.5 -122.5t47 -82.5t69 -46.5t83.5 -14.5q34 0 62.5 5.5t52 14.5t40.5 20t27 21z" />
    <glyph glyph-name="sterling" unicode="&#xa3;" horiz-adv-x="617" 
d="M75 23h9q30 0 43.5 19t16 54.5t-2.5 85t-10 111.5h-67v24h65q-2 32 -3.5 66t-1.5 71q0 47 13.5 86t40 67.5t65 44.5t88.5 16q72 0 120.5 -20t83.5 -53l-14 -17q-11 11 -28.5 23t-41 21.5t-53 16t-63.5 6.5q-45 0 -80 -14.5t-58.5 -40t-35.5 -61t-12 -77.5q0 -71 6 -135
h280v-24h-277q4 -46 7.5 -88t3 -77t-6.5 -62t-22 -43h413v-23h-478v23z" />
    <glyph glyph-name="currency" unicode="&#xa4;" horiz-adv-x="448" 
d="M223 231q-19 0 -36 5.5t-31 14.5l-76 -76l-17 20l75 72q-26 28 -26 72q0 40 22 66l-71 68l17 22l71 -71q14 11 32 17.5t40 6.5t40.5 -6.5t31.5 -17.5l71 72l17 -20l-71 -70q24 -26 24 -67q0 -22 -7.5 -39.5t-20.5 -30.5l75 -75l-16 -20l-78 78q-29 -21 -66 -21zM223 424
q-42 0 -65 -25.5t-23 -59.5t23 -59t65 -25q39 0 64.5 25t25.5 59q0 38 -23.5 61.5t-66.5 23.5z" />
    <glyph glyph-name="yen" unicode="&#xa5;" horiz-adv-x="629" 
d="M503 255h-177v-103h177v-21h-177v-131h-23v131h-190v21h190v103h-190v22h188v23l-238 367h29l223 -343l222 343h27l-237 -367v-23h176v-22z" />
    <glyph glyph-name="brokenbar" unicode="&#xa6;" horiz-adv-x="150" 
d="M63 -93v374h23v-374h-23zM63 381v374h23v-374h-23z" />
    <glyph glyph-name="section" unicode="&#xa7;" horiz-adv-x="413" 
d="M80 52q23 -14 57 -21.5t60 -7.5q52 0 85 21t33 61q0 30 -18.5 51t-46.5 38.5t-61 32.5t-61 32.5t-46.5 40.5t-18.5 55q0 35 19 64t54 45q-27 18 -44.5 41t-17.5 58q0 45 39 74.5t102 29.5q26 0 59.5 -7.5t57.5 -20.5v-24q-23 14 -57 21.5t-60 7.5q-52 0 -85 -21t-33 -61
q0 -30 18.5 -51t46.5 -38t61 -32.5t61 -33t46.5 -40t18.5 -54.5q0 -36 -19 -65t-55 -45q28 -18 46 -42t18 -58q0 -45 -39 -74t-103 -29q-26 0 -59.5 7.5t-57.5 20.5v24zM327 313q0 27 -16.5 46t-41.5 34t-55 28.5t-58 29.5q-35 -14 -52.5 -40t-17.5 -56q0 -27 16 -46
t41 -34.5t55 -29.5t58 -30q35 14 53 40t18 58z" />
    <glyph glyph-name="dieresis" unicode="&#xa8;" horiz-adv-x="351" 
d="M63 666q0 10 7.5 16.5t16.5 6.5t16 -6.5t7 -16.5q0 -9 -7 -16t-16 -7t-16.5 7t-7.5 16zM244 666q0 10 7.5 16.5t16.5 6.5t16 -6.5t7 -16.5q0 -9 -7 -16t-16 -7t-16.5 7t-7.5 16z" />
    <glyph glyph-name="copyright" unicode="&#xa9;" horiz-adv-x="697" 
d="M632 333q0 -85 -21.5 -150.5t-59 -110t-90 -67.5t-113.5 -23t-113 23t-90.5 67.5t-60 110t-21.5 150.5t21.5 150.5t60 110t90.5 67.5t113 23t113.5 -23t90 -67.5t59 -110t21.5 -150.5zM86 333q0 -86 21.5 -147.5t58 -102t84 -59.5t98.5 -19q52 0 99 19t83 59.5t57.5 102
t21.5 147.5q0 85 -21.5 147t-57.5 102.5t-83 59.5t-99 19q-51 0 -98.5 -19t-84 -59.5t-58 -102.5t-21.5 -147zM461 208q-13 -20 -39 -38.5t-70 -18.5q-30 0 -57 13.5t-47 38t-31.5 59.5t-11.5 77t11.5 76.5t31.5 59t47 38t57 13.5q43 0 69 -17t40 -40l-14 -15
q-18 29 -43.5 39t-48.5 10q-25 0 -48 -11t-40.5 -32t-28 -51.5t-10.5 -69.5t10.5 -69.5t28.5 -51.5t41 -32.5t48 -11.5q20 0 45.5 8.5t45.5 40.5z" />
    <glyph glyph-name="ordfeminine" unicode="&#xaa;" horiz-adv-x="376" 
d="M313 737v-316h-23v37q-14 -17 -37 -32t-59 -15q-31 0 -55 14t-41 37.5t-26 53.5t-9 63t9 63t26 53.5t41 37.5t55 14q35 0 58.5 -13t37.5 -33v36h23zM194 433q34 0 57.5 15t38.5 37v190q-16 23 -38.5 36.5t-57.5 13.5q-25 0 -45 -11.5t-34 -31.5t-21.5 -46.5t-7.5 -56.5
t7.5 -56.5t21.5 -46.5t34 -31.5t45 -11.5z" />
    <glyph glyph-name="guillemotleft" unicode="&#xab;" horiz-adv-x="774" 
d="M407 111l-344 212v18l342 210l14 -16l-329 -203l330 -205zM698 111l-344 212v18l342 210l14 -16l-329 -203l330 -205z" />
    <glyph glyph-name="logicalnot" unicode="&#xac;" horiz-adv-x="516" 
d="M452 347v-162h-23v138h-366v24h389z" />
    <glyph glyph-name="uni00AD" unicode="&#xad;" horiz-adv-x="582" 
d="M519 263h-456v24h456v-24z" />
    <glyph glyph-name="registered" unicode="&#xae;" horiz-adv-x="697" 
d="M632 333q0 -85 -21.5 -150.5t-59 -110t-90 -67.5t-113.5 -23t-113 23t-90.5 67.5t-60 110t-21.5 150.5t21.5 150.5t60 110t90.5 67.5t113 23t113.5 -23t90 -67.5t59 -110t21.5 -150.5zM86 333q0 -86 21.5 -148t57.5 -102.5t83.5 -60t99.5 -19.5t99.5 19.5t83.5 60
t57.5 102.5t21.5 148t-21.5 148.5t-57.5 103t-83.5 59.5t-99.5 19t-99.5 -19.5t-83.5 -60t-57.5 -102.5t-21.5 -148zM255 310v-156h-23v375h138q54 0 84.5 -30.5t30.5 -78.5q0 -39 -21.5 -70t-68.5 -38l87 -158h-27l-86 156h-114zM255 332h113q43 0 69.5 23t26.5 64
t-24.5 65t-69.5 24h-115v-176z" />
    <glyph glyph-name="macron" unicode="&#xaf;" horiz-adv-x="466" 
d="M402 624h-339v24h339v-24z" />
    <glyph glyph-name="degree" unicode="&#xb0;" horiz-adv-x="436" 
d="M217 527q-73 0 -113.5 28.5t-40.5 77.5q0 47 38 77.5t116 30.5t116.5 -30t38.5 -78t-42 -77t-113 -29zM217 718q-68 0 -98.5 -25.5t-30.5 -59.5q0 -32 30.5 -57t98.5 -25q66 0 99 25t33 57q0 38 -31.5 61.5t-100.5 23.5z" />
    <glyph glyph-name="plusminus" unicode="&#xb1;" horiz-adv-x="516" 
d="M270 586v-139h182v-24h-182v-138h-24v138h-183v24h183v139h24zM452 123h-389v24h389v-24z" />
    <glyph glyph-name="twosuperior" unicode="&#xb2;" horiz-adv-x="541" 
d="M484 200h-427v16q25 52 64 94t82.5 77t88 66t80 61.5t58 63t22.5 71.5q0 58 -48 94t-137 36q-66 0 -108.5 -16t-71.5 -42l-13 16q31 27 76 45t119 18q50 0 88.5 -11.5t64.5 -31.5t39.5 -47t13.5 -58q0 -43 -22.5 -78.5t-58 -68t-79 -63.5t-87 -64.5t-81 -72t-60.5 -84.5
h397v-21z" />
    <glyph glyph-name="threesuperior" unicode="&#xb3;" horiz-adv-x="545" 
d="M272 200q-133 0 -214 71l11 18q29 -26 81 -47t120 -21q42 0 78.5 10t62.5 28t41 43t15 56q0 37 -17 63.5t-47.5 45t-74.5 29.5t-98 16v21q50 0 91 9.5t69.5 26.5t44 41.5t15.5 54.5q0 27 -13.5 48t-38.5 35.5t-59 22.5t-76 8q-28 0 -55.5 -5t-51.5 -13.5t-43 -18.5
t-31 -20l-12 18q32 26 84.5 43t111.5 17q100 0 152.5 -38.5t52.5 -95.5q0 -54 -40.5 -92.5t-115.5 -53.5q91 -20 132 -60.5t41 -101.5q0 -32 -14 -60.5t-41.5 -50.5t-68 -34.5t-92.5 -12.5z" />
    <glyph glyph-name="acute" unicode="&#xb4;" horiz-adv-x="267" 
d="M63 602l114 191h27l-113 -191h-28z" />
    <glyph glyph-name="mu" unicode="&#xb5;" horiz-adv-x="593" 
d="M539 583h24v-427q0 -33 -12 -61.5t-33 -49.5t-50 -33.5t-62 -12.5h-134q-74 0 -132.5 39.5t-87.5 102.5v-241h-22v683h23v-341q0 -45 17.5 -85t47 -69.5t69.5 -47t85 -17.5h134q28 0 52.5 10.5t42.5 28.5t28 42t10 52v427z" />
    <glyph glyph-name="paragraph" unicode="&#xb6;" horiz-adv-x="535" 
d="M540 733h-150v-833h-32v833h-179v-833h-32v715q-28 2 -47.5 23.5t-19.5 50.5q0 27 19.5 49t47.5 24v5h393v-34z" />
    <glyph glyph-name="periodcentered" unicode="&#xb7;" horiz-adv-x="236" 
d="M97 304q0 10 7.5 16.5t16.5 6.5t16 -6.5t7 -16.5q0 -9 -7 -16t-16 -7t-16.5 7t-7.5 16z" />
    <glyph glyph-name="cedilla" unicode="&#xb8;" horiz-adv-x="295" 
d="M79 -189q23 -21 45 -27.5t39.5 -3t29 15.5t14.5 29t-4.5 38t-28.5 42q-18 18 -28.5 30.5t-15.5 23t-6.5 21.5t-1.5 26h22q0 -14 1.5 -23.5t6 -19t14 -20.5t25.5 -27q26 -26 34 -52.5t3 -48.5t-21 -37.5t-39 -20t-50.5 4t-54.5 34.5z" />
    <glyph glyph-name="onesuperior" unicode="&#xb9;" horiz-adv-x="460" 
d="M402 200h-343v21h164v556l-152 -33l-5 19l165 37h13v-579h158v-21z" />
    <glyph glyph-name="ordmasculine" unicode="&#xba;" horiz-adv-x="432" 
d="M216 300q-30 0 -58 14.5t-49 44t-33.5 73t-12.5 101.5q0 115 42 174.5t111 59.5q68 0 110.5 -58t42.5 -176q0 -49 -8.5 -91.5t-27 -74t-47.5 -49.5t-70 -18zM216 744q-61 0 -95.5 -54t-34.5 -157q0 -53 10.5 -92.5t28.5 -65.5t41.5 -39t49.5 -13q28 0 52 11t41 36t27 65
t10 98q0 106 -34.5 158.5t-95.5 52.5z" />
    <glyph glyph-name="guillemotright" unicode="&#xbb;" horiz-adv-x="774" 
d="M77 553l344 -212v-18l-342 -210l-14 16l329 203l-330 205zM367 553l344 -212v-18l-342 -210l-14 16l329 203l-330 205z" />
    <glyph glyph-name="onequarter" unicode="&#xbc;" horiz-adv-x="938" 
d="M778 -100v130h-231v16l233 322h21v-315h51v-23h-51v-130h-23zM243 -100h-42l513 862h42zM575 53h203v279zM360 300h-297v23h142v418l-131 -37v23l139 40h16v-444h131v-23z" />
    <glyph glyph-name="onehalf" unicode="&#xbd;" horiz-adv-x="971" 
d="M243 -100h-42l513 862h42zM903 -100h-297v20q32 39 77 79.5t86.5 81t71 79.5t29.5 75q0 48 -32 78.5t-86 30.5q-33 0 -65.5 -14t-68.5 -44v27q35 29 67.5 41.5t68.5 12.5q31 0 57 -10.5t44.5 -28t28.5 -41t10 -49.5q0 -39 -27 -78.5t-66.5 -79.5t-84 -79.5t-80.5 -77.5
h267v-23zM360 300h-297v23h142v418l-131 -37v23l139 40h16v-444h131v-23z" />
    <glyph glyph-name="threequarters" unicode="&#xbe;" horiz-adv-x="938" 
d="M778 -100v130h-231v16l233 322h21v-315h51v-23h-51v-130h-23zM243 -100h-42l513 862h42zM575 53h203v279zM211 300q-37 0 -71.5 15t-76.5 50v25q44 -38 78 -52.5t68 -14.5q28 0 51.5 9t40.5 24t26.5 35t9.5 43q0 21 -8.5 38.5t-28 32t-51.5 25t-79 16.5v20q65 0 106.5 22
t41.5 69q0 34 -32 60.5t-86 26.5q-32 0 -62 -12.5t-63 -40.5v26q33 26 63.5 38t63.5 12t59 -10t43.5 -25.5t27 -34.5t9.5 -38q0 -42 -28 -68.5t-74 -37.5q36 -10 59.5 -23t37 -29t19 -33t5.5 -35q0 -25 -10 -49t-29 -42.5t-46.5 -30t-63.5 -11.5z" />
    <glyph glyph-name="questiondown" unicode="&#xbf;" horiz-adv-x="574" 
d="M188 -139q-23 0 -43 10.5t-35 28.5t-24 42t-9 52v184q0 43 13.5 80.5t37 65t54 43t64.5 15.5h133v-23h-133q-30 0 -56.5 -14t-46.5 -38.5t-31.5 -57.5t-11.5 -71v-184q0 -47 25.5 -78.5t62.5 -31.5h356v-23h-356zM378 540q-11 0 -20 8.5t-9 20.5q0 14 9 23t20 9
q12 0 21 -9t9 -23q0 -12 -9 -20.5t-21 -8.5z" />
    <glyph glyph-name="Agrave" unicode="&#xc0;" horiz-adv-x="664" 
d="M-10 -1l222 646q16 45 48 69.5t73 24.5q40 0 72 -24.5t47 -69.5l222 -646h-25l-64 186h-505l-64 -186h-26zM87 207h490q-38 109 -74.5 215.5t-74.5 214.5q-13 36 -38 57.5t-57 21.5q-34 0 -59.5 -21.5t-37.5 -56.5zM375 758l-114 191h28l113 -191h-27z" />
    <glyph glyph-name="Aacute" unicode="&#xc1;" horiz-adv-x="664" 
d="M-10 -1l222 646q16 45 48 69.5t73 24.5q40 0 72 -24.5t47 -69.5l222 -646h-25l-64 186h-505l-64 -186h-26zM87 207h490q-38 109 -74.5 215.5t-74.5 214.5q-13 36 -38 57.5t-57 21.5q-34 0 -59.5 -21.5t-37.5 -56.5zM261 758l114 191h27l-113 -191h-28z" />
    <glyph glyph-name="Acircumflex" unicode="&#xc2;" horiz-adv-x="664" 
d="M-10 -1l222 646q16 45 48 69.5t73 24.5q40 0 72 -24.5t47 -69.5l222 -646h-25l-64 186h-505l-64 -186h-26zM87 207h490q-38 109 -74.5 215.5t-74.5 214.5q-13 36 -38 57.5t-57 21.5q-34 0 -59.5 -21.5t-37.5 -56.5zM170 758l153 173h19l152 -173h-29l-132 151l-133 -151
h-30z" />
    <glyph glyph-name="Atilde" unicode="&#xc3;" horiz-adv-x="664" 
d="M-10 -1l222 646q16 45 48 69.5t73 24.5q40 0 72 -24.5t47 -69.5l222 -646h-25l-64 186h-505l-64 -186h-26zM87 207h490q-38 109 -74.5 215.5t-74.5 214.5q-13 36 -38 57.5t-57 21.5q-34 0 -59.5 -21.5t-37.5 -56.5zM510 892q0 -51 -20.5 -84t-64.5 -33q-34 0 -57 14.5
t-42 32t-38 32t-46 14.5q-35 0 -50.5 -26t-15.5 -67h-23q0 51 22 84t63 33q30 0 50.5 -14.5t39.5 -32t40.5 -32t53.5 -14.5q35 0 50.5 26.5t15.5 66.5h22z" />
    <glyph glyph-name="Adieresis" unicode="&#xc4;" horiz-adv-x="664" 
d="M-10 -1l222 646q16 45 48 69.5t73 24.5q40 0 72 -24.5t47 -69.5l222 -646h-25l-64 186h-505l-64 -186h-26zM87 207h490q-38 109 -74.5 215.5t-74.5 214.5q-13 36 -38 57.5t-57 21.5q-34 0 -59.5 -21.5t-37.5 -56.5zM218 822q0 10 7.5 16.5t16.5 6.5t16 -6.5t7 -16.5
q0 -9 -7 -16t-16 -7t-16.5 7t-7.5 16zM398 822q0 10 7.5 16.5t16.5 6.5t16 -6.5t7 -16.5q0 -9 -7 -16t-16 -7t-16.5 7t-7.5 16z" />
    <glyph glyph-name="Aring" unicode="&#xc5;" horiz-adv-x="664" 
d="M-10 -1l222 646q16 45 48 69.5t73 24.5q40 0 72 -24.5t47 -69.5l222 -646h-25l-64 186h-505l-64 -186h-26zM87 207h490q-38 109 -74.5 215.5t-74.5 214.5q-13 36 -38 57.5t-57 21.5q-34 0 -59.5 -21.5t-37.5 -56.5zM331 763q-73 0 -113.5 28.5t-40.5 77.5q0 47 38 77.5
t116 30.5t116.5 -30t38.5 -78t-42 -77t-113 -29zM331 954q-68 0 -98.5 -25.5t-30.5 -59.5q0 -32 30.5 -57t98.5 -25q66 0 99 25t33 57q0 38 -31.5 61.5t-100.5 23.5z" />
    <glyph glyph-name="AE" unicode="&#xc6;" horiz-adv-x="854" 
d="M446 156q0 -28 10.5 -52t28.5 -42t42.5 -28.5t52.5 -10.5h247v-24h-247q-32 0 -60.5 12.5t-50 33.5t-34 49.5t-12.5 61.5v29h-343l-64 -186h-26l222 646q16 45 48 69.5t73 24.5h494v-23h-247q-27 -1 -51.5 -12.5t-43 -31t-29 -45t-10.5 -54.5v-158h381v-24h-381v-235z
M423 573q0 45 22 83t58 60h-170q-34 0 -59.5 -21.5t-37.5 -56.5l-149 -431h336v366z" />
    <glyph glyph-name="Ccedilla" unicode="&#xc7;" horiz-adv-x="515" 
d="M266 -184q23 -20 45 -27t39.5 -3.5t29 15.5t14.5 29t-4.5 38t-28.5 42q-16 16 -26 27.5t-15.5 21.5t-8 19t-2.5 21h-128q-31 0 -58.5 13t-48 36t-32.5 53.5t-12 65.5v313q0 54 18 101t49.5 82t73.5 55.5t90 20.5h254v-23h-254q-44 0 -81.5 -19t-66 -51t-44.5 -75t-16 -91
v-313q0 -29 10 -55.5t27.5 -46t40.5 -31t50 -11.5h334v-24h-184q0 -11 2 -19t7.5 -16.5t14.5 -18.5t23 -24q26 -26 34 -52.5t3 -48.5t-21 -37.5t-39 -20t-50.5 4t-54.5 34.5z" />
    <glyph glyph-name="Egrave" unicode="&#xc8;" 
d="M30 573q0 34 13 64.5t35 53t52 35.5t64 13h380v-23h-380q-29 0 -54.5 -11t-45 -30.5t-30.5 -45.5t-11 -56v-158h521v-24h-521v-235q0 -28 10.5 -52t28.5 -42t42.5 -28.5t52.5 -10.5h387v-24h-387q-33 0 -61.5 12.5t-49.5 33.5t-33.5 49.5t-12.5 61.5v417zM345 758
l-114 191h28l113 -191h-27z" />
    <glyph glyph-name="Eacute" unicode="&#xc9;" 
d="M30 573q0 34 13 64.5t35 53t52 35.5t64 13h380v-23h-380q-29 0 -54.5 -11t-45 -30.5t-30.5 -45.5t-11 -56v-158h521v-24h-521v-235q0 -28 10.5 -52t28.5 -42t42.5 -28.5t52.5 -10.5h387v-24h-387q-33 0 -61.5 12.5t-49.5 33.5t-33.5 49.5t-12.5 61.5v417zM231 758
l114 191h27l-113 -191h-28z" />
    <glyph glyph-name="Ecircumflex" unicode="&#xca;" 
d="M30 573q0 34 13 64.5t35 53t52 35.5t64 13h380v-23h-380q-29 0 -54.5 -11t-45 -30.5t-30.5 -45.5t-11 -56v-158h521v-24h-521v-235q0 -28 10.5 -52t28.5 -42t42.5 -28.5t52.5 -10.5h387v-24h-387q-33 0 -61.5 12.5t-49.5 33.5t-33.5 49.5t-12.5 61.5v417zM140 758
l153 173h19l152 -173h-29l-132 151l-133 -151h-30z" />
    <glyph glyph-name="Edieresis" unicode="&#xcb;" 
d="M30 573q0 34 13 64.5t35 53t52 35.5t64 13h380v-23h-380q-29 0 -54.5 -11t-45 -30.5t-30.5 -45.5t-11 -56v-158h521v-24h-521v-235q0 -28 10.5 -52t28.5 -42t42.5 -28.5t52.5 -10.5h387v-24h-387q-33 0 -61.5 12.5t-49.5 33.5t-33.5 49.5t-12.5 61.5v417zM188 822
q0 10 7.5 16.5t16.5 6.5t16 -6.5t7 -16.5q0 -9 -7 -16t-16 -7t-16.5 7t-7.5 16zM368 822q0 10 7.5 16.5t16.5 6.5t16 -6.5t7 -16.5q0 -9 -7 -16t-16 -7t-16.5 7t-7.5 16z" />
    <glyph glyph-name="Igrave" unicode="&#xcc;" horiz-adv-x="150" 
d="M87 -1h-23v740h23v-740zM118 758l-114 191h28l113 -191h-27z" />
    <glyph glyph-name="Iacute" unicode="&#xcd;" horiz-adv-x="150" 
d="M87 -1h-23v740h23v-740zM4 758l114 191h27l-113 -191h-28z" />
    <glyph glyph-name="Icircumflex" unicode="&#xce;" horiz-adv-x="150" 
d="M87 -1h-23v740h23v-740zM-87 758l153 173h19l152 -173h-29l-132 151l-133 -151h-30z" />
    <glyph glyph-name="Idieresis" unicode="&#xcf;" horiz-adv-x="150" 
d="M87 -1h-23v740h23v-740zM-39 822q0 10 7.5 16.5t16.5 6.5t16 -6.5t7 -16.5q0 -9 -7 -16t-16 -7t-16.5 7t-7.5 16zM142 822q0 10 7.5 16.5t16.5 6.5t16 -6.5t7 -16.5q0 -9 -7 -16t-16 -7t-16.5 7t-7.5 16z" />
    <glyph glyph-name="Eth" unicode="&#xd0;" horiz-adv-x="587" 
d="M324 739q48 0 90.5 -20.5t74 -55.5t50 -82t18.5 -101v-313q0 -35 -12 -65.5t-32.5 -53.5t-48.5 -36t-60 -13h-374v336h-81v24h81v380h294zM275 335h-222v-312h351q27 0 51 11.5t41 31t27 46t10 55.5v313q0 48 -16.5 91t-45 75t-66.5 51t-81 19h-271v-357h222v-24z" />
    <glyph glyph-name="Ntilde" unicode="&#xd1;" horiz-adv-x="736" 
d="M706 739v-607q0 -38 -16 -66t-40.5 -44t-55 -20t-59 4t-52 29t-34.5 55l-179 548q-9 30 -28.5 47.5t-43.5 24.5t-50 3t-47 -18t-34.5 -37t-13.5 -55v-604h-23v604q0 38 16 66t41 45t55 21.5t59.5 -3.5t54 -29.5t37.5 -57.5l180 -548q9 -28 28 -45.5t42.5 -24t48 -2.5
t45 17.5t33.5 36t13 53.5v607h23zM546 892q0 -51 -20.5 -84t-64.5 -33q-34 0 -57 14.5t-42 32t-38 32t-46 14.5q-35 0 -50.5 -26t-15.5 -67h-23q0 51 22 84t63 33q30 0 50.5 -14.5t39.5 -32t40.5 -32t53.5 -14.5q35 0 50.5 26.5t15.5 66.5h22z" />
    <glyph glyph-name="Ograve" unicode="&#xd2;" horiz-adv-x="607" 
d="M434 739q30 0 56 -11.5t45.5 -31.5t30.5 -46t11 -56v-374q0 -45 -17.5 -85.5t-47.5 -70.5t-71 -47.5t-88 -17.5h-177q-30 0 -56.5 11t-46.5 30.5t-31.5 46t-11.5 56.5v374q0 46 17.5 86.5t47.5 70.5t70.5 47.5t86.5 17.5h182zM554 594q0 25 -9.5 47.5t-26 39t-38.5 26
t-46 9.5h-182q-41 0 -77 -15.5t-63 -42.5t-43 -63.5t-16 -77.5v-374q0 -24 9.5 -46t26.5 -38.5t39 -26t48 -9.5h177q41 0 77.5 15.5t64 42t43.5 62.5t16 77v374zM346 758l-114 191h28l113 -191h-27z" />
    <glyph glyph-name="Oacute" unicode="&#xd3;" horiz-adv-x="607" 
d="M434 739q30 0 56 -11.5t45.5 -31.5t30.5 -46t11 -56v-374q0 -45 -17.5 -85.5t-47.5 -70.5t-71 -47.5t-88 -17.5h-177q-30 0 -56.5 11t-46.5 30.5t-31.5 46t-11.5 56.5v374q0 46 17.5 86.5t47.5 70.5t70.5 47.5t86.5 17.5h182zM554 594q0 25 -9.5 47.5t-26 39t-38.5 26
t-46 9.5h-182q-41 0 -77 -15.5t-63 -42.5t-43 -63.5t-16 -77.5v-374q0 -24 9.5 -46t26.5 -38.5t39 -26t48 -9.5h177q41 0 77.5 15.5t64 42t43.5 62.5t16 77v374zM232 758l114 191h27l-113 -191h-28z" />
    <glyph glyph-name="Ocircumflex" unicode="&#xd4;" horiz-adv-x="607" 
d="M434 739q30 0 56 -11.5t45.5 -31.5t30.5 -46t11 -56v-374q0 -45 -17.5 -85.5t-47.5 -70.5t-71 -47.5t-88 -17.5h-177q-30 0 -56.5 11t-46.5 30.5t-31.5 46t-11.5 56.5v374q0 46 17.5 86.5t47.5 70.5t70.5 47.5t86.5 17.5h182zM554 594q0 25 -9.5 47.5t-26 39t-38.5 26
t-46 9.5h-182q-41 0 -77 -15.5t-63 -42.5t-43 -63.5t-16 -77.5v-374q0 -24 9.5 -46t26.5 -38.5t39 -26t48 -9.5h177q41 0 77.5 15.5t64 42t43.5 62.5t16 77v374zM141 758l153 173h19l152 -173h-29l-132 151l-133 -151h-30z" />
    <glyph glyph-name="Otilde" unicode="&#xd5;" horiz-adv-x="607" 
d="M434 739q30 0 56 -11.5t45.5 -31.5t30.5 -46t11 -56v-374q0 -45 -17.5 -85.5t-47.5 -70.5t-71 -47.5t-88 -17.5h-177q-30 0 -56.5 11t-46.5 30.5t-31.5 46t-11.5 56.5v374q0 46 17.5 86.5t47.5 70.5t70.5 47.5t86.5 17.5h182zM554 594q0 25 -9.5 47.5t-26 39t-38.5 26
t-46 9.5h-182q-41 0 -77 -15.5t-63 -42.5t-43 -63.5t-16 -77.5v-374q0 -24 9.5 -46t26.5 -38.5t39 -26t48 -9.5h177q41 0 77.5 15.5t64 42t43.5 62.5t16 77v374zM482 892q0 -51 -20.5 -84t-64.5 -33q-34 0 -57 14.5t-42 32t-38 32t-46 14.5q-35 0 -50.5 -26t-15.5 -67h-23
q0 51 22 84t63 33q30 0 50.5 -14.5t39.5 -32t40.5 -32t53.5 -14.5q35 0 50.5 26.5t15.5 66.5h22z" />
    <glyph glyph-name="Odieresis" unicode="&#xd6;" horiz-adv-x="607" 
d="M434 739q30 0 56 -11.5t45.5 -31.5t30.5 -46t11 -56v-374q0 -45 -17.5 -85.5t-47.5 -70.5t-71 -47.5t-88 -17.5h-177q-30 0 -56.5 11t-46.5 30.5t-31.5 46t-11.5 56.5v374q0 46 17.5 86.5t47.5 70.5t70.5 47.5t86.5 17.5h182zM554 594q0 25 -9.5 47.5t-26 39t-38.5 26
t-46 9.5h-182q-41 0 -77 -15.5t-63 -42.5t-43 -63.5t-16 -77.5v-374q0 -24 9.5 -46t26.5 -38.5t39 -26t48 -9.5h177q41 0 77.5 15.5t64 42t43.5 62.5t16 77v374zM188 822q0 10 7.5 16.5t16.5 6.5t16 -6.5t7 -16.5q0 -9 -7 -16t-16 -7t-16.5 7t-7.5 16zM369 822
q0 10 7.5 16.5t16.5 6.5t16 -6.5t7 -16.5q0 -9 -7 -16t-16 -7t-16.5 7t-7.5 16z" />
    <glyph glyph-name="multiply" unicode="&#xd7;" horiz-adv-x="488" 
d="M63 172l164 140l-163 140h34l146 -125l146 125h33l-163 -140l164 -140h-33l-147 126l-147 -126h-34z" />
    <glyph glyph-name="Oslash" unicode="&#xd8;" horiz-adv-x="607" 
d="M537 694q18 -20 29 -45.5t11 -54.5v-374q0 -45 -17.5 -85.5t-47.5 -70.5t-71 -47.5t-88 -17.5h-177q-27 0 -48 7l-45 -76h-30l51 87q-33 18 -53.5 51.5t-20.5 74.5v374q0 46 17.5 86.5t47.5 70.5t70.5 47.5t86.5 17.5h182q23 0 44 -7.5t39 -20.5l49 83h30zM53 143
q0 -34 17.5 -62t46.5 -43l388 654q-32 24 -71 24h-182q-41 0 -77 -15.5t-63 -42.5t-43 -63.5t-16 -77.5v-374zM554 594q0 46 -30 79l-383 -645q8 -3 17 -4t18 -1h177q41 0 77.5 15.5t64 42t43.5 62.5t16 77v374z" />
    <glyph glyph-name="Ugrave" unicode="&#xd9;" horiz-adv-x="622" 
d="M592 154q0 -32 -12.5 -60.5t-33.5 -49.5t-49.5 -33t-60.5 -12h-166q-50 0 -93.5 19t-76 51t-51.5 75.5t-19 93.5v501h23v-501q0 -44 17 -83.5t46.5 -68.5t69 -46t84.5 -17h166q28 0 52 10.5t42 28t28.5 41.5t10.5 51v585h23v-585zM354 758l-114 191h28l113 -191h-27z" />
    <glyph glyph-name="Uacute" unicode="&#xda;" horiz-adv-x="622" 
d="M592 154q0 -32 -12.5 -60.5t-33.5 -49.5t-49.5 -33t-60.5 -12h-166q-50 0 -93.5 19t-76 51t-51.5 75.5t-19 93.5v501h23v-501q0 -44 17 -83.5t46.5 -68.5t69 -46t84.5 -17h166q28 0 52 10.5t42 28t28.5 41.5t10.5 51v585h23v-585zM240 758l114 191h27l-113 -191h-28z" />
    <glyph glyph-name="Ucircumflex" unicode="&#xdb;" horiz-adv-x="622" 
d="M592 154q0 -32 -12.5 -60.5t-33.5 -49.5t-49.5 -33t-60.5 -12h-166q-50 0 -93.5 19t-76 51t-51.5 75.5t-19 93.5v501h23v-501q0 -44 17 -83.5t46.5 -68.5t69 -46t84.5 -17h166q28 0 52 10.5t42 28t28.5 41.5t10.5 51v585h23v-585zM149 758l153 173h19l152 -173h-29
l-132 151l-133 -151h-30z" />
    <glyph glyph-name="Udieresis" unicode="&#xdc;" horiz-adv-x="622" 
d="M592 154q0 -32 -12.5 -60.5t-33.5 -49.5t-49.5 -33t-60.5 -12h-166q-50 0 -93.5 19t-76 51t-51.5 75.5t-19 93.5v501h23v-501q0 -44 17 -83.5t46.5 -68.5t69 -46t84.5 -17h166q28 0 52 10.5t42 28t28.5 41.5t10.5 51v585h23v-585zM197 822q0 10 7.5 16.5t16.5 6.5
t16 -6.5t7 -16.5q0 -9 -7 -16t-16 -7t-16.5 7t-7.5 16zM377 822q0 10 7.5 16.5t16.5 6.5t16 -6.5t7 -16.5q0 -9 -7 -16t-16 -7t-16.5 7t-7.5 16z" />
    <glyph glyph-name="Yacute" unicode="&#xdd;" horiz-adv-x="481" 
d="M506 739l-146 -367q-15 -35 -44 -56.5t-64 -25.5v-291h-23v290q-36 4 -64.5 26t-43.5 57l-147 367h25l143 -358q14 -32 40 -50t58 -18t59 18t39 50l142 358h26zM169 758l114 191h27l-113 -191h-28z" />
    <glyph glyph-name="Thorn" unicode="&#xde;" horiz-adv-x="642" 
d="M431 674q66 0 112.5 -29t61.5 -77q17 -53 -9 -105t-86 -92l-457 -298v-74h-23v740h23v-65h378zM496 390q55 36 78 80.5t10 89.5q-14 42 -53.5 66t-99.5 24h-378v-549z" />
    <glyph glyph-name="germandbls" unicode="&#xdf;" horiz-adv-x="569" 
d="M377 415q42 0 72.5 -11.5t50.5 -32t29.5 -47.5t9.5 -58v-136q0 -26 -7.5 -49.5t-22 -41.5t-36.5 -29t-51 -11h-237v24h237q44 0 68.5 28t24.5 79v136q0 25 -8 48t-24.5 40t-42.5 27t-63 10h-192v24h169v176q0 60 -29.5 92.5t-80.5 32.5h-57q-28 0 -52.5 -11.5
t-42.5 -31.5t-28.5 -46.5t-10.5 -57.5v-570h-23v570q0 35 12.5 66t33.5 54t49.5 36.5t61.5 13.5h57q62 0 97.5 -39.5t35.5 -108.5v-176z" />
    <glyph glyph-name="agrave" unicode="&#xe0;" horiz-adv-x="528" 
d="M385 583q59 -1 85.5 -27.5t26.5 -71.5v-485h-348q-51 0 -85.5 18.5t-46 46.5t4 61.5t63.5 63.5q85 56 169.5 110.5t169.5 109.5q27 18 39 44t7.5 50t-25.5 40.5t-60 16.5h-361v23h361zM474 424q-7 -11 -16.5 -19.5t-21.5 -16.5l-339 -220q-38 -23 -51 -48.5t-4.5 -47
t36 -35.5t71.5 -14h325v401zM307 602l-114 191h28l113 -191h-27z" />
    <glyph glyph-name="aacute" unicode="&#xe1;" horiz-adv-x="528" 
d="M385 583q59 -1 85.5 -27.5t26.5 -71.5v-485h-348q-51 0 -85.5 18.5t-46 46.5t4 61.5t63.5 63.5q85 56 169.5 110.5t169.5 109.5q27 18 39 44t7.5 50t-25.5 40.5t-60 16.5h-361v23h361zM474 424q-7 -11 -16.5 -19.5t-21.5 -16.5l-339 -220q-38 -23 -51 -48.5t-4.5 -47
t36 -35.5t71.5 -14h325v401zM193 602l114 191h27l-113 -191h-28z" />
    <glyph glyph-name="acircumflex" unicode="&#xe2;" horiz-adv-x="528" 
d="M385 583q59 -1 85.5 -27.5t26.5 -71.5v-485h-348q-51 0 -85.5 18.5t-46 46.5t4 61.5t63.5 63.5q85 56 169.5 110.5t169.5 109.5q27 18 39 44t7.5 50t-25.5 40.5t-60 16.5h-361v23h361zM474 424q-7 -11 -16.5 -19.5t-21.5 -16.5l-339 -220q-38 -23 -51 -48.5t-4.5 -47
t36 -35.5t71.5 -14h325v401zM102 602l153 173h19l152 -173h-29l-132 151l-133 -151h-30z" />
    <glyph glyph-name="atilde" unicode="&#xe3;" horiz-adv-x="528" 
d="M385 583q59 -1 85.5 -27.5t26.5 -71.5v-485h-348q-51 0 -85.5 18.5t-46 46.5t4 61.5t63.5 63.5q85 56 169.5 110.5t169.5 109.5q27 18 39 44t7.5 50t-25.5 40.5t-60 16.5h-361v23h361zM474 424q-7 -11 -16.5 -19.5t-21.5 -16.5l-339 -220q-38 -23 -51 -48.5t-4.5 -47
t36 -35.5t71.5 -14h325v401zM442 737q0 -51 -20.5 -84t-64.5 -33q-34 0 -57 14.5t-42 32t-38 32t-46 14.5q-35 0 -50.5 -26t-15.5 -67h-23q0 51 22 84t63 33q30 0 50.5 -14.5t39.5 -32t40.5 -32t53.5 -14.5q35 0 50.5 26.5t15.5 66.5h22z" />
    <glyph glyph-name="adieresis" unicode="&#xe4;" horiz-adv-x="528" 
d="M385 583q59 -1 85.5 -27.5t26.5 -71.5v-485h-348q-51 0 -85.5 18.5t-46 46.5t4 61.5t63.5 63.5q85 56 169.5 110.5t169.5 109.5q27 18 39 44t7.5 50t-25.5 40.5t-60 16.5h-361v23h361zM474 424q-7 -11 -16.5 -19.5t-21.5 -16.5l-339 -220q-38 -23 -51 -48.5t-4.5 -47
t36 -35.5t71.5 -14h325v401zM150 666q0 10 7.5 16.5t16.5 6.5t16 -6.5t7 -16.5q0 -9 -7 -16t-16 -7t-16.5 7t-7.5 16zM330 666q0 10 7.5 16.5t16.5 6.5t16 -6.5t7 -16.5q0 -9 -7 -16t-16 -7t-16.5 7t-7.5 16z" />
    <glyph glyph-name="aring" unicode="&#xe5;" horiz-adv-x="528" 
d="M385 583q59 -1 85.5 -27.5t26.5 -71.5v-485h-348q-51 0 -85.5 18.5t-46 46.5t4 61.5t63.5 63.5q85 56 169.5 110.5t169.5 109.5q27 18 39 44t7.5 50t-25.5 40.5t-60 16.5h-361v23h361zM474 424q-7 -11 -16.5 -19.5t-21.5 -16.5l-339 -220q-38 -23 -51 -48.5t-4.5 -47
t36 -35.5t71.5 -14h325v401zM263 607q-73 0 -113.5 28.5t-40.5 77.5q0 47 38 77.5t116 30.5t116.5 -30t38.5 -78t-42 -77t-113 -29zM263 798q-68 0 -98.5 -25.5t-30.5 -59.5q0 -32 30.5 -57t98.5 -25q66 0 99 25t33 57q0 38 -31.5 61.5t-100.5 23.5z" />
    <glyph glyph-name="ae" unicode="&#xe6;" horiz-adv-x="986" 
d="M531 101q25 -35 65 -56.5t88 -21.5h275v-24h-275q-61 0 -111 31.5t-76 82.5v-114h-348q-51 0 -85.5 18.5t-46 46.5t4 61.5t63.5 63.5q85 56 169.5 110.5t169.5 109.5q27 18 39 44t7.5 50t-25.5 40.5t-60 16.5h-361v23h361q59 -1 85.5 -27.5t26.5 -71.5v-16q26 51 76 83
t111 32h161q45 0 73 -18.5t36.5 -46.5t-4 -61.5t-49.5 -62.5zM684 560q-37 0 -69.5 -13.5t-57.5 -36.5t-41 -54t-19 -67v-197q2 -19 7.5 -36.5t13.5 -32.5l371 289q30 24 40 50t3 48t-29 36t-58 14h-161zM474 189q-1 5 -1 10.5v11.5v159v10.5t1 10.5v33q-7 -11 -16.5 -19.5
t-21.5 -16.5l-339 -220q-38 -23 -51 -48.5t-4.5 -47t36 -35.5t71.5 -14h325v166z" />
    <glyph glyph-name="ccedilla" unicode="&#xe7;" horiz-adv-x="532" 
d="M231 -186q23 -21 45 -27.5t39.5 -3t29 15.5t14.5 29t-4.5 38t-28.5 42q-17 16 -27 28t-15.5 22t-7.5 19.5t-2 21.5h-102q-30 0 -56 11t-45 29.5t-30 43.5t-11 53v237q0 44 17 82.5t46.5 67.5t68.5 45.5t84 16.5h256v-24h-256q-40 0 -75 -15t-61.5 -40.5t-41.5 -59.5
t-15 -73v-237q0 -23 9.5 -43.5t25.5 -36t37.5 -24.5t46.5 -9h330v-24h-206q0 -11 2 -19.5t7 -17t14 -18.5t24 -25q26 -26 34 -52.5t3 -48.5t-21 -37.5t-39 -20t-50.5 4t-54.5 34.5z" />
    <glyph glyph-name="egrave" unicode="&#xe8;" horiz-adv-x="534" 
d="M88 101q25 -35 65 -56.5t88 -21.5h275v-24h-275q-44 0 -82 17t-67 45.5t-45.5 67t-16.5 82.5v159q0 43 16.5 82t45.5 68t67 46t82 17h161q45 0 73 -18.5t36.5 -46.5t-4 -61.5t-49.5 -62.5zM53 211q0 -24 6 -46.5t16 -41.5l371 289q30 24 40 50t3 48t-29 36t-58 14h-161
q-39 0 -73.5 -15t-60 -41t-40 -60.5t-14.5 -73.5v-159zM310 602l-114 191h28l113 -191h-27z" />
    <glyph glyph-name="eacute" unicode="&#xe9;" horiz-adv-x="534" 
d="M88 101q25 -35 65 -56.5t88 -21.5h275v-24h-275q-44 0 -82 17t-67 45.5t-45.5 67t-16.5 82.5v159q0 43 16.5 82t45.5 68t67 46t82 17h161q45 0 73 -18.5t36.5 -46.5t-4 -61.5t-49.5 -62.5zM53 211q0 -24 6 -46.5t16 -41.5l371 289q30 24 40 50t3 48t-29 36t-58 14h-161
q-39 0 -73.5 -15t-60 -41t-40 -60.5t-14.5 -73.5v-159zM197 602l114 191h27l-113 -191h-28z" />
    <glyph glyph-name="ecircumflex" unicode="&#xea;" horiz-adv-x="534" 
d="M88 101q25 -35 65 -56.5t88 -21.5h275v-24h-275q-44 0 -82 17t-67 45.5t-45.5 67t-16.5 82.5v159q0 43 16.5 82t45.5 68t67 46t82 17h161q45 0 73 -18.5t36.5 -46.5t-4 -61.5t-49.5 -62.5zM53 211q0 -24 6 -46.5t16 -41.5l371 289q30 24 40 50t3 48t-29 36t-58 14h-161
q-39 0 -73.5 -15t-60 -41t-40 -60.5t-14.5 -73.5v-159zM105 602l153 173h19l152 -173h-29l-132 151l-133 -151h-30z" />
    <glyph glyph-name="edieresis" unicode="&#xeb;" horiz-adv-x="534" 
d="M88 101q25 -35 65 -56.5t88 -21.5h275v-24h-275q-44 0 -82 17t-67 45.5t-45.5 67t-16.5 82.5v159q0 43 16.5 82t45.5 68t67 46t82 17h161q45 0 73 -18.5t36.5 -46.5t-4 -61.5t-49.5 -62.5zM53 211q0 -24 6 -46.5t16 -41.5l371 289q30 24 40 50t3 48t-29 36t-58 14h-161
q-39 0 -73.5 -15t-60 -41t-40 -60.5t-14.5 -73.5v-159zM153 666q0 10 7.5 16.5t16.5 6.5t16 -6.5t7 -16.5q0 -9 -7 -16t-16 -7t-16.5 7t-7.5 16zM333 666q0 10 7.5 16.5t16.5 6.5t16 -6.5t7 -16.5q0 -9 -7 -16t-16 -7t-16.5 7t-7.5 16z" />
    <glyph glyph-name="igrave" unicode="&#xec;" horiz-adv-x="153" 
d="M120 601l-114 191h28l113 -191h-27zM66 572h23v-573h-23v573z" />
    <glyph glyph-name="iacute" unicode="&#xed;" horiz-adv-x="153" 
d="M7 601l114 191h27l-113 -191h-28zM66 572h23v-573h-23v573z" />
    <glyph glyph-name="icircumflex" unicode="&#xee;" horiz-adv-x="153" 
d="M66 572h23v-573h-23v573zM-85 602l153 173h19l152 -173h-29l-132 151l-133 -151h-30z" />
    <glyph glyph-name="idieresis" unicode="&#xef;" horiz-adv-x="153" 
d="M143 666q0 10 7.5 16.5t16.5 6.5t16 -6.5t7 -16.5q0 -9 -7 -16t-16 -7t-16.5 7t-7.5 16zM-37 666q0 10 7.5 16.5t16.5 6.5t16 -6.5t7 -16.5q0 -9 -7 -16t-16 -7t-16.5 7t-7.5 16zM66 572h23v-573h-23v573z" />
    <glyph glyph-name="eth" unicode="&#xf0;" horiz-adv-x="567" 
d="M513 321q27 -59 24 -116.5t-29.5 -103t-74 -74t-109.5 -28.5h-139q-33 0 -61 12t-49 33t-33 49.5t-12 60.5v79q0 49 18.5 92t51 75t75.5 50.5t93 18.5h150l-73 159h-286v24h275l-40 87h25l40 -87h165v-24h-153zM321 23q59 2 101.5 28.5t66 67.5t25 91t-22.5 99l-63 138
h-160q-44 0 -83.5 -16.5t-68.5 -45.5t-46 -68t-17 -84v-79q0 -27 10.5 -51t28.5 -41.5t42 -28t51 -10.5h136z" />
    <glyph glyph-name="ntilde" unicode="&#xf1;" horiz-adv-x="556" 
d="M305 583q50 0 90.5 -16t69.5 -45.5t45 -71t16 -91.5v-360h-24v360q0 45 -14 82t-40 63.5t-62 41t-81 14.5h-122q-63 0 -96.5 -36t-33.5 -102v-423h-23v423q0 33 10.5 62.5t30 51.5t48 34.5t64.5 12.5h122zM456 737q0 -51 -20.5 -84t-64.5 -33q-34 0 -57 14.5t-42 32
t-38 32t-46 14.5q-35 0 -50.5 -26t-15.5 -67h-23q0 51 22 84t63 33q30 0 50.5 -14.5t39.5 -32t40.5 -32t53.5 -14.5q35 0 50.5 26.5t15.5 66.5h22z" />
    <glyph glyph-name="ograve" unicode="&#xf2;" 
d="M428 583q30 0 56.5 -11.5t46.5 -31.5t31.5 -46t11.5 -56v-218q0 -45 -17.5 -85.5t-48 -70.5t-71 -47.5t-86.5 -17.5h-177q-30 0 -56.5 11t-46 30.5t-30.5 46t-11 56.5v218q0 46 17.5 86.5t47.5 70.5t70 47.5t85 17.5h178zM550 438q0 25 -9.5 47.5t-26 39t-39 26
t-47.5 9.5h-178q-41 0 -77 -16t-62.5 -43t-42 -63t-15.5 -77v-218q0 -24 9.5 -46t26 -38.5t38.5 -26t47 -9.5h177q41 0 77.5 15.5t63.5 42t42.5 62.5t15.5 77v218zM345 602l-114 191h28l113 -191h-27z" />
    <glyph glyph-name="oacute" unicode="&#xf3;" 
d="M428 583q30 0 56.5 -11.5t46.5 -31.5t31.5 -46t11.5 -56v-218q0 -45 -17.5 -85.5t-48 -70.5t-71 -47.5t-86.5 -17.5h-177q-30 0 -56.5 11t-46 30.5t-30.5 46t-11 56.5v218q0 46 17.5 86.5t47.5 70.5t70 47.5t85 17.5h178zM550 438q0 25 -9.5 47.5t-26 39t-39 26
t-47.5 9.5h-178q-41 0 -77 -16t-62.5 -43t-42 -63t-15.5 -77v-218q0 -24 9.5 -46t26 -38.5t38.5 -26t47 -9.5h177q41 0 77.5 15.5t63.5 42t42.5 62.5t15.5 77v218zM231 602l114 191h27l-113 -191h-28z" />
    <glyph glyph-name="ocircumflex" unicode="&#xf4;" 
d="M428 583q30 0 56.5 -11.5t46.5 -31.5t31.5 -46t11.5 -56v-218q0 -45 -17.5 -85.5t-48 -70.5t-71 -47.5t-86.5 -17.5h-177q-30 0 -56.5 11t-46 30.5t-30.5 46t-11 56.5v218q0 46 17.5 86.5t47.5 70.5t70 47.5t85 17.5h178zM550 438q0 25 -9.5 47.5t-26 39t-39 26
t-47.5 9.5h-178q-41 0 -77 -16t-62.5 -43t-42 -63t-15.5 -77v-218q0 -24 9.5 -46t26 -38.5t38.5 -26t47 -9.5h177q41 0 77.5 15.5t63.5 42t42.5 62.5t15.5 77v218zM140 602l153 173h19l152 -173h-29l-132 151l-133 -151h-30z" />
    <glyph glyph-name="otilde" unicode="&#xf5;" 
d="M428 583q30 0 56.5 -11.5t46.5 -31.5t31.5 -46t11.5 -56v-218q0 -45 -17.5 -85.5t-48 -70.5t-71 -47.5t-86.5 -17.5h-177q-30 0 -56.5 11t-46 30.5t-30.5 46t-11 56.5v218q0 46 17.5 86.5t47.5 70.5t70 47.5t85 17.5h178zM550 438q0 25 -9.5 47.5t-26 39t-39 26
t-47.5 9.5h-178q-41 0 -77 -16t-62.5 -43t-42 -63t-15.5 -77v-218q0 -24 9.5 -46t26 -38.5t38.5 -26t47 -9.5h177q41 0 77.5 15.5t63.5 42t42.5 62.5t15.5 77v218zM480 737q0 -51 -20.5 -84t-64.5 -33q-34 0 -57 14.5t-42 32t-38 32t-46 14.5q-35 0 -50.5 -26t-15.5 -67h-23
q0 51 22 84t63 33q30 0 50.5 -14.5t39.5 -32t40.5 -32t53.5 -14.5q35 0 50.5 26.5t15.5 66.5h22z" />
    <glyph glyph-name="odieresis" unicode="&#xf6;" 
d="M428 583q30 0 56.5 -11.5t46.5 -31.5t31.5 -46t11.5 -56v-218q0 -45 -17.5 -85.5t-48 -70.5t-71 -47.5t-86.5 -17.5h-177q-30 0 -56.5 11t-46 30.5t-30.5 46t-11 56.5v218q0 46 17.5 86.5t47.5 70.5t70 47.5t85 17.5h178zM550 438q0 25 -9.5 47.5t-26 39t-39 26
t-47.5 9.5h-178q-41 0 -77 -16t-62.5 -43t-42 -63t-15.5 -77v-218q0 -24 9.5 -46t26 -38.5t38.5 -26t47 -9.5h177q41 0 77.5 15.5t63.5 42t42.5 62.5t15.5 77v218zM188 666q0 10 7.5 16.5t16.5 6.5t16 -6.5t7 -16.5q0 -9 -7 -16t-16 -7t-16.5 7t-7.5 16zM368 666
q0 10 7.5 16.5t16.5 6.5t16 -6.5t7 -16.5q0 -9 -7 -16t-16 -7t-16.5 7t-7.5 16z" />
    <glyph glyph-name="divide" unicode="&#xf7;" horiz-adv-x="517" 
d="M453 321h-389v24h389v-24zM234 163q0 10 7.5 16.5t16.5 6.5t16 -6.5t7 -16.5q0 -9 -7 -16t-16 -7t-16.5 7t-7.5 16zM234 488q0 10 7.5 16.5t16.5 6.5t16 -6.5t7 -16.5q0 -9 -7 -16t-16 -7t-16.5 7t-7.5 16z" />
    <glyph glyph-name="oslash" unicode="&#xf8;" 
d="M428 583q30 0 56.5 -11.5t46.5 -31.5t31.5 -46t11.5 -56v-218q0 -45 -17.5 -85.5t-48 -70.5t-71 -47.5t-86.5 -17.5h-177q-30 0 -56.5 11t-46 30.5t-30.5 46t-11 56.5v218q0 46 17.5 86.5t47.5 70.5t70 47.5t85 17.5h178zM550 438q0 25 -9.5 47.5t-26 39t-39 26
t-47.5 9.5h-178q-41 0 -77 -16t-62.5 -43t-42 -63t-15.5 -77v-218q0 -24 9.5 -46t26 -38.5t38.5 -26t47 -9.5h177q41 0 77.5 15.5t63.5 42t42.5 62.5t15.5 77v218z" />
    <glyph glyph-name="ugrave" unicode="&#xf9;" horiz-adv-x="593" 
d="M539 583h24v-427q0 -33 -12 -61.5t-33 -49.5t-50 -33.5t-62 -12.5h-134q-50 0 -94 19t-77 52t-52 77.5t-19 94.5v341h23v-341q0 -45 17.5 -85t47 -69.5t69.5 -47t85 -17.5h134q28 0 52.5 10.5t42.5 28.5t28 42t10 52v427zM339 602l-114 191h28l113 -191h-27z" />
    <glyph glyph-name="uacute" unicode="&#xfa;" horiz-adv-x="593" 
d="M539 583h24v-427q0 -33 -12 -61.5t-33 -49.5t-50 -33.5t-62 -12.5h-134q-50 0 -94 19t-77 52t-52 77.5t-19 94.5v341h23v-341q0 -45 17.5 -85t47 -69.5t69.5 -47t85 -17.5h134q28 0 52.5 10.5t42.5 28.5t28 42t10 52v427zM225 602l114 191h27l-113 -191h-28z" />
    <glyph glyph-name="ucircumflex" unicode="&#xfb;" horiz-adv-x="593" 
d="M539 583h24v-427q0 -33 -12 -61.5t-33 -49.5t-50 -33.5t-62 -12.5h-134q-50 0 -94 19t-77 52t-52 77.5t-19 94.5v341h23v-341q0 -45 17.5 -85t47 -69.5t69.5 -47t85 -17.5h134q28 0 52.5 10.5t42.5 28.5t28 42t10 52v427zM134 602l153 173h19l152 -173h-29l-132 151
l-133 -151h-30z" />
    <glyph glyph-name="udieresis" unicode="&#xfc;" horiz-adv-x="593" 
d="M539 583h24v-427q0 -33 -12 -61.5t-33 -49.5t-50 -33.5t-62 -12.5h-134q-50 0 -94 19t-77 52t-52 77.5t-19 94.5v341h23v-341q0 -45 17.5 -85t47 -69.5t69.5 -47t85 -17.5h134q28 0 52.5 10.5t42.5 28.5t28 42t10 52v427zM181 666q0 10 7.5 16.5t16.5 6.5t16 -6.5
t7 -16.5q0 -9 -7 -16t-16 -7t-16.5 7t-7.5 16zM362 666q0 10 7.5 16.5t16.5 6.5t16 -6.5t7 -16.5q0 -9 -7 -16t-16 -7t-16.5 7t-7.5 16z" />
    <glyph glyph-name="yacute" unicode="&#xfd;" horiz-adv-x="505" 
d="M-2 583h25l111 -431q17 -66 67 -97.5t128 -31.5l155 560h24l-215 -772h-24l54 188q-80 0 -135 36t-74 110zM181 602l114 191h27l-113 -191h-28z" />
    <glyph glyph-name="thorn" unicode="&#xfe;" horiz-adv-x="563" 
d="M310 583q46 0 86.5 -17.5t71 -48t48 -71.5t17.5 -87v-161q0 -45 -11.5 -82t-32.5 -63q-47 -54 -129 -54h-307v-101h-23v821h23v-136h257zM509 359q0 41 -16 77.5t-43 64t-63 43.5t-77 16h-257v-537h307q73 0 111 45.5t38 129.5v161z" />
    <glyph glyph-name="ydieresis" unicode="&#xff;" horiz-adv-x="505" 
d="M-2 583h25l111 -431q17 -66 67 -97.5t128 -31.5l155 560h24l-215 -772h-24l54 188q-80 0 -135 36t-74 110zM137 666q0 10 7.5 16.5t16.5 6.5t16 -6.5t7 -16.5q0 -9 -7 -16t-16 -7t-16.5 7t-7.5 16zM318 666q0 10 7.5 16.5t16.5 6.5t16 -6.5t7 -16.5q0 -9 -7 -16t-16 -7
t-16.5 7t-7.5 16z" />
    <glyph glyph-name="Amacron" unicode="&#x100;" horiz-adv-x="664" 
d="M-10 -1l222 646q16 45 48 69.5t73 24.5q40 0 72 -24.5t47 -69.5l222 -646h-25l-64 186h-505l-64 -186h-26zM87 207h490q-38 109 -74.5 215.5t-74.5 214.5q-13 36 -38 57.5t-57 21.5q-34 0 -59.5 -21.5t-37.5 -56.5zM501 780h-339v24h339v-24z" />
    <glyph glyph-name="amacron" unicode="&#x101;" horiz-adv-x="528" 
d="M385 583q59 -1 85.5 -27.5t26.5 -71.5v-485h-348q-51 0 -85.5 18.5t-46 46.5t4 61.5t63.5 63.5q85 56 169.5 110.5t169.5 109.5q27 18 39 44t7.5 50t-25.5 40.5t-60 16.5h-361v23h361zM474 424q-7 -11 -16.5 -19.5t-21.5 -16.5l-339 -220q-38 -23 -51 -48.5t-4.5 -47
t36 -35.5t71.5 -14h325v401zM433 624h-339v24h339v-24z" />
    <glyph glyph-name="Abreve" unicode="&#x102;" horiz-adv-x="664" 
d="M-10 -1l222 646q16 45 48 69.5t73 24.5q40 0 72 -24.5t47 -69.5l222 -646h-25l-64 186h-505l-64 -186h-26zM87 207h490q-38 109 -74.5 215.5t-74.5 214.5q-13 36 -38 57.5t-57 21.5q-34 0 -59.5 -21.5t-37.5 -56.5zM487 909q0 -35 -13 -62.5t-34.5 -46t-50 -28.5
t-59.5 -10q-32 0 -60.5 9.5t-49.5 28.5t-33 46t-12 63h21q0 -27 9.5 -50t27 -40.5t42.5 -27t55 -9.5q29 0 54 10t43 27t28.5 40t10.5 50h21z" />
    <glyph glyph-name="abreve" unicode="&#x103;" horiz-adv-x="528" 
d="M385 583q59 -1 85.5 -27.5t26.5 -71.5v-485h-348q-51 0 -85.5 18.5t-46 46.5t4 61.5t63.5 63.5q85 56 169.5 110.5t169.5 109.5q27 18 39 44t7.5 50t-25.5 40.5t-60 16.5h-361v23h361zM474 424q-7 -11 -16.5 -19.5t-21.5 -16.5l-339 -220q-38 -23 -51 -48.5t-4.5 -47
t36 -35.5t71.5 -14h325v401zM419 753q0 -35 -13 -62.5t-34.5 -46t-50 -28.5t-59.5 -10q-32 0 -60.5 9.5t-49.5 28.5t-33 46t-12 63h21q0 -27 9.5 -50t27 -40.5t42.5 -27t55 -9.5q29 0 54 10t43 27t28.5 40t10.5 50h21z" />
    <glyph glyph-name="Aogonek" unicode="&#x104;" horiz-adv-x="664" 
d="M733 -210q-28 -26 -55 -34.5t-50 -4t-39.5 20t-21.5 37.5t3 48.5t34 52.5q16 16 25.5 27t14.5 20t6.5 18.5t1.5 23.5h-3l-64 186h-505l-64 -186h-26l222 646q16 45 48 69.5t73 24.5q40 0 72 -24.5t47 -69.5l221 -645h1q0 -15 -1.5 -26t-7 -21.5t-16 -23t-28.5 -30.5
q-31 -32 -33 -62t15.5 -47.5t48 -16.5t65.5 32zM87 207h490q-38 109 -74.5 215.5t-74.5 214.5q-13 36 -38 57.5t-57 21.5q-34 0 -59.5 -21.5t-37.5 -56.5z" />
    <glyph glyph-name="aogonek" unicode="&#x105;" horiz-adv-x="528" 
d="M555 -210q-28 -26 -55 -34.5t-50 -4t-39.5 20t-21.5 37.5t3 48.5t34 52.5q16 16 25.5 27t14.5 20t6.5 18.5t1.5 23.5h-325q-51 0 -85.5 18.5t-46 46.5t4 61.5t63.5 63.5q85 56 169.5 110.5t169.5 109.5q27 18 39 44t7.5 50t-25.5 40.5t-60 16.5h-361v23h361
q59 -1 85.5 -27.5t26.5 -71.5v-485h-1q0 -15 -1.5 -25.5t-7 -21t-16 -23t-28.5 -30.5q-31 -32 -33 -62t15.5 -47.5t48 -16.5t65.5 32zM474 424q-7 -11 -16.5 -19.5t-21.5 -16.5l-339 -220q-38 -23 -51 -48.5t-4.5 -47t36 -35.5t71.5 -14h325v401z" />
    <glyph glyph-name="Cacute" unicode="&#x106;" horiz-adv-x="515" 
d="M30 480q0 54 18 101t49.5 82t73.5 55.5t90 20.5h254v-23h-254q-44 0 -81.5 -19t-66 -51t-44.5 -75t-16 -91v-313q0 -29 10 -55.5t27.5 -46t40.5 -31t50 -11.5h334v-24h-334q-31 0 -58.5 13t-48 36t-32.5 53.5t-12 65.5v313zM186 758l114 191h27l-113 -191h-28z" />
    <glyph glyph-name="cacute" unicode="&#x107;" horiz-adv-x="532" 
d="M30 373q0 44 17 82.5t46.5 67.5t68.5 45.5t84 16.5h256v-24h-256q-40 0 -75 -15t-61.5 -40.5t-41.5 -59.5t-15 -73v-237q0 -23 9.5 -43.5t25.5 -36t37.5 -24.5t46.5 -9h330v-24h-330q-30 0 -56 11t-45 29.5t-30 43.5t-11 53v237zM195 602l114 191h27l-113 -191h-28z" />
    <glyph glyph-name="Ccircumflex" unicode="&#x108;" horiz-adv-x="515" 
d="M30 480q0 54 18 101t49.5 82t73.5 55.5t90 20.5h254v-23h-254q-44 0 -81.5 -19t-66 -51t-44.5 -75t-16 -91v-313q0 -29 10 -55.5t27.5 -46t40.5 -31t50 -11.5h334v-24h-334q-31 0 -58.5 13t-48 36t-32.5 53.5t-12 65.5v313zM95 758l153 173h19l152 -173h-29l-132 151
l-133 -151h-30z" />
    <glyph glyph-name="ccircumflex" unicode="&#x109;" horiz-adv-x="532" 
d="M30 373q0 44 17 82.5t46.5 67.5t68.5 45.5t84 16.5h256v-24h-256q-40 0 -75 -15t-61.5 -40.5t-41.5 -59.5t-15 -73v-237q0 -23 9.5 -43.5t25.5 -36t37.5 -24.5t46.5 -9h330v-24h-330q-30 0 -56 11t-45 29.5t-30 43.5t-11 53v237zM104 602l153 173h19l152 -173h-29
l-132 151l-133 -151h-30z" />
    <glyph glyph-name="Cdotaccent" unicode="&#x10a;" horiz-adv-x="515" 
d="M30 480q0 54 18 101t49.5 82t73.5 55.5t90 20.5h254v-23h-254q-44 0 -81.5 -19t-66 -51t-44.5 -75t-16 -91v-313q0 -29 10 -55.5t27.5 -46t40.5 -31t50 -11.5h334v-24h-334q-31 0 -58.5 13t-48 36t-32.5 53.5t-12 65.5v313zM268 815q0 10 7.5 16.5t16.5 6.5t16 -6.5
t7 -16.5q0 -9 -7 -16t-16 -7t-16.5 7t-7.5 16z" />
    <glyph glyph-name="cdotaccent" unicode="&#x10b;" horiz-adv-x="532" 
d="M30 373q0 44 17 82.5t46.5 67.5t68.5 45.5t84 16.5h256v-24h-256q-40 0 -75 -15t-61.5 -40.5t-41.5 -59.5t-15 -73v-237q0 -23 9.5 -43.5t25.5 -36t37.5 -24.5t46.5 -9h330v-24h-330q-30 0 -56 11t-45 29.5t-30 43.5t-11 53v237zM243 657q0 10 7.5 16.5t16.5 6.5t16 -6.5
t7 -16.5q0 -9 -7 -16t-16 -7t-16.5 7t-7.5 16z" />
    <glyph glyph-name="Ccaron" unicode="&#x10c;" horiz-adv-x="515" 
d="M30 480q0 54 18 101t49.5 82t73.5 55.5t90 20.5h254v-23h-254q-44 0 -81.5 -19t-66 -51t-44.5 -75t-16 -91v-313q0 -29 10 -55.5t27.5 -46t40.5 -31t50 -11.5h334v-24h-334q-31 0 -58.5 13t-48 36t-32.5 53.5t-12 65.5v313zM418 939l-153 -174h-17l-153 174h29l132 -152
l133 152h29z" />
    <glyph glyph-name="ccaron" unicode="&#x10d;" horiz-adv-x="532" 
d="M30 373q0 44 17 82.5t46.5 67.5t68.5 45.5t84 16.5h256v-24h-256q-40 0 -75 -15t-61.5 -40.5t-41.5 -59.5t-15 -73v-237q0 -23 9.5 -43.5t25.5 -36t37.5 -24.5t46.5 -9h330v-24h-330q-30 0 -56 11t-45 29.5t-30 43.5t-11 53v237zM427 783l-153 -174h-17l-153 174h29
l132 -152l133 152h29z" />
    <glyph glyph-name="Dcaron" unicode="&#x10e;" horiz-adv-x="587" 
d="M324 739q48 0 90.5 -20.5t74 -55.5t50 -82t18.5 -101v-313q0 -35 -12 -65.5t-32.5 -53.5t-48.5 -36t-60 -13h-374v740h294zM533 480q0 48 -16.5 91t-45 75t-66.5 51t-81 19h-271v-693h351q27 0 51 11.5t41 31t27 46t10 55.5v313zM454 939l-153 -174h-17l-153 174h29
l132 -152l133 152h29z" />
    <glyph glyph-name="dcaron" unicode="&#x10f;" horiz-adv-x="742" 
d="M489 739h24v-740h-302q-84 0 -132.5 45t-48.5 121v231q0 39 16 73t44 59.5t66 40t81 14.5h252v156zM489 560h-252q-38 0 -71 -13t-58.5 -35.5t-40 -52.5t-14.5 -63v-231q0 -67 41.5 -104.5t116.5 -37.5h278v537zM677 755l-47 -248h-24l47 248h24z" />
    <glyph glyph-name="Dcroat" unicode="&#x110;" horiz-adv-x="587" 
d="M324 739q48 0 90.5 -20.5t74 -55.5t50 -82t18.5 -101v-313q0 -35 -12 -65.5t-32.5 -53.5t-48.5 -36t-60 -13h-374v366h-84v24h84v350h294zM285 365h-232v-342h351q27 0 51 11.5t41 31t27 46t10 55.5v313q0 48 -16.5 91t-45 75t-66.5 51t-81 19h-271v-327h232v-24z" />
    <glyph glyph-name="dcroat" unicode="&#x111;" horiz-adv-x="543" 
d="M645 680h-132v-681h-302q-84 0 -132.5 45t-48.5 121v231q0 39 16 73t44 59.5t66 40t81 14.5h252v97h-299v24h299v35h24v-35h132v-24zM489 560h-252q-38 0 -71 -13t-58.5 -35.5t-40 -52.5t-14.5 -63v-231q0 -67 41.5 -104.5t116.5 -37.5h278v537z" />
    <glyph glyph-name="Emacron" unicode="&#x112;" 
d="M30 573q0 34 13 64.5t35 53t52 35.5t64 13h380v-23h-380q-29 0 -54.5 -11t-45 -30.5t-30.5 -45.5t-11 -56v-158h521v-24h-521v-235q0 -28 10.5 -52t28.5 -42t42.5 -28.5t52.5 -10.5h387v-24h-387q-33 0 -61.5 12.5t-49.5 33.5t-33.5 49.5t-12.5 61.5v417zM471 780h-339
v24h339v-24z" />
    <glyph glyph-name="emacron" unicode="&#x113;" horiz-adv-x="534" 
d="M88 101q25 -35 65 -56.5t88 -21.5h275v-24h-275q-44 0 -82 17t-67 45.5t-45.5 67t-16.5 82.5v159q0 43 16.5 82t45.5 68t67 46t82 17h161q45 0 73 -18.5t36.5 -46.5t-4 -61.5t-49.5 -62.5zM53 211q0 -24 6 -46.5t16 -41.5l371 289q30 24 40 50t3 48t-29 36t-58 14h-161
q-39 0 -73.5 -15t-60 -41t-40 -60.5t-14.5 -73.5v-159zM449 659h-339v24h339v-24z" />
    <glyph glyph-name="Edotaccent" unicode="&#x116;" 
d="M30 573q0 34 13 64.5t35 53t52 35.5t64 13h380v-23h-380q-29 0 -54.5 -11t-45 -30.5t-30.5 -45.5t-11 -56v-158h521v-24h-521v-235q0 -28 10.5 -52t28.5 -42t42.5 -28.5t52.5 -10.5h387v-24h-387q-33 0 -61.5 12.5t-49.5 33.5t-33.5 49.5t-12.5 61.5v417zM278 813
q0 10 7.5 16.5t16.5 6.5t16 -6.5t7 -16.5q0 -9 -7 -16t-16 -7t-16.5 7t-7.5 16z" />
    <glyph glyph-name="edotaccent" unicode="&#x117;" horiz-adv-x="534" 
d="M88 101q25 -35 65 -56.5t88 -21.5h275v-24h-275q-44 0 -82 17t-67 45.5t-45.5 67t-16.5 82.5v159q0 43 16.5 82t45.5 68t67 46t82 17h161q45 0 73 -18.5t36.5 -46.5t-4 -61.5t-49.5 -62.5zM53 211q0 -24 6 -46.5t16 -41.5l371 289q30 24 40 50t3 48t-29 36t-58 14h-161
q-39 0 -73.5 -15t-60 -41t-40 -60.5t-14.5 -73.5v-159zM243 657q0 10 7.5 16.5t16.5 6.5t16 -6.5t7 -16.5q0 -9 -7 -16t-16 -7t-16.5 7t-7.5 16z" />
    <glyph glyph-name="Eogonek" unicode="&#x118;" 
d="M419 -199q-27 -26 -54.5 -34.5t-50.5 -4t-39.5 20t-21.5 37.5t3 48.5t34 52.5q15 14 24 24t14 18.5t7.5 16.5t2.5 19h-151q-33 0 -61.5 12.5t-49.5 33.5t-33.5 49.5t-12.5 61.5v417q0 34 13 64.5t35 53t52 35.5t64 13h380v-23h-380q-29 0 -54.5 -11t-45 -30.5
t-30.5 -45.5t-11 -56v-158h521v-24h-521v-235q0 -28 10.5 -52t28.5 -42t42.5 -28.5t52.5 -10.5h387v-24h-214q-1 -12 -3 -21t-8 -19t-16 -21.5t-26 -27.5q-31 -32 -33 -62t15.5 -47.5t48 -16.5t65.5 32z" />
    <glyph glyph-name="eogonek" unicode="&#x119;" horiz-adv-x="534" 
d="M406 -198q-28 -26 -55 -34.5t-50 -4t-39.5 20t-21.5 37.5t3 48.5t34 52.5q14 14 23 24t14.5 18.5t7.5 16.5t3 18h-84q-44 0 -82 17t-67 45.5t-45.5 67t-16.5 82.5v159q0 43 16.5 82t45.5 68t67 46t82 17h161q45 0 73 -18.5t36.5 -46.5t-4 -61.5t-49.5 -62.5l-370 -293
q25 -35 65 -56.5t88 -21.5h275v-24h-169q-1 -11 -3.5 -20t-8 -19t-15.5 -21.5t-26 -27.5q-31 -32 -33 -62t15.5 -47.5t48 -16.5t65.5 32zM53 211q0 -24 6 -46.5t16 -41.5l371 289q30 24 40 50t3 48t-29 36t-58 14h-161q-39 0 -73.5 -15t-60 -41t-40 -60.5t-14.5 -73.5v-159z
" />
    <glyph glyph-name="Ecaron" unicode="&#x11a;" 
d="M30 573q0 34 13 64.5t35 53t52 35.5t64 13h380v-23h-380q-29 0 -54.5 -11t-45 -30.5t-30.5 -45.5t-11 -56v-158h521v-24h-521v-235q0 -28 10.5 -52t28.5 -42t42.5 -28.5t52.5 -10.5h387v-24h-387q-33 0 -61.5 12.5t-49.5 33.5t-33.5 49.5t-12.5 61.5v417zM463 939
l-153 -174h-17l-153 174h29l132 -152l133 152h29z" />
    <glyph glyph-name="ecaron" unicode="&#x11b;" horiz-adv-x="534" 
d="M88 101q25 -35 65 -56.5t88 -21.5h275v-24h-275q-44 0 -82 17t-67 45.5t-45.5 67t-16.5 82.5v159q0 43 16.5 82t45.5 68t67 46t82 17h161q45 0 73 -18.5t36.5 -46.5t-4 -61.5t-49.5 -62.5zM53 211q0 -24 6 -46.5t16 -41.5l371 289q30 24 40 50t3 48t-29 36t-58 14h-161
q-39 0 -73.5 -15t-60 -41t-40 -60.5t-14.5 -73.5v-159zM428 783l-153 -174h-17l-153 174h29l132 -152l133 152h29z" />
    <glyph glyph-name="Gcircumflex" unicode="&#x11c;" horiz-adv-x="681" 
d="M467 415q38 0 71.5 -15.5t58.5 -42.5t39.5 -63.5t14.5 -77.5v-217h-462q-33 0 -62 13t-50.5 36t-34 53.5t-12.5 65.5v313q0 54 19.5 101t52.5 82t77.5 55.5t94.5 20.5h270v-23h-270q-46 0 -86 -19t-70 -51t-47.5 -75t-17.5 -91v-313q0 -29 11 -55.5t29.5 -46t43 -31
t52.5 -11.5h438v193q0 36 -12.5 67.5t-34.5 55.5t-51 38t-62 14h-184v24h184zM178 758l153 173h19l152 -173h-29l-132 151l-133 -151h-30z" />
    <glyph glyph-name="gcircumflex" unicode="&#x11d;" horiz-adv-x="563" 
d="M404 596q27 0 50.5 -10t41 -27.5t27.5 -41.5t10 -51v-388q0 -41 -15 -76.5t-41.5 -62t-62 -42t-75.5 -15.5h-276v24h276q35 0 66 13.5t54 37t36.5 54.5t13.5 67v21h-351q-27 0 -50 9.5t-40.5 26.5t-27.5 40t-10 49v181q0 39 15.5 74t42 61t62.5 41t77 15h177zM509 466
q0 22 -8 41.5t-22.5 34t-33.5 23t-41 8.5h-177q-36 0 -67.5 -13.5t-55 -36t-37.5 -53.5t-14 -65v-181q0 -21 8.5 -40t22.5 -32.5t33.5 -21.5t40.5 -8h351v344zM119 602l153 173h19l152 -173h-29l-132 151l-133 -151h-30z" />
    <glyph glyph-name="Gbreve" unicode="&#x11e;" horiz-adv-x="681" 
d="M467 415q38 0 71.5 -15.5t58.5 -42.5t39.5 -63.5t14.5 -77.5v-217h-462q-33 0 -62 13t-50.5 36t-34 53.5t-12.5 65.5v313q0 54 19.5 101t52.5 82t77.5 55.5t94.5 20.5h270v-23h-270q-46 0 -86 -19t-70 -51t-47.5 -75t-17.5 -91v-313q0 -29 11 -55.5t29.5 -46t43 -31
t52.5 -11.5h438v193q0 36 -12.5 67.5t-34.5 55.5t-51 38t-62 14h-184v24h184zM495 909q0 -35 -13 -62.5t-34.5 -46t-50 -28.5t-59.5 -10q-32 0 -60.5 9.5t-49.5 28.5t-33 46t-12 63h21q0 -27 9.5 -50t27 -40.5t42.5 -27t55 -9.5q29 0 54 10t43 27t28.5 40t10.5 50h21z" />
    <glyph glyph-name="gbreve" unicode="&#x11f;" horiz-adv-x="563" 
d="M404 596q27 0 50.5 -10t41 -27.5t27.5 -41.5t10 -51v-388q0 -41 -15 -76.5t-41.5 -62t-62 -42t-75.5 -15.5h-276v24h276q35 0 66 13.5t54 37t36.5 54.5t13.5 67v21h-351q-27 0 -50 9.5t-40.5 26.5t-27.5 40t-10 49v181q0 39 15.5 74t42 61t62.5 41t77 15h177zM509 466
q0 22 -8 41.5t-22.5 34t-33.5 23t-41 8.5h-177q-36 0 -67.5 -13.5t-55 -36t-37.5 -53.5t-14 -65v-181q0 -21 8.5 -40t22.5 -32.5t33.5 -21.5t40.5 -8h351v344zM436 753q0 -35 -13 -62.5t-34.5 -46t-50 -28.5t-59.5 -10q-32 0 -60.5 9.5t-49.5 28.5t-33 46t-12 63h21
q0 -27 9.5 -50t27 -40.5t42.5 -27t55 -9.5q29 0 54 10t43 27t28.5 40t10.5 50h21z" />
    <glyph glyph-name="Gdotaccent" unicode="&#x120;" horiz-adv-x="681" 
d="M467 415q38 0 71.5 -15.5t58.5 -42.5t39.5 -63.5t14.5 -77.5v-217h-462q-33 0 -62 13t-50.5 36t-34 53.5t-12.5 65.5v313q0 54 19.5 101t52.5 82t77.5 55.5t94.5 20.5h270v-23h-270q-46 0 -86 -19t-70 -51t-47.5 -75t-17.5 -91v-313q0 -29 11 -55.5t29.5 -46t43 -31
t52.5 -11.5h438v193q0 36 -12.5 67.5t-34.5 55.5t-51 38t-62 14h-184v24h184zM316 813q0 10 7.5 16.5t16.5 6.5t16 -6.5t7 -16.5q0 -9 -7 -16t-16 -7t-16.5 7t-7.5 16z" />
    <glyph glyph-name="gdotaccent" unicode="&#x121;" horiz-adv-x="563" 
d="M404 596q27 0 50.5 -10t41 -27.5t27.5 -41.5t10 -51v-388q0 -41 -15 -76.5t-41.5 -62t-62 -42t-75.5 -15.5h-276v24h276q35 0 66 13.5t54 37t36.5 54.5t13.5 67v21h-351q-27 0 -50 9.5t-40.5 26.5t-27.5 40t-10 49v181q0 39 15.5 74t42 61t62.5 41t77 15h177zM509 466
q0 22 -8 41.5t-22.5 34t-33.5 23t-41 8.5h-177q-36 0 -67.5 -13.5t-55 -36t-37.5 -53.5t-14 -65v-181q0 -21 8.5 -40t22.5 -32.5t33.5 -21.5t40.5 -8h351v344zM257 657q0 10 7.5 16.5t16.5 6.5t16 -6.5t7 -16.5q0 -9 -7 -16t-16 -7t-16.5 7t-7.5 16z" />
    <glyph glyph-name="uni0122" unicode="&#x122;" horiz-adv-x="681" 
d="M467 415q38 0 71.5 -15.5t58.5 -42.5t39.5 -63.5t14.5 -77.5v-217h-462q-33 0 -62 13t-50.5 36t-34 53.5t-12.5 65.5v313q0 54 19.5 101t52.5 82t77.5 55.5t94.5 20.5h270v-23h-270q-46 0 -86 -19t-70 -51t-47.5 -75t-17.5 -91v-313q0 -29 11 -55.5t29.5 -46t43 -31
t52.5 -11.5h438v193q0 36 -12.5 67.5t-34.5 55.5t-51 38t-62 14h-184v24h184zM399 -48l-49 -247h-24l48 247h25z" />
    <glyph glyph-name="uni0123" unicode="&#x123;" horiz-adv-x="563" 
d="M404 596q27 0 50.5 -10t41 -27.5t27.5 -41.5t10 -51v-388q0 -41 -15 -76.5t-41.5 -62t-62 -42t-75.5 -15.5h-276v24h276q35 0 66 13.5t54 37t36.5 54.5t13.5 67v21h-351q-27 0 -50 9.5t-40.5 26.5t-27.5 40t-10 49v181q0 39 15.5 74t42 61t62.5 41t77 15h177zM509 466
q0 22 -8 41.5t-22.5 34t-33.5 23t-41 8.5h-177q-36 0 -67.5 -13.5t-55 -36t-37.5 -53.5t-14 -65v-181q0 -21 8.5 -40t22.5 -32.5t33.5 -21.5t40.5 -8h351v344zM276 677l49 247h24l-48 -247h-25z" />
    <glyph glyph-name="Hcircumflex" unicode="&#x124;" horiz-adv-x="624" 
d="M53 -1h-23v740h23v-309h518v309h23v-740h-23v407h-518v-407zM150 758l153 173h19l152 -173h-29l-132 151l-133 -151h-30z" />
    <glyph glyph-name="hcircumflex" unicode="&#x125;" horiz-adv-x="543" 
d="M308 583q43 0 80.5 -14.5t65 -40t43.5 -59.5t16 -73v-397h-24v397q0 33 -14 63t-39 52.5t-58 35.5t-70 13h-255v-561h-23v740h23v-156h255zM-15 777l153 172h19l152 -172h-29l-132 150l-133 -150h-30z" />
    <glyph glyph-name="Hbar" unicode="&#x126;" horiz-adv-x="624" 
d="M53 -1h-23v740h23v-165h518v165h23v-740h-23v407h-518v-407zM571 430v121h-518v-121h518z" />
    <glyph glyph-name="hbar" unicode="&#x127;" horiz-adv-x="543" 
d="M309 661h-256v-78h255q43 0 80.5 -14.5t65 -40t43.5 -59.5t16 -73v-397h-24v397q0 33 -14 63t-39 52.5t-58 35.5t-70 13h-255v-561h-23v662h-61v24h61v54h23v-54h256v-24z" />
    <glyph glyph-name="Itilde" unicode="&#x128;" horiz-adv-x="150" 
d="M87 -1h-23v740h23v-740zM254 892q0 -51 -20.5 -84t-64.5 -33q-34 0 -57 14.5t-42 32t-38 32t-46 14.5q-35 0 -50.5 -26t-15.5 -67h-23q0 51 22 84t63 33q30 0 50.5 -14.5t39.5 -32t40.5 -32t53.5 -14.5q35 0 50.5 26.5t15.5 66.5h22z" />
    <glyph glyph-name="itilde" unicode="&#x129;" horiz-adv-x="153" 
d="M66 572h23v-573h-23v573zM255 737q0 -51 -20.5 -84t-64.5 -33q-34 0 -57 14.5t-42 32t-38 32t-46 14.5q-35 0 -50.5 -26t-15.5 -67h-23q0 51 22 84t63 33q30 0 50.5 -14.5t39.5 -32t40.5 -32t53.5 -14.5q35 0 50.5 26.5t15.5 66.5h22z" />
    <glyph glyph-name="Imacron" unicode="&#x12a;" horiz-adv-x="150" 
d="M87 -1h-23v740h23v-740zM245 780h-339v24h339v-24z" />
    <glyph glyph-name="imacron" unicode="&#x12b;" horiz-adv-x="153" 
d="M246 624h-339v24h339v-24zM66 572h23v-573h-23v573z" />
    <glyph glyph-name="Iogonek" unicode="&#x12e;" horiz-adv-x="150" 
d="M146 -210q-27 -26 -54.5 -34.5t-50.5 -4t-39.5 20t-21.5 37.5t3 48.5t34 52.5q16 16 25.5 27t14.5 20t6.5 18.5t1.5 23.5h-1v740h23v-740q0 -15 -1.5 -25.5t-7 -21t-16 -23t-28.5 -30.5q-31 -32 -33 -62t15.5 -47.5t48 -16.5t65.5 32z" />
    <glyph glyph-name="iogonek" unicode="&#x12f;" horiz-adv-x="153" 
d="M66 572h23v-572q0 -15 -1.5 -26t-7 -21.5t-16 -23t-28.5 -30.5q-31 -32 -33 -62t15.5 -47.5t48 -16.5t65.5 32l16 -15q-27 -26 -54.5 -34.5t-50.5 -4t-39.5 20t-21.5 37.5t3 48.5t34 52.5q16 16 25.5 27t14.5 20t6.5 18.5t1.5 23.5h-1v573zM78 687q6 0 11 -5t5 -13
q0 -7 -5 -11.5t-11 -4.5q-8 0 -13.5 4.5t-5.5 11.5q0 8 5.5 13t13.5 5z" />
    <glyph glyph-name="Idotaccent" unicode="&#x130;" horiz-adv-x="150" 
d="M87 -1h-23v740h23v-740zM51 812q0 10 7.5 16.5t16.5 6.5t16 -6.5t7 -16.5q0 -9 -7 -16t-16 -7t-16.5 7t-7.5 16z" />
    <glyph glyph-name="dotlessi" unicode="&#x131;" horiz-adv-x="153" 
d="M66 572h23v-573h-23v573z" />
    <glyph glyph-name="Jcircumflex" unicode="&#x134;" horiz-adv-x="607" 
d="M406 739q35 0 66 -13t54.5 -36t37 -54t13.5 -67v-309q0 -54 -20.5 -101.5t-56 -83t-82.5 -56t-101 -20.5h-287v24h287q48 0 91.5 18.5t75.5 51t51 75.5t19 92v309q0 31 -11.5 57.5t-31.5 46.5t-47 31.5t-58 11.5h-376v23h376zM141 758l153 173h19l152 -173h-29l-132 151
l-133 -151h-30z" />
    <glyph glyph-name="jcircumflex" unicode="&#x135;" horiz-adv-x="151" 
d="M63 572h23v-679h-23v679zM-86 602l152 173h19l153 -173h-30l-132 151l-132 -151h-30z" />
    <glyph glyph-name="uni0136" unicode="&#x136;" horiz-adv-x="646" 
d="M361 477l295 -478h-28l-283 459l-292 -315v-144h-23v740h23v-563q131 141 259 281.5t259 281.5h32zM313 -48l-49 -247h-24l48 247h25z" />
    <glyph glyph-name="uni0137" unicode="&#x137;" horiz-adv-x="576" 
d="M53 -1h-23v740h23v-593l359 220q38 23 58 60t20 80v77h24v-77q0 -50 -24 -92.5t-66 -68.5l-77 -48l221 -298h-30l-212 286l-273 -166v-120zM313 -48l-49 -247h-24l48 247h25z" />
    <glyph glyph-name="kgreenlandic" unicode="&#x138;" horiz-adv-x="576" 
d="M53 -1h-23v584h23v-437l359 220q38 23 58 60t20 80v77h24v-77q0 -50 -24 -92.5t-66 -68.5l-77 -48l221 -298h-30l-212 286l-273 -166v-120z" />
    <glyph glyph-name="Lacute" unicode="&#x139;" horiz-adv-x="561" 
d="M53 238q0 -44 18 -83.5t49 -68.5t72.5 -46t88.5 -17h280v-24h-280q-52 0 -98 19t-80 51t-53.5 75.5t-19.5 93.5v501h23v-501zM209 758l114 191h27l-113 -191h-28z" />
    <glyph glyph-name="lacute" unicode="&#x13a;" horiz-adv-x="255" 
d="M119 119q0 -41 29 -68.5t72 -27.5h40v-24h-40q-27 0 -49.5 9t-39 25t-26 38t-9.5 48v620h23v-620zM68 761l114 191h27l-113 -191h-28z" />
    <glyph glyph-name="uni013B" unicode="&#x13b;" horiz-adv-x="561" 
d="M53 238q0 -44 18 -83.5t49 -68.5t72.5 -46t88.5 -17h280v-24h-280q-52 0 -98 19t-80 51t-53.5 75.5t-19.5 93.5v501h23v-501zM313 -48l-49 -247h-24l48 247h25z" />
    <glyph glyph-name="uni013C" unicode="&#x13c;" horiz-adv-x="255" 
d="M119 119q0 -41 29 -68.5t72 -27.5h40v-24h-40q-27 0 -49.5 9t-39 25t-26 38t-9.5 48v620h23v-620zM213 -48l-49 -247h-24l48 247h25z" />
    <glyph glyph-name="Lcaron" unicode="&#x13d;" horiz-adv-x="561" 
d="M53 238q0 -44 18 -83.5t49 -68.5t72.5 -46t88.5 -17h280v-24h-280q-52 0 -98 19t-80 51t-53.5 75.5t-19.5 93.5v501h23v-501zM309 752l-47 -248h-24l47 248h24z" />
    <glyph glyph-name="lcaron" unicode="&#x13e;" horiz-adv-x="454" 
d="M119 119q0 -41 29 -68.5t72 -27.5h40v-24h-40q-27 0 -49.5 9t-39 25t-26 38t-9.5 48v620h23v-620zM389 755l-47 -248h-24l47 248h24z" />
    <glyph glyph-name="Lslash" unicode="&#x141;" horiz-adv-x="561" 
d="M53 238q0 -44 18 -83.5t49 -68.5t72.5 -46t88.5 -17h280v-24h-280q-52 0 -98 19t-80 51t-53.5 75.5t-19.5 93.5v255l-85 -29v23l85 29v223h23v-215l219 75v-23l-219 -75v-263v0z" />
    <glyph glyph-name="lslash" unicode="&#x142;" horiz-adv-x="255" 
d="M119 119q0 -41 29 -68.5t72 -27.5h40v-24h-40q-27 0 -49.5 9t-39 25t-26 38t-9.5 48v533l-114 -38v24l114 38v63h23v-55l115 39v-24l-115 -39v-541v0z" />
    <glyph glyph-name="Nacute" unicode="&#x143;" horiz-adv-x="736" 
d="M706 739v-607q0 -38 -16 -66t-40.5 -44t-55 -20t-59 4t-52 29t-34.5 55l-179 548q-9 30 -28.5 47.5t-43.5 24.5t-50 3t-47 -18t-34.5 -37t-13.5 -55v-604h-23v604q0 38 16 66t41 45t55 21.5t59.5 -3.5t54 -29.5t37.5 -57.5l180 -548q9 -28 28 -45.5t42.5 -24t48 -2.5
t45 17.5t33.5 36t13 53.5v607h23zM297 758l114 191h27l-113 -191h-28z" />
    <glyph glyph-name="nacute" unicode="&#x144;" horiz-adv-x="556" 
d="M305 583q50 0 90.5 -16t69.5 -45.5t45 -71t16 -91.5v-360h-24v360q0 45 -14 82t-40 63.5t-62 41t-81 14.5h-122q-63 0 -96.5 -36t-33.5 -102v-423h-23v423q0 33 10.5 62.5t30 51.5t48 34.5t64.5 12.5h122zM207 602l114 191h27l-113 -191h-28z" />
    <glyph glyph-name="uni0145" unicode="&#x145;" horiz-adv-x="736" 
d="M706 739v-607q0 -38 -16 -66t-40.5 -44t-55 -20t-59 4t-52 29t-34.5 55l-179 548q-9 30 -28.5 47.5t-43.5 24.5t-50 3t-47 -18t-34.5 -37t-13.5 -55v-604h-23v604q0 38 16 66t41 45t55 21.5t59.5 -3.5t54 -29.5t37.5 -57.5l180 -548q9 -28 28 -45.5t42.5 -24t48 -2.5
t45 17.5t33.5 36t13 53.5v607h23zM313 -48l-49 -247h-24l48 247h25z" />
    <glyph glyph-name="uni0146" unicode="&#x146;" horiz-adv-x="556" 
d="M305 583q50 0 90.5 -16t69.5 -45.5t45 -71t16 -91.5v-360h-24v360q0 45 -14 82t-40 63.5t-62 41t-81 14.5h-122q-63 0 -96.5 -36t-33.5 -102v-423h-23v423q0 33 10.5 62.5t30 51.5t48 34.5t64.5 12.5h122zM313 -48l-49 -247h-24l48 247h25z" />
    <glyph glyph-name="Ncaron" unicode="&#x147;" horiz-adv-x="736" 
d="M706 739v-607q0 -38 -16 -66t-40.5 -44t-55 -20t-59 4t-52 29t-34.5 55l-179 548q-9 30 -28.5 47.5t-43.5 24.5t-50 3t-47 -18t-34.5 -37t-13.5 -55v-604h-23v604q0 38 16 66t41 45t55 21.5t59.5 -3.5t54 -29.5t37.5 -57.5l180 -548q9 -28 28 -45.5t42.5 -24t48 -2.5
t45 17.5t33.5 36t13 53.5v607h23zM529 939l-153 -174h-17l-153 174h29l132 -152l133 152h29z" />
    <glyph glyph-name="ncaron" unicode="&#x148;" horiz-adv-x="556" 
d="M305 583q50 0 90.5 -16t69.5 -45.5t45 -71t16 -91.5v-360h-24v360q0 45 -14 82t-40 63.5t-62 41t-81 14.5h-122q-63 0 -96.5 -36t-33.5 -102v-423h-23v423q0 33 10.5 62.5t30 51.5t48 34.5t64.5 12.5h122zM439 783l-153 -174h-17l-153 174h29l132 -152l133 152h29z" />
    <glyph glyph-name="Eng" unicode="&#x14a;" horiz-adv-x="736" 
d="M706 739v-694q0 -54 -20.5 -101.5t-56 -83t-82.5 -56t-101 -20.5h-287v24h287q48 0 91 18.5t75.5 50.5t51.5 75t19 93v10q-21 -30 -55 -43.5t-69.5 -10t-66 25.5t-43.5 63l-179 548q-9 30 -28.5 47.5t-43.5 24.5t-50 3t-47 -18t-34.5 -37t-13.5 -55v-604h-23v604
q0 38 16 66t41 45t55 21.5t59.5 -3.5t54 -29.5t37.5 -57.5l180 -548q9 -28 28 -45.5t42.5 -24t48 -2.5t45 17.5t33.5 36t13 53.5v607h23z" />
    <glyph glyph-name="eng" unicode="&#x14b;" horiz-adv-x="556" 
d="M305 583q50 0 90.5 -16t69.5 -45.5t45 -71t16 -91.5v-470h-24v470q0 45 -14 82t-40 63.5t-62 41t-81 14.5h-122q-63 0 -96.5 -36t-33.5 -102v-423h-23v423q0 33 10.5 62.5t30 51.5t48 34.5t64.5 12.5h122z" />
    <glyph glyph-name="Omacron" unicode="&#x14c;" horiz-adv-x="607" 
d="M434 739q30 0 56 -11.5t45.5 -31.5t30.5 -46t11 -56v-374q0 -45 -17.5 -85.5t-47.5 -70.5t-71 -47.5t-88 -17.5h-177q-30 0 -56.5 11t-46.5 30.5t-31.5 46t-11.5 56.5v374q0 46 17.5 86.5t47.5 70.5t70.5 47.5t86.5 17.5h182zM554 594q0 25 -9.5 47.5t-26 39t-38.5 26
t-46 9.5h-182q-41 0 -77 -15.5t-63 -42.5t-43 -63.5t-16 -77.5v-374q0 -24 9.5 -46t26.5 -38.5t39 -26t48 -9.5h177q41 0 77.5 15.5t64 42t43.5 62.5t16 77v374zM473 780h-339v24h339v-24z" />
    <glyph glyph-name="omacron" unicode="&#x14d;" 
d="M428 583q30 0 56.5 -11.5t46.5 -31.5t31.5 -46t11.5 -56v-218q0 -45 -17.5 -85.5t-48 -70.5t-71 -47.5t-86.5 -17.5h-177q-30 0 -56.5 11t-46 30.5t-30.5 46t-11 56.5v218q0 46 17.5 86.5t47.5 70.5t70 47.5t85 17.5h178zM550 438q0 25 -9.5 47.5t-26 39t-39 26
t-47.5 9.5h-178q-41 0 -77 -16t-62.5 -43t-42 -63t-15.5 -77v-218q0 -24 9.5 -46t26 -38.5t38.5 -26t47 -9.5h177q41 0 77.5 15.5t63.5 42t42.5 62.5t15.5 77v218zM471 624h-339v24h339v-24z" />
    <glyph glyph-name="Ohungarumlaut" unicode="&#x150;" horiz-adv-x="607" 
d="M434 739q30 0 56 -11.5t45.5 -31.5t30.5 -46t11 -56v-374q0 -45 -17.5 -85.5t-47.5 -70.5t-71 -47.5t-88 -17.5h-177q-30 0 -56.5 11t-46.5 30.5t-31.5 46t-11.5 56.5v374q0 46 17.5 86.5t47.5 70.5t70.5 47.5t86.5 17.5h182zM554 594q0 25 -9.5 47.5t-26 39t-38.5 26
t-46 9.5h-182q-41 0 -77 -15.5t-63 -42.5t-43 -63.5t-16 -77.5v-374q0 -24 9.5 -46t26.5 -38.5t39 -26t48 -9.5h177q41 0 77.5 15.5t64 42t43.5 62.5t16 77v374zM161 797l114 191h27l-113 -191h-28zM303 797l114 191h27l-113 -191h-28z" />
    <glyph glyph-name="ohungarumlaut" unicode="&#x151;" 
d="M428 583q30 0 56.5 -11.5t46.5 -31.5t31.5 -46t11.5 -56v-218q0 -45 -17.5 -85.5t-48 -70.5t-71 -47.5t-86.5 -17.5h-177q-30 0 -56.5 11t-46 30.5t-30.5 46t-11 56.5v218q0 46 17.5 86.5t47.5 70.5t70 47.5t85 17.5h178zM550 438q0 25 -9.5 47.5t-26 39t-39 26
t-47.5 9.5h-178q-41 0 -77 -16t-62.5 -43t-42 -63t-15.5 -77v-218q0 -24 9.5 -46t26 -38.5t38.5 -26t47 -9.5h177q41 0 77.5 15.5t63.5 42t42.5 62.5t15.5 77v218zM160 641l114 191h27l-113 -191h-28zM303 641l114 191h27l-113 -191h-28z" />
    <glyph glyph-name="OE" unicode="&#x152;" horiz-adv-x="1119" 
d="M434 739q47 0 83.5 -27.5t51.5 -69.5q20 43 59 70t90 27h380v-23h-380q-28 0 -53 -10.5t-44.5 -29.5t-31 -44t-12.5 -53v-164h521v-24h-521v-235q0 -28 10.5 -52t28.5 -42t42.5 -28.5t52.5 -10.5h387v-24h-387q-29 0 -55 9.5t-46.5 27t-34.5 41t-19 50.5
q-26 -57 -80 -92.5t-123 -35.5h-177q-30 0 -56.5 11t-46.5 30.5t-31.5 46t-11.5 56.5v374q0 46 17.5 86.5t47.5 70.5t70.5 47.5t86.5 17.5h182zM554 594q0 25 -9.5 47.5t-26 39t-38.5 26t-46 9.5h-182q-41 0 -77 -15.5t-63 -42.5t-43 -63.5t-16 -77.5v-374q0 -24 9.5 -46
t26.5 -38.5t39 -26t48 -9.5h177q41 0 77.5 15.5t64 42t43.5 62.5t16 77v374z" />
    <glyph glyph-name="oe" unicode="&#x153;" horiz-adv-x="1054" 
d="M428 583q27 0 51 -9.5t43 -25.5t32 -38.5t18 -47.5q13 27 32.5 49t44 38t53 25t60.5 9h161q45 0 73 -18.5t36.5 -46.5t-4 -61.5t-49.5 -62.5l-370 -293q25 -35 65 -56.5t88 -21.5h275v-24h-275q-35 0 -67 11t-58.5 30.5t-46 47t-29.5 59.5q-12 -32 -32.5 -59.5t-48 -47
t-60.5 -30.5t-69 -11h-177q-30 0 -56.5 11t-46 30.5t-30.5 46t-11 56.5v218q0 46 17.5 86.5t47.5 70.5t70 47.5t85 17.5h178zM550 438q0 25 -9.5 47.5t-26 39t-39 26t-47.5 9.5h-178q-41 0 -77 -16t-62.5 -43t-42 -63t-15.5 -77v-218q0 -24 9.5 -46t26 -38.5t38.5 -26
t47 -9.5h177q41 0 77.5 15.5t63.5 42t42.5 62.5t15.5 77v218zM574 211q0 -24 6 -46.5t16 -41.5l371 289q30 24 40 50t3 48t-29 36t-58 14h-161q-39 0 -73.5 -15t-60 -41t-40 -60.5t-14.5 -73.5v-159z" />
    <glyph glyph-name="Racute" unicode="&#x154;" horiz-adv-x="610" 
d="M30 739h406q54 0 89.5 -19.5t49.5 -49t5 -64t-45 -64.5l-150 -126q56 -105 111 -208.5t112 -208.5h-28l-213 403l-314 -269v-134h-23v740zM53 165l465 396q30 26 38 53.5t-4 50t-41.5 37t-74.5 14.5h-383v-551zM234 758l114 191h27l-113 -191h-28z" />
    <glyph glyph-name="racute" unicode="&#x155;" horiz-adv-x="340" 
d="M30 359q0 50 16 91.5t44.5 71t69 45.5t90.5 16h126v-23h-126q-44 0 -80.5 -14.5t-62.5 -41t-40 -63.5t-14 -82v-360h-23v360zM99 602l114 191h27l-113 -191h-28z" />
    <glyph glyph-name="uni0156" unicode="&#x156;" horiz-adv-x="610" 
d="M30 739h406q54 0 89.5 -19.5t49.5 -49t5 -64t-45 -64.5l-150 -126q56 -105 111 -208.5t112 -208.5h-28l-213 403l-314 -269v-134h-23v740zM53 165l465 396q30 26 38 53.5t-4 50t-41.5 37t-74.5 14.5h-383v-551zM313 -48l-49 -247h-24l48 247h25z" />
    <glyph glyph-name="uni0157" unicode="&#x157;" horiz-adv-x="340" 
d="M30 359q0 50 16 91.5t44.5 71t69 45.5t90.5 16h126v-23h-126q-44 0 -80.5 -14.5t-62.5 -41t-40 -63.5t-14 -82v-360h-23v360zM113 -48l-49 -247h-24l48 247h25z" />
    <glyph glyph-name="Rcaron" unicode="&#x158;" horiz-adv-x="610" 
d="M30 739h406q54 0 89.5 -19.5t49.5 -49t5 -64t-45 -64.5l-150 -126q56 -105 111 -208.5t112 -208.5h-28l-213 403l-314 -269v-134h-23v740zM53 165l465 396q30 26 38 53.5t-4 50t-41.5 37t-74.5 14.5h-383v-551zM466 939l-153 -174h-17l-153 174h29l132 -152l133 152h29z
" />
    <glyph glyph-name="rcaron" unicode="&#x159;" horiz-adv-x="340" 
d="M30 359q0 50 16 91.5t44.5 71t69 45.5t90.5 16h126v-23h-126q-44 0 -80.5 -14.5t-62.5 -41t-40 -63.5t-14 -82v-360h-23v360zM331 783l-153 -174h-17l-153 174h29l132 -152l133 152h29z" />
    <glyph glyph-name="Sacute" unicode="&#x15a;" horiz-adv-x="596" 
d="M466 305q41 -22 64.5 -53t30.5 -65t-2 -67.5t-32.5 -60.5t-60 -43.5t-84.5 -16.5h-352v24h352q41 0 73 14t52.5 36.5t29 51t2.5 57.5t-26.5 56t-57.5 46l-325 167q-39 20 -62 49t-30.5 61t0.5 64t30.5 57t58 41t84.5 16h311v-23h-311q-62 0 -99.5 -27.5t-48 -66t8 -80.5
t69.5 -71zM227 758l114 191h27l-113 -191h-28z" />
    <glyph glyph-name="sacute" unicode="&#x15b;" horiz-adv-x="539" 
d="M114 389q-36 27 -47 60.5t0 63.5t41.5 50t77.5 20h379v-23h-379q-36 0 -62 -15t-35.5 -37.5t-1 -49.5t41.5 -51l290 -219q37 -26 51 -59t6.5 -62t-36.5 -48.5t-79 -19.5h-391v24h391q38 0 62 13.5t30.5 34.5t-5 47t-43.5 51zM198 602l114 191h27l-113 -191h-28z" />
    <glyph glyph-name="Scircumflex" unicode="&#x15c;" horiz-adv-x="596" 
d="M466 305q41 -22 64.5 -53t30.5 -65t-2 -67.5t-32.5 -60.5t-60 -43.5t-84.5 -16.5h-352v24h352q41 0 73 14t52.5 36.5t29 51t2.5 57.5t-26.5 56t-57.5 46l-325 167q-39 20 -62 49t-30.5 61t0.5 64t30.5 57t58 41t84.5 16h311v-23h-311q-62 0 -99.5 -27.5t-48 -66t8 -80.5
t69.5 -71zM136 758l153 173h19l152 -173h-29l-132 151l-133 -151h-30z" />
    <glyph glyph-name="scircumflex" unicode="&#x15d;" horiz-adv-x="539" 
d="M114 389q-36 27 -47 60.5t0 63.5t41.5 50t77.5 20h379v-23h-379q-36 0 -62 -15t-35.5 -37.5t-1 -49.5t41.5 -51l290 -219q37 -26 51 -59t6.5 -62t-36.5 -48.5t-79 -19.5h-391v24h391q38 0 62 13.5t30.5 34.5t-5 47t-43.5 51zM107 602l153 173h19l152 -173h-29l-132 151
l-133 -151h-30z" />
    <glyph glyph-name="Scedilla" unicode="&#x15e;" horiz-adv-x="596" 
d="M197 -189q23 -21 45 -27.5t39.5 -3t29 15.5t14.5 29t-4.5 38t-28.5 42q-17 17 -27 29t-15.5 22t-7.5 20t-2 23h-210v24h352q41 0 73 14t52.5 36.5t29 51t2.5 57.5t-26.5 56t-57.5 46l-325 167q-39 20 -62 49t-30.5 61t0.5 64t30.5 57t58 41t84.5 16h311v-23h-311
q-62 0 -99.5 -27.5t-48 -66t8 -80.5t69.5 -71l325 -166q41 -22 64.5 -53t30.5 -65t-2 -67.5t-32.5 -60.5t-60 -43.5t-84.5 -16.5h-120q0 -12 1.5 -20.5t7 -17.5t14.5 -19.5t24 -25.5q26 -26 34 -52.5t3 -48.5t-21 -37.5t-39 -20t-50.5 4t-54.5 34.5z" />
    <glyph glyph-name="scedilla" unicode="&#x15f;" horiz-adv-x="539" 
d="M170 -189q23 -21 45 -27.5t39.5 -3t29 15.5t14.5 29t-4.5 38t-28.5 42q-17 17 -27 29t-15.5 22t-7.5 20t-2 23h-243v24h391q38 0 62 13.5t30.5 34.5t-5 47t-43.5 51l-291 220q-36 27 -47 60.5t0 63.5t41.5 50t77.5 20h379v-23h-379q-36 0 -62 -15t-35.5 -37.5t-1 -49.5
t41.5 -51l290 -219q37 -26 51 -59t6.5 -62t-36.5 -48.5t-79 -19.5h-126q0 -12 1.5 -20.5t7 -17.5t14.5 -19.5t24 -25.5q26 -26 34 -52.5t3 -48.5t-21 -37.5t-39 -20t-50.5 4t-54.5 34.5z" />
    <glyph glyph-name="Scaron" unicode="&#x160;" horiz-adv-x="596" 
d="M466 305q41 -22 64.5 -53t30.5 -65t-2 -67.5t-32.5 -60.5t-60 -43.5t-84.5 -16.5h-352v24h352q41 0 73 14t52.5 36.5t29 51t2.5 57.5t-26.5 56t-57.5 46l-325 167q-39 20 -62 49t-30.5 61t0.5 64t30.5 57t58 41t84.5 16h311v-23h-311q-62 0 -99.5 -27.5t-48 -66t8 -80.5
t69.5 -71zM459 939l-153 -174h-17l-153 174h29l132 -152l133 152h29z" />
    <glyph glyph-name="scaron" unicode="&#x161;" horiz-adv-x="539" 
d="M114 389q-36 27 -47 60.5t0 63.5t41.5 50t77.5 20h379v-23h-379q-36 0 -62 -15t-35.5 -37.5t-1 -49.5t41.5 -51l290 -219q37 -26 51 -59t6.5 -62t-36.5 -48.5t-79 -19.5h-391v24h391q38 0 62 13.5t30.5 34.5t-5 47t-43.5 51zM430 783l-153 -174h-17l-153 174h29l132 -152
l133 152h29z" />
    <glyph glyph-name="uni0162" unicode="&#x162;" horiz-adv-x="565" 
d="M273 716h-327v23h679v-23h-328v-717h-24v717zM313 -48l-49 -247h-24l48 247h25z" />
    <glyph glyph-name="uni0163" unicode="&#x163;" horiz-adv-x="427" 
d="M167 74q23 -27 59.5 -39t89.5 -12h133v-24h-133q-113 0 -165.5 57.5t-52.5 181.5v322h-70v23h70v156h23v-156h307v-23h-307v-322q0 -112 46 -164zM313 -48l-49 -247h-24l48 247h25z" />
    <glyph glyph-name="Tcaron" unicode="&#x164;" horiz-adv-x="565" 
d="M273 716h-327v23h679v-23h-328v-717h-24v717zM443 939l-153 -174h-17l-153 174h29l132 -152l133 152h29z" />
    <glyph glyph-name="tcaron" unicode="&#x165;" horiz-adv-x="626" 
d="M167 74q23 -27 59.5 -39t89.5 -12h133v-24h-133q-113 0 -165.5 57.5t-52.5 181.5v322h-70v23h70v156h23v-156h307v-23h-307v-322q0 -112 46 -164zM561 755l-47 -248h-24l47 248h24z" />
    <glyph glyph-name="Tbar" unicode="&#x166;" horiz-adv-x="565" 
d="M273 716h-327v23h679v-23h-328v-717h-24v717zM452 780h-339v24h339v-24z" />
    <glyph glyph-name="tbar" unicode="&#x167;" horiz-adv-x="427" 
d="M368 661h-247v-78h307v-23h-307v-322q0 -112 46 -164q23 -27 59.5 -39t89.5 -12h133v-24h-133q-113 0 -165.5 57.5t-52.5 181.5v322h-70v23h70v78h-69v24h69v54h23v-54h247v-24z" />
    <glyph glyph-name="Utilde" unicode="&#x168;" horiz-adv-x="622" 
d="M592 154q0 -32 -12.5 -60.5t-33.5 -49.5t-49.5 -33t-60.5 -12h-166q-50 0 -93.5 19t-76 51t-51.5 75.5t-19 93.5v501h23v-501q0 -44 17 -83.5t46.5 -68.5t69 -46t84.5 -17h166q28 0 52 10.5t42 28t28.5 41.5t10.5 51v585h23v-585zM489 892q0 -51 -20.5 -84t-64.5 -33
q-34 0 -57 14.5t-42 32t-38 32t-46 14.5q-35 0 -50.5 -26t-15.5 -67h-23q0 51 22 84t63 33q30 0 50.5 -14.5t39.5 -32t40.5 -32t53.5 -14.5q35 0 50.5 26.5t15.5 66.5h22z" />
    <glyph glyph-name="utilde" unicode="&#x169;" horiz-adv-x="593" 
d="M539 583h24v-427q0 -33 -12 -61.5t-33 -49.5t-50 -33.5t-62 -12.5h-134q-50 0 -94 19t-77 52t-52 77.5t-19 94.5v341h23v-341q0 -45 17.5 -85t47 -69.5t69.5 -47t85 -17.5h134q28 0 52.5 10.5t42.5 28.5t28 42t10 52v427zM475 737q0 -51 -20.5 -84t-64.5 -33
q-34 0 -57 14.5t-42 32t-38 32t-46 14.5q-35 0 -50.5 -26t-15.5 -67h-23q0 51 22 84t63 33q30 0 50.5 -14.5t39.5 -32t40.5 -32t53.5 -14.5q35 0 50.5 26.5t15.5 66.5h22z" />
    <glyph glyph-name="Umacron" unicode="&#x16a;" horiz-adv-x="622" 
d="M592 154q0 -32 -12.5 -60.5t-33.5 -49.5t-49.5 -33t-60.5 -12h-166q-50 0 -93.5 19t-76 51t-51.5 75.5t-19 93.5v501h23v-501q0 -44 17 -83.5t46.5 -68.5t69 -46t84.5 -17h166q28 0 52 10.5t42 28t28.5 41.5t10.5 51v585h23v-585zM480 780h-339v24h339v-24z" />
    <glyph glyph-name="umacron" unicode="&#x16b;" horiz-adv-x="593" 
d="M539 583h24v-427q0 -33 -12 -61.5t-33 -49.5t-50 -33.5t-62 -12.5h-134q-50 0 -94 19t-77 52t-52 77.5t-19 94.5v341h23v-341q0 -45 17.5 -85t47 -69.5t69.5 -47t85 -17.5h134q28 0 52.5 10.5t42.5 28.5t28 42t10 52v427zM466 624h-339v24h339v-24z" />
    <glyph glyph-name="Ubreve" unicode="&#x16c;" horiz-adv-x="622" 
d="M592 154q0 -32 -12.5 -60.5t-33.5 -49.5t-49.5 -33t-60.5 -12h-166q-50 0 -93.5 19t-76 51t-51.5 75.5t-19 93.5v501h23v-501q0 -44 17 -83.5t46.5 -68.5t69 -46t84.5 -17h166q28 0 52 10.5t42 28t28.5 41.5t10.5 51v585h23v-585zM466 909q0 -35 -13 -62.5t-34.5 -46
t-50 -28.5t-59.5 -10q-32 0 -60.5 9.5t-49.5 28.5t-33 46t-12 63h21q0 -27 9.5 -50t27 -40.5t42.5 -27t55 -9.5q29 0 54 10t43 27t28.5 40t10.5 50h21z" />
    <glyph glyph-name="ubreve" unicode="&#x16d;" horiz-adv-x="593" 
d="M539 583h24v-427q0 -33 -12 -61.5t-33 -49.5t-50 -33.5t-62 -12.5h-134q-50 0 -94 19t-77 52t-52 77.5t-19 94.5v341h23v-341q0 -45 17.5 -85t47 -69.5t69.5 -47t85 -17.5h134q28 0 52.5 10.5t42.5 28.5t28 42t10 52v427zM451 753q0 -35 -13 -62.5t-34.5 -46t-50 -28.5
t-59.5 -10q-32 0 -60.5 9.5t-49.5 28.5t-33 46t-12 63h21q0 -27 9.5 -50t27 -40.5t42.5 -27t55 -9.5q29 0 54 10t43 27t28.5 40t10.5 50h21z" />
    <glyph glyph-name="Uring" unicode="&#x16e;" horiz-adv-x="622" 
d="M592 154q0 -32 -12.5 -60.5t-33.5 -49.5t-49.5 -33t-60.5 -12h-166q-50 0 -93.5 19t-76 51t-51.5 75.5t-19 93.5v501h23v-501q0 -44 17 -83.5t46.5 -68.5t69 -46t84.5 -17h166q28 0 52 10.5t42 28t28.5 41.5t10.5 51v585h23v-585zM310 763q-73 0 -113.5 28.5t-40.5 77.5
q0 47 38 77.5t116 30.5t116.5 -30t38.5 -78t-42 -77t-113 -29zM310 954q-68 0 -98.5 -25.5t-30.5 -59.5q0 -32 30.5 -57t98.5 -25q66 0 99 25t33 57q0 38 -31.5 61.5t-100.5 23.5z" />
    <glyph glyph-name="uring" unicode="&#x16f;" horiz-adv-x="593" 
d="M539 583h24v-427q0 -33 -12 -61.5t-33 -49.5t-50 -33.5t-62 -12.5h-134q-50 0 -94 19t-77 52t-52 77.5t-19 94.5v341h23v-341q0 -45 17.5 -85t47 -69.5t69.5 -47t85 -17.5h134q28 0 52.5 10.5t42.5 28.5t28 42t10 52v427zM296 607q-73 0 -113.5 28.5t-40.5 77.5
q0 47 38 77.5t116 30.5t116.5 -30t38.5 -78t-42 -77t-113 -29zM296 798q-68 0 -98.5 -25.5t-30.5 -59.5q0 -32 30.5 -57t98.5 -25q66 0 99 25t33 57q0 38 -31.5 61.5t-100.5 23.5z" />
    <glyph glyph-name="Uhungarumlaut" unicode="&#x170;" horiz-adv-x="622" 
d="M592 154q0 -32 -12.5 -60.5t-33.5 -49.5t-49.5 -33t-60.5 -12h-166q-50 0 -93.5 19t-76 51t-51.5 75.5t-19 93.5v501h23v-501q0 -44 17 -83.5t46.5 -68.5t69 -46t84.5 -17h166q28 0 52 10.5t42 28t28.5 41.5t10.5 51v585h23v-585zM169 797l114 191h27l-113 -191h-28z
M311 797l114 191h27l-113 -191h-28z" />
    <glyph glyph-name="uhungarumlaut" unicode="&#x171;" horiz-adv-x="593" 
d="M539 583h24v-427q0 -33 -12 -61.5t-33 -49.5t-50 -33.5t-62 -12.5h-134q-50 0 -94 19t-77 52t-52 77.5t-19 94.5v341h23v-341q0 -45 17.5 -85t47 -69.5t69.5 -47t85 -17.5h134q28 0 52.5 10.5t42.5 28.5t28 42t10 52v427zM154 641l114 191h27l-113 -191h-28zM296 641
l114 191h27l-113 -191h-28z" />
    <glyph glyph-name="Uogonek" unicode="&#x172;" horiz-adv-x="622" 
d="M435 -200q-28 -26 -55 -34.5t-50 -4t-39.5 20t-21.5 37.5t3 48.5t34 52.5q15 15 24 25t14 18.5t7.5 16.5t2.5 19h-84q-50 0 -93.5 19t-76 51t-51.5 75.5t-19 93.5v501h23v-501q0 -44 17 -83.5t46.5 -68.5t69 -46t84.5 -17h166q28 0 52 10.5t42 28t28.5 41.5t10.5 51v585
h23v-585q0 -32 -12.5 -60.5t-33.5 -49.5t-49.5 -33t-60.5 -12h-60q0 -12 -2.5 -21.5t-8.5 -19t-16 -21.5t-26 -28q-31 -32 -33 -62t15.5 -47.5t48 -16.5t65.5 32z" />
    <glyph glyph-name="uogonek" unicode="&#x173;" horiz-adv-x="593" 
d="M418 -200q-27 -26 -54.5 -34.5t-50.5 -4t-39.5 20t-21.5 37.5t3 48.5t34 52.5q15 15 24 25t14 18.5t7.5 16.5t2.5 19h-65q-50 0 -94 19t-77 52t-52 77.5t-19 94.5v341h23v-341q0 -45 17.5 -85t47 -69.5t69.5 -47t85 -17.5h134q28 0 52.5 10.5t42.5 28.5t28 42t10 52v427
h24v-427q0 -33 -12 -61.5t-33 -49.5t-50 -33.5t-62 -12.5h-47q0 -12 -2.5 -21.5t-8.5 -19t-16 -21.5t-26 -28q-31 -32 -33 -62t15.5 -47.5t48 -16.5t65.5 32z" />
    <glyph glyph-name="Wcircumflex" unicode="&#x174;" horiz-adv-x="945" 
d="M953 739l-130 -647q-11 -43 -43 -68t-74 -25t-73 25t-42 68l-121 588l-120 -588q-11 -43 -42 -68t-73 -25t-74 25t-43 68l-132 647h23l132 -642q8 -35 33.5 -54.5t60.5 -19.5q33 0 58.5 19.5t33.5 54.5l132 642h23l130 -642q10 -34 35.5 -54t58.5 -20q32 0 57.5 19.5
t35.5 54.5l130 642h24zM310 758l153 173h19l152 -173h-29l-132 151l-133 -151h-30z" />
    <glyph glyph-name="wcircumflex" unicode="&#x175;" horiz-adv-x="745" 
d="M726 583h24l-105 -513q-8 -34 -32.5 -52.5t-56.5 -18.5q-34 0 -58 18.5t-32 52.5l-95 450q-23 -112 -45.5 -224.5t-45.5 -225.5q-8 -34 -32.5 -52.5t-57.5 -18.5q-32 0 -56.5 18.5t-32.5 52.5l-106 513h24l102 -506q8 -31 29 -42.5t40 -11.5q20 0 39.5 11.5t27.5 42.5
l103 506h23l104 -506q10 -31 30 -42.5t39 -11.5q18 0 38.5 11.5t28.5 42.5zM210 602l153 173h19l152 -173h-29l-132 151l-133 -151h-30z" />
    <glyph glyph-name="Ycircumflex" unicode="&#x176;" horiz-adv-x="481" 
d="M506 739l-146 -367q-15 -35 -44 -56.5t-64 -25.5v-291h-23v290q-36 4 -64.5 26t-43.5 57l-147 367h25l143 -358q14 -32 40 -50t58 -18t59 18t39 50l142 358h26zM78 758l153 173h19l152 -173h-29l-132 151l-133 -151h-30z" />
    <glyph glyph-name="ycircumflex" unicode="&#x177;" horiz-adv-x="505" 
d="M-2 583h25l111 -431q17 -66 67 -97.5t128 -31.5l155 560h24l-215 -772h-24l54 188q-80 0 -135 36t-74 110zM90 602l153 173h19l152 -173h-29l-132 151l-133 -151h-30z" />
    <glyph glyph-name="Ydieresis" unicode="&#x178;" horiz-adv-x="481" 
d="M506 739l-146 -367q-15 -35 -44 -56.5t-64 -25.5v-291h-23v290q-36 4 -64.5 26t-43.5 57l-147 367h25l143 -358q14 -32 40 -50t58 -18t59 18t39 50l142 358h26zM125 812q0 10 7.5 16.5t16.5 6.5t16 -6.5t7 -16.5q0 -9 -7 -16t-16 -7t-16.5 7t-7.5 16zM306 812
q0 10 7.5 16.5t16.5 6.5t16 -6.5t7 -16.5q0 -9 -7 -16t-16 -7t-16.5 7t-7.5 16z" />
    <glyph glyph-name="Zacute" unicode="&#x179;" horiz-adv-x="644" 
d="M190 -1q-61 0 -102.5 22t-52.5 63q-9 23 -4.5 45t17 41.5t30.5 36t36 29.5l391 281q35 25 51 61t6 69q-12 33 -46.5 51t-89.5 18h-365v23h365q63 0 103.5 -22t53.5 -64q14 -42 -4 -83.5t-59 -70.5l-392 -282q-43 -31 -62 -64t-11 -62q11 -32 46 -50t89 -18h424v-24h-424z
M251 758l114 191h27l-113 -191h-28z" />
    <glyph glyph-name="zacute" unicode="&#x17a;" horiz-adv-x="535" 
d="M98 177q-31 -18 -44.5 -44.5t-10 -51t25.5 -41.5t62 -17h442v-24h-442q-46 0 -74 22t-35.5 53t7.5 64.5t55 56.5l359 208q33 19 44 45.5t2.5 51.5t-35.5 42.5t-70 17.5h-385v23h385q55 0 88 -22.5t42 -55t-5 -66.5t-53 -56l-353 -204zM196 602l114 191h27l-113 -191h-28z
" />
    <glyph glyph-name="Zdotaccent" unicode="&#x17b;" horiz-adv-x="644" 
d="M190 -1q-61 0 -102.5 22t-52.5 63q-9 23 -4.5 45t17 41.5t30.5 36t36 29.5l391 281q35 25 51 61t6 69q-12 33 -46.5 51t-89.5 18h-365v23h365q63 0 103.5 -22t53.5 -64q14 -42 -4 -83.5t-59 -70.5l-392 -282q-43 -31 -62 -64t-11 -62q11 -32 46 -50t89 -18h424v-24h-424z
M297 812q0 10 7.5 16.5t16.5 6.5t16 -6.5t7 -16.5q0 -9 -7 -16t-16 -7t-16.5 7t-7.5 16z" />
    <glyph glyph-name="zdotaccent" unicode="&#x17c;" horiz-adv-x="535" 
d="M98 177q-31 -18 -44.5 -44.5t-10 -51t25.5 -41.5t62 -17h442v-24h-442q-46 0 -74 22t-35.5 53t7.5 64.5t55 56.5l359 208q33 19 44 45.5t2.5 51.5t-35.5 42.5t-70 17.5h-385v23h385q55 0 88 -22.5t42 -55t-5 -66.5t-53 -56l-353 -204zM243 656q0 10 7.5 16.5t16.5 6.5
t16 -6.5t7 -16.5q0 -9 -7 -16t-16 -7t-16.5 7t-7.5 16z" />
    <glyph glyph-name="Zcaron" unicode="&#x17d;" horiz-adv-x="644" 
d="M190 -1q-61 0 -102.5 22t-52.5 63q-9 23 -4.5 45t17 41.5t30.5 36t36 29.5l391 281q35 25 51 61t6 69q-12 33 -46.5 51t-89.5 18h-365v23h365q63 0 103.5 -22t53.5 -64q14 -42 -4 -83.5t-59 -70.5l-392 -282q-43 -31 -62 -64t-11 -62q11 -32 46 -50t89 -18h424v-24h-424z
M483 939l-153 -174h-17l-153 174h29l132 -152l133 152h29z" />
    <glyph glyph-name="zcaron" unicode="&#x17e;" horiz-adv-x="535" 
d="M98 177q-31 -18 -44.5 -44.5t-10 -51t25.5 -41.5t62 -17h442v-24h-442q-46 0 -74 22t-35.5 53t7.5 64.5t55 56.5l359 208q33 19 44 45.5t2.5 51.5t-35.5 42.5t-70 17.5h-385v23h385q55 0 88 -22.5t42 -55t-5 -66.5t-53 -56l-353 -204zM428 783l-153 -174h-17l-153 174h29
l132 -152l133 152h29z" />
    <glyph glyph-name="florin" unicode="&#x192;" horiz-adv-x="370" 
d="M188 20q0 61 -5 123.5t-10 127.5h-110v24h107q-4 49 -6.5 98t-2.5 100q0 39 5.5 71t18 55t33.5 35.5t51 12.5v-23q-24 0 -40.5 -11.5t-26 -31.5t-13.5 -48t-4 -62q0 -49 3 -97.5t7 -98.5h111v-24h-109l10 -124t5 -128q0 -39 -6 -71t-19 -55t-34 -35.5t-51 -12.5v23
q25 0 41.5 11t26.5 31.5t14 48.5t4 61z" />
    <glyph glyph-name="circumflex" unicode="&#x2c6;" horiz-adv-x="451" 
d="M63 602l153 173h19l152 -173h-29l-132 151l-133 -151h-30z" />
    <glyph glyph-name="caron" unicode="&#x2c7;" horiz-adv-x="451" 
d="M318 783l-153 -174h-17l-153 174h29l132 -152l133 152h29z" />
    <glyph glyph-name="breve" unicode="&#x2d8;" horiz-adv-x="438" 
d="M375 753q0 -35 -13 -62.5t-34.5 -46t-50 -28.5t-59.5 -10q-32 0 -60.5 9.5t-49.5 28.5t-33 46t-12 63h21q0 -27 9.5 -50t27 -40.5t42.5 -27t55 -9.5q29 0 54 10t43 27t28.5 40t10.5 50h21z" />
    <glyph glyph-name="dotaccent" unicode="&#x2d9;" horiz-adv-x="171" 
d="M63 656q0 10 7.5 16.5t16.5 6.5t16 -6.5t7 -16.5q0 -9 -7 -16t-16 -7t-16.5 7t-7.5 16z" />
    <glyph glyph-name="ring" unicode="&#x2da;" horiz-adv-x="436" 
d="M217 607q-73 0 -113.5 28.5t-40.5 77.5q0 47 38 77.5t116 30.5t116.5 -30t38.5 -78t-42 -77t-113 -29zM217 798q-68 0 -98.5 -25.5t-30.5 -59.5q0 -32 30.5 -57t98.5 -25q66 0 99 25t33 57q0 38 -31.5 61.5t-100.5 23.5z" />
    <glyph glyph-name="ogonek" unicode="&#x2db;" horiz-adv-x="295" 
d="M232 -204q-27 -26 -54.5 -34.5t-50.5 -4t-39.5 20t-21.5 37.5t3 48.5t34 52.5q16 16 26 27t14.5 20.5t6 19t1.5 23.5h22q0 -15 -1.5 -26t-7 -21.5t-16 -23t-28.5 -30.5q-31 -32 -33 -62t15.5 -47.5t48 -16.5t65.5 32z" />
    <glyph glyph-name="tilde" unicode="&#x2dc;" horiz-adv-x="485" 
d="M420 737q0 -51 -20.5 -84t-64.5 -33q-34 0 -57 14.5t-42 32t-38 32t-46 14.5q-35 0 -50.5 -26t-15.5 -67h-23q0 51 22 84t63 33q30 0 50.5 -14.5t39.5 -32t40.5 -32t53.5 -14.5q35 0 50.5 26.5t15.5 66.5h22z" />
    <glyph glyph-name="hungarumlaut" unicode="&#x2dd;" horiz-adv-x="410" 
d="M63 641l114 191h27l-113 -191h-28zM205 641l114 191h27l-113 -191h-28z" />
    <glyph glyph-name="uni1E02" unicode="&#x1e02;" horiz-adv-x="622" 
d="M545 247q36 -36 43.5 -79.5t-8.5 -81t-53 -62.5t-89 -25h-408v740h381q53 0 86.5 -20.5t45.5 -52t3 -68.5t-42 -69l-122 -120zM53 119l435 427q27 27 34.5 57t-3 55t-38 41.5t-70.5 16.5h-358v-597zM438 23q42 0 74 20t46.5 51t8.5 67.5t-39 69.5l-164 162l-311 -307v-63
h385zM286 813q0 10 7.5 16.5t16.5 6.5t16 -6.5t7 -16.5q0 -9 -7 -16t-16 -7t-16.5 7t-7.5 16z" />
    <glyph glyph-name="uni1E03" unicode="&#x1e03;" horiz-adv-x="530" 
d="M290 583q47 0 85.5 -18.5t66.5 -50t43 -73t15 -87.5v-224q0 -28 -11 -52t-29.5 -41.5t-44 -27.5t-53.5 -10h-332v740h23v-156h237zM477 354q0 43 -14.5 81t-40 65.5t-59.5 43.5t-73 16h-237v-537h309q23 0 44 8.5t36.5 23t25 34t9.5 41.5v224zM228 768q0 10 7.5 16.5
t16.5 6.5t16 -6.5t7 -16.5q0 -9 -7 -16t-16 -7t-16.5 7t-7.5 16z" />
    <glyph glyph-name="uni1E0A" unicode="&#x1e0a;" horiz-adv-x="587" 
d="M324 739q48 0 90.5 -20.5t74 -55.5t50 -82t18.5 -101v-313q0 -35 -12 -65.5t-32.5 -53.5t-48.5 -36t-60 -13h-374v740h294zM533 480q0 48 -16.5 91t-45 75t-66.5 51t-81 19h-271v-693h351q27 0 51 11.5t41 31t27 46t10 55.5v313zM269 813q0 10 7.5 16.5t16.5 6.5t16 -6.5
t7 -16.5q0 -9 -7 -16t-16 -7t-16.5 7t-7.5 16z" />
    <glyph glyph-name="uni1E0B" unicode="&#x1e0b;" horiz-adv-x="543" 
d="M489 739h24v-740h-302q-84 0 -132.5 45t-48.5 121v231q0 39 16 73t44 59.5t66 40t81 14.5h252v156zM489 560h-252q-38 0 -71 -13t-58.5 -35.5t-40 -52.5t-14.5 -63v-231q0 -67 41.5 -104.5t116.5 -37.5h278v537zM286 735q0 10 7.5 16.5t16.5 6.5t16 -6.5t7 -16.5
q0 -9 -7 -16t-16 -7t-16.5 7t-7.5 16z" />
    <glyph glyph-name="uni1E1E" unicode="&#x1e1e;" horiz-adv-x="495" 
d="M30 499q0 49 17.5 93t47.5 76.5t70.5 51.5t86.5 19h243v-23h-243q-41 0 -77 -17t-63 -46t-43 -69t-16 -85v-181h442v-24h-442v-295h-23v500zM223 812q0 10 7.5 16.5t16.5 6.5t16 -6.5t7 -16.5q0 -9 -7 -16t-16 -7t-16.5 7t-7.5 16z" />
    <glyph glyph-name="uni1E1F" unicode="&#x1e1f;" horiz-adv-x="370" 
d="M150 366h220v-24h-220v-343h-24v343h-131v24h131v169q0 42 17 79t46 65t67.5 44t82.5 16h29v-23h-29q-39 0 -73 -14t-60 -38.5t-41 -57.5t-15 -71v-169zM161 757q0 10 7.5 16.5t16.5 6.5t16 -6.5t7 -16.5q0 -9 -7 -16t-16 -7t-16.5 7t-7.5 16z" />
    <glyph glyph-name="uni1E40" unicode="&#x1e40;" horiz-adv-x="780" 
d="M464 739q60 0 112 -23t90.5 -62t61 -91.5t22.5 -111.5v-452h-24v452q0 55 -20.5 103.5t-56 84.5t-83.5 56.5t-103 20.5h-56v-717h-24v717h-200q-27 0 -51 -9.5t-41.5 -26t-27.5 -39t-10 -47.5v-595h-23v595q0 30 12 56t32.5 46t48.5 31.5t60 11.5h281zM365 813
q0 10 7.5 16.5t16.5 6.5t16 -6.5t7 -16.5q0 -9 -7 -16t-16 -7t-16.5 7t-7.5 16z" />
    <glyph glyph-name="uni1E41" unicode="&#x1e41;" horiz-adv-x="664" 
d="M393 583q49 0 93 -18t77 -49t52 -72.5t19 -89.5v-355h-24v355q0 43 -17 80.5t-46 65.5t-69 44t-85 16h-50v-561h-23v561h-137q-32 0 -56 -12.5t-40.5 -32t-25 -44.5t-8.5 -49v-423h-23v423q0 29 10 57.5t29 51.5t47.5 37.5t66.5 14.5h210zM307 656q0 10 7.5 16.5
t16.5 6.5t16 -6.5t7 -16.5q0 -9 -7 -16t-16 -7t-16.5 7t-7.5 16z" />
    <glyph glyph-name="uni1E56" unicode="&#x1e56;" horiz-adv-x="601" 
d="M431 739q66 0 112.5 -28.5t61.5 -76.5q17 -52 -9 -104.5t-86 -92.5l-457 -298v-140h-23v740h401zM496 456q55 36 78 81t10 90q-14 41 -53.5 65t-99.5 24h-378v-550zM276 813q0 10 7.5 16.5t16.5 6.5t16 -6.5t7 -16.5q0 -9 -7 -16t-16 -7t-16.5 7t-7.5 16z" />
    <glyph glyph-name="uni1E57" unicode="&#x1e57;" horiz-adv-x="552" 
d="M328 583q39 0 74 -14t62 -39.5t42.5 -60.5t15.5 -77v-152q0 -38 -17.5 -71.5t-47.5 -59t-70 -40t-86 -14.5h-248v-157h-23v485q0 41 16.5 77.5t45.5 63.5t67 43t82 16h87zM498 392q0 31 -11 61t-32.5 54t-53 38.5t-73.5 14.5h-87q-39 0 -73.5 -13.5t-60 -37.5t-40 -56.5
t-14.5 -69.5v-305h248q41 0 77 12.5t62.5 34.5t42 51.5t15.5 63.5v152zM252 656q0 10 7.5 16.5t16.5 6.5t16 -6.5t7 -16.5q0 -9 -7 -16t-16 -7t-16.5 7t-7.5 16z" />
    <glyph glyph-name="uni1E60" unicode="&#x1e60;" horiz-adv-x="596" 
d="M466 305q41 -22 64.5 -53t30.5 -65t-2 -67.5t-32.5 -60.5t-60 -43.5t-84.5 -16.5h-352v24h352q41 0 73 14t52.5 36.5t29 51t2.5 57.5t-26.5 56t-57.5 46l-325 167q-39 20 -62 49t-30.5 61t0.5 64t30.5 57t58 41t84.5 16h311v-23h-311q-62 0 -99.5 -27.5t-48 -66t8 -80.5
t69.5 -71zM274 813q0 10 7.5 16.5t16.5 6.5t16 -6.5t7 -16.5q0 -9 -7 -16t-16 -7t-16.5 7t-7.5 16z" />
    <glyph glyph-name="uni1E61" unicode="&#x1e61;" horiz-adv-x="539" 
d="M114 389q-36 27 -47 60.5t0 63.5t41.5 50t77.5 20h379v-23h-379q-36 0 -62 -15t-35.5 -37.5t-1 -49.5t41.5 -51l290 -219q37 -26 51 -59t6.5 -62t-36.5 -48.5t-79 -19.5h-391v24h391q38 0 62 13.5t30.5 34.5t-5 47t-43.5 51zM245 656q0 10 7.5 16.5t16.5 6.5t16 -6.5
t7 -16.5q0 -9 -7 -16t-16 -7t-16.5 7t-7.5 16z" />
    <glyph glyph-name="uni1E6A" unicode="&#x1e6a;" horiz-adv-x="565" 
d="M273 716h-327v23h679v-23h-328v-717h-24v717zM258 813q0 10 7.5 16.5t16.5 6.5t16 -6.5t7 -16.5q0 -9 -7 -16t-16 -7t-16.5 7t-7.5 16z" />
    <glyph glyph-name="uni1E6B" unicode="&#x1e6b;" horiz-adv-x="427" 
d="M167 74q23 -27 59.5 -39t89.5 -12h133v-24h-133q-113 0 -165.5 57.5t-52.5 181.5v322h-70v23h70v156h23v-156h307v-23h-307v-322q0 -112 46 -164zM93 819q0 10 7.5 16.5t16.5 6.5t16 -6.5t7 -16.5q0 -9 -7 -16t-16 -7t-16.5 7t-7.5 16z" />
    <glyph glyph-name="Wgrave" unicode="&#x1e80;" horiz-adv-x="945" 
d="M953 739l-130 -647q-11 -43 -43 -68t-74 -25t-73 25t-42 68l-121 588l-120 -588q-11 -43 -42 -68t-73 -25t-74 25t-43 68l-132 647h23l132 -642q8 -35 33.5 -54.5t60.5 -19.5q33 0 58.5 19.5t33.5 54.5l132 642h23l130 -642q10 -34 35.5 -54t58.5 -20q32 0 57.5 19.5
t35.5 54.5l130 642h24zM515 758l-114 191h28l113 -191h-27z" />
    <glyph glyph-name="wgrave" unicode="&#x1e81;" horiz-adv-x="745" 
d="M726 583h24l-105 -513q-8 -34 -32.5 -52.5t-56.5 -18.5q-34 0 -58 18.5t-32 52.5l-95 450q-23 -112 -45.5 -224.5t-45.5 -225.5q-8 -34 -32.5 -52.5t-57.5 -18.5q-32 0 -56.5 18.5t-32.5 52.5l-106 513h24l102 -506q8 -31 29 -42.5t40 -11.5q20 0 39.5 11.5t27.5 42.5
l103 506h23l104 -506q10 -31 30 -42.5t39 -11.5q18 0 38.5 11.5t28.5 42.5zM415 602l-114 191h28l113 -191h-27z" />
    <glyph glyph-name="Wacute" unicode="&#x1e82;" horiz-adv-x="945" 
d="M953 739l-130 -647q-11 -43 -43 -68t-74 -25t-73 25t-42 68l-121 588l-120 -588q-11 -43 -42 -68t-73 -25t-74 25t-43 68l-132 647h23l132 -642q8 -35 33.5 -54.5t60.5 -19.5q33 0 58.5 19.5t33.5 54.5l132 642h23l130 -642q10 -34 35.5 -54t58.5 -20q32 0 57.5 19.5
t35.5 54.5l130 642h24zM401 758l114 191h27l-113 -191h-28z" />
    <glyph glyph-name="wacute" unicode="&#x1e83;" horiz-adv-x="745" 
d="M726 583h24l-105 -513q-8 -34 -32.5 -52.5t-56.5 -18.5q-34 0 -58 18.5t-32 52.5l-95 450q-23 -112 -45.5 -224.5t-45.5 -225.5q-8 -34 -32.5 -52.5t-57.5 -18.5q-32 0 -56.5 18.5t-32.5 52.5l-106 513h24l102 -506q8 -31 29 -42.5t40 -11.5q20 0 39.5 11.5t27.5 42.5
l103 506h23l104 -506q10 -31 30 -42.5t39 -11.5q18 0 38.5 11.5t28.5 42.5zM301 602l114 191h27l-113 -191h-28z" />
    <glyph glyph-name="Wdieresis" unicode="&#x1e84;" horiz-adv-x="945" 
d="M953 739l-130 -647q-11 -43 -43 -68t-74 -25t-73 25t-42 68l-121 588l-120 -588q-11 -43 -42 -68t-73 -25t-74 25t-43 68l-132 647h23l132 -642q8 -35 33.5 -54.5t60.5 -19.5q33 0 58.5 19.5t33.5 54.5l132 642h23l130 -642q10 -34 35.5 -54t58.5 -20q32 0 57.5 19.5
t35.5 54.5l130 642h24zM357 822q0 10 7.5 16.5t16.5 6.5t16 -6.5t7 -16.5q0 -9 -7 -16t-16 -7t-16.5 7t-7.5 16zM538 822q0 10 7.5 16.5t16.5 6.5t16 -6.5t7 -16.5q0 -9 -7 -16t-16 -7t-16.5 7t-7.5 16z" />
    <glyph glyph-name="wdieresis" unicode="&#x1e85;" horiz-adv-x="745" 
d="M726 583h24l-105 -513q-8 -34 -32.5 -52.5t-56.5 -18.5q-34 0 -58 18.5t-32 52.5l-95 450q-23 -112 -45.5 -224.5t-45.5 -225.5q-8 -34 -32.5 -52.5t-57.5 -18.5q-32 0 -56.5 18.5t-32.5 52.5l-106 513h24l102 -506q8 -31 29 -42.5t40 -11.5q20 0 39.5 11.5t27.5 42.5
l103 506h23l104 -506q10 -31 30 -42.5t39 -11.5q18 0 38.5 11.5t28.5 42.5zM257 666q0 10 7.5 16.5t16.5 6.5t16 -6.5t7 -16.5q0 -9 -7 -16t-16 -7t-16.5 7t-7.5 16zM438 666q0 10 7.5 16.5t16.5 6.5t16 -6.5t7 -16.5q0 -9 -7 -16t-16 -7t-16.5 7t-7.5 16z" />
    <glyph glyph-name="Ygrave" unicode="&#x1ef2;" horiz-adv-x="481" 
d="M506 739l-146 -367q-15 -35 -44 -56.5t-64 -25.5v-291h-23v290q-36 4 -64.5 26t-43.5 57l-147 367h25l143 -358q14 -32 40 -50t58 -18t59 18t39 50l142 358h26zM283 758l-114 191h28l113 -191h-27z" />
    <glyph glyph-name="ygrave" unicode="&#x1ef3;" horiz-adv-x="505" 
d="M-2 583h25l111 -431q17 -66 67 -97.5t128 -31.5l155 560h24l-215 -772h-24l54 188q-80 0 -135 36t-74 110zM295 602l-114 191h28l113 -191h-27z" />
    <glyph glyph-name="endash" unicode="&#x2013;" horiz-adv-x="527" 
d="M464 263h-401v24h401v-24z" />
    <glyph glyph-name="emdash" unicode="&#x2014;" horiz-adv-x="727" 
d="M664 263h-601v24h601v-24z" />
    <glyph glyph-name="quoteleft" unicode="&#x2018;" horiz-adv-x="199" 
d="M65 507l47 248h24l-47 -248h-24z" />
    <glyph glyph-name="quoteright" unicode="&#x2019;" horiz-adv-x="199" 
d="M134 755l-47 -248h-24l47 248h24z" />
    <glyph glyph-name="quotesinglbase" unicode="&#x201a;" horiz-adv-x="199" 
d="M134 150l-47 -248h-24l47 248h24z" />
    <glyph glyph-name="quotedblleft" unicode="&#x201c;" horiz-adv-x="316" 
d="M65 507l47 248h24l-47 -248h-24zM182 507l47 248h24l-47 -248h-24z" />
    <glyph glyph-name="quotedblright" unicode="&#x201d;" horiz-adv-x="316" 
d="M134 755l-47 -248h-24l47 248h24zM251 755l-47 -248h-24l47 248h24z" />
    <glyph glyph-name="quotedblbase" unicode="&#x201e;" horiz-adv-x="316" 
d="M134 150l-47 -248h-24l47 248h24zM251 150l-47 -248h-24l47 248h24z" />
    <glyph glyph-name="dagger" unicode="&#x2020;" horiz-adv-x="516" 
d="M452 608h-187v-707h-23v707h-179v24h179v131h23v-131h187v-24z" />
    <glyph glyph-name="daggerdbl" unicode="&#x2021;" horiz-adv-x="516" 
d="M452 38h-187v-137h-23v137h-179v24h179v546h-179v24h179v131h23v-131h187v-24h-187v-546h187v-24z" />
    <glyph glyph-name="bullet" unicode="&#x2022;" horiz-adv-x="274" 
d="M63 315q0 14 6 27.5t16 23.5t23.5 16t28.5 6q29 0 50.5 -22t21.5 -51q0 -31 -21.5 -52t-50.5 -21q-30 0 -52 21t-22 52z" />
    <glyph glyph-name="ellipsis" unicode="&#x2026;" horiz-adv-x="515" 
d="M63 23q0 9 7.5 16t16.5 7t16 -7t7 -16q0 -10 -7 -16.5t-16 -6.5t-16.5 6.5t-7.5 16.5zM235 23q0 9 7 16t17 7q8 0 15 -7t7 -16q0 -10 -7 -16.5t-15 -6.5q-10 0 -17 6.5t-7 16.5zM407 23q0 9 6.5 16t15.5 7q10 0 16.5 -7t6.5 -16q0 -10 -6.5 -16.5t-16.5 -6.5
q-9 0 -15.5 6.5t-6.5 16.5z" />
    <glyph glyph-name="perthousand" unicode="&#x2030;" horiz-adv-x="979" 
d="M777 -2q-56 0 -97 27t-54 78q-14 -51 -56 -78t-96 -27q-33 0 -61.5 9.5t-49.5 28.5t-33 45.5t-12 61.5q0 66 42 105.5t114 39.5q60 0 99.5 -28t52.5 -76q12 48 51.5 76t99.5 28q71 0 114.5 -39t43.5 -106q0 -34 -12.5 -61t-34.5 -45.5t-50.5 -28.5t-60.5 -10zM221 379
q-33 0 -61.5 9.5t-49.5 28t-33 45t-12 61.5q0 66 42.5 106t113.5 40q70 0 114 -39.5t44 -106.5q0 -34 -12.5 -61t-34.5 -45.5t-50.5 -28t-60.5 -9.5zM474 268q-61 0 -97 -35.5t-36 -89.5t36 -89t97 -35q28 0 52.5 9t42.5 25.5t28.5 39.5t10.5 50q0 58 -36.5 91.5t-97.5 33.5
zM221 648q-60 0 -96.5 -35.5t-36.5 -89.5t36.5 -89t96.5 -35q28 0 52.5 9t42.5 25.5t28.5 39.5t10.5 50q0 58 -36.5 91.5t-97.5 33.5zM777 268q-60 0 -96 -35.5t-36 -89.5t36 -89t96 -35q28 0 52.5 9t42.5 25.5t28.5 39.5t10.5 50q0 58 -36.5 91.5t-97.5 33.5zM95 0h-30
l531 667h29z" />
    <glyph glyph-name="guilsinglleft" unicode="&#x2039;" horiz-adv-x="484" 
d="M407 111l-344 212v18l342 210l14 -16l-329 -203l330 -205z" />
    <glyph glyph-name="guilsinglright" unicode="&#x203a;" horiz-adv-x="484" 
d="M77 553l344 -212v-18l-342 -210l-14 16l329 203l-330 205z" />
    <glyph glyph-name="fraction" unicode="&#x2044;" horiz-adv-x="670" 
d="M93 -101h-30l513 864h30z" />
    <glyph glyph-name="zerosuperior" unicode="&#x2070;" horiz-adv-x="544" 
d="M271 200q-53 0 -94.5 24t-70 65t-43.5 95.5t-15 115.5q0 70 15.5 125.5t44.5 94.5t70 59.5t93 20.5q106 0 165 -78.5t59 -221.5q0 -63 -15 -117.5t-43.5 -95t-70 -64t-95.5 -23.5zM271 779q-91 0 -146 -70t-55 -209q0 -67 14.5 -119t41 -87.5t63.5 -54t82 -18.5
t82.5 18.5t64 54.5t41.5 88t15 118q0 70 -14.5 122.5t-41 87t-64 52t-83.5 17.5z" />
    <glyph glyph-name="foursuperior" unicode="&#x2074;" horiz-adv-x="548" 
d="M424 200v163h-366v17l370 420h18v-416h45v-21h-45v-163h-22zM89 384h336v378z" />
    <glyph glyph-name="fivesuperior" unicode="&#x2075;" horiz-adv-x="549" 
d="M278 200q-74 0 -129 21.5t-91 57.5l10 18q79 -76 207 -76q51 0 88 15.5t61 40t35.5 55t11.5 60.5q0 52 -25 90t-73.5 58.5t-119 22.5t-160.5 -17l29 254h351v-21h-333l-24 -209q91 17 161 12t118 -28.5t73 -65t25 -97.5q0 -35 -13.5 -69.5t-40 -61.5t-67 -43.5
t-94.5 -16.5z" />
    <glyph glyph-name="sixsuperior" unicode="&#x2076;" horiz-adv-x="546" 
d="M398 784q-125 -63 -202.5 -135.5t-104.5 -153.5q28 17 78 31.5t108 14.5q54 0 94 -13.5t66 -35.5t38.5 -50.5t12.5 -58.5q0 -32 -13 -65t-40 -59t-67.5 -42.5t-94.5 -16.5q-103 0 -159 57.5t-56 157.5q0 56 22.5 109t65 102t103 92.5t136.5 81.5zM272 221q44 0 80 12.5
t61.5 34t39 51t13.5 63.5q0 27 -12 52t-36 44t-60.5 30t-85.5 11q-58 0 -107 -14t-79 -35q-3 -13 -5 -28t-2 -31q0 -86 48 -138t145 -52z" />
    <glyph glyph-name="sevensuperior" unicode="&#x2077;" horiz-adv-x="543" 
d="M222 200q9 88 26 172.5t44.5 160t66 138.5t90.5 108h-391v21h427v-20q-56 -42 -97.5 -105t-71 -139.5t-47 -162.5t-26.5 -173h-21z" />
    <glyph glyph-name="eightsuperior" unicode="&#x2078;" horiz-adv-x="543" 
d="M58 360q0 44 15 74t40.5 50t57.5 33t67 23q-32 9 -61.5 19.5t-52 26t-36 38.5t-13.5 57q0 22 11 43.5t35 38t61 27t89 10.5t89 -10.5t61 -27t35.5 -38t11.5 -43.5q0 -34 -13.5 -57t-36 -39t-52.5 -26t-62 -19q35 -10 67.5 -23t58 -33.5t41 -50t15.5 -73.5q0 -33 -13 -62
t-40 -50.5t-67.5 -34.5t-94.5 -13t-94 13t-66.5 34.5t-39.5 50.5t-13 62zM464 361q0 43 -16.5 71t-43.5 47t-62 30.5t-71 21.5q-36 -10 -70.5 -21.5t-61.5 -30.5t-43.5 -47t-16.5 -71q0 -27 11.5 -52.5t35 -45t59.5 -31t86 -11.5t86.5 11.5t60 31t35 45t11.5 52.5zM97 682
q0 -32 14.5 -53.5t38.5 -36t55.5 -24.5t65.5 -19q34 9 65.5 18.5t56 24t39 36t14.5 54.5q0 18 -10 35.5t-31.5 31t-54.5 22t-79 8.5t-79 -8.5t-54 -22t-31 -31t-10 -35.5z" />
    <glyph glyph-name="ninesuperior" unicode="&#x2079;" horiz-adv-x="546" 
d="M147 216q253 127 307 289q-27 -17 -77 -31t-110 -14q-53 0 -92.5 13.5t-65.5 35t-38.5 50t-12.5 58.5q0 32 13 64.5t40 59t67 43t94 16.5q103 0 159.5 -57.5t56.5 -157.5q0 -56 -22.5 -109.5t-65 -102t-103.5 -92.5t-137 -81zM272 779q-44 0 -79.5 -12.5t-61 -34t-39 -51
t-13.5 -62.5q0 -28 12 -53t36 -44t60 -30t85 -11q58 0 108 14.5t80 34.5q2 13 4 28t2 31q0 87 -48.5 138.5t-145.5 51.5z" />
    <glyph glyph-name="zeroinferior" unicode="&#x2080;" horiz-adv-x="544" 
d="M271 -100q-53 0 -94.5 24t-70 65t-43.5 95.5t-15 115.5q0 70 15.5 125.5t44.5 94.5t70 59.5t93 20.5q106 0 165 -78.5t59 -221.5q0 -63 -15 -117.5t-43.5 -95t-70 -64t-95.5 -23.5zM271 479q-91 0 -146 -70t-55 -209q0 -67 14.5 -119t41 -87.5t63.5 -54t82 -18.5
t82.5 18.5t64 54.5t41.5 88t15 118q0 70 -14.5 122.5t-41 87t-64 52t-83.5 17.5z" />
    <glyph glyph-name="oneinferior" unicode="&#x2081;" horiz-adv-x="460" 
d="M402 -100h-343v21h164v556l-152 -34l-5 20l165 37h13v-579h158v-21z" />
    <glyph glyph-name="twoinferior" unicode="&#x2082;" horiz-adv-x="541" 
d="M484 -100h-427v16q25 52 64 94t82.5 77t88 66t80 61.5t58 63t22.5 71.5q0 58 -48 94t-137 36q-66 0 -108.5 -16t-71.5 -42l-13 16q31 27 76 45t119 18q50 0 88.5 -11.5t64.5 -31.5t39.5 -47t13.5 -58q0 -43 -22.5 -78.5t-58 -68t-79 -63.5t-87 -64.5t-81 -72t-60.5 -84.5
h397v-21z" />
    <glyph glyph-name="threeinferior" unicode="&#x2083;" horiz-adv-x="545" 
d="M272 -100q-133 0 -214 71l11 18q29 -26 81 -47t120 -21q42 0 78.5 10t62.5 28t41 43t15 56q0 37 -17 63.5t-47.5 45t-74.5 29.5t-98 16v21q50 0 91 9.5t69.5 26.5t44 41.5t15.5 54.5q0 27 -13.5 48t-38.5 35.5t-59 22.5t-76 8q-28 0 -55.5 -5t-51.5 -13.5t-43 -18.5
t-31 -20l-12 18q32 26 84.5 43t111.5 17q100 0 152.5 -38.5t52.5 -95.5q0 -54 -40.5 -92.5t-115.5 -53.5q91 -20 132 -61t41 -102q0 -32 -14 -60t-41.5 -50t-68 -34.5t-92.5 -12.5z" />
    <glyph glyph-name="fourinferior" unicode="&#x2084;" horiz-adv-x="548" 
d="M424 -100v163h-366v17l370 420h18v-416h45v-21h-45v-163h-22zM89 84h336v378z" />
    <glyph glyph-name="fiveinferior" unicode="&#x2085;" horiz-adv-x="549" 
d="M278 -100q-74 0 -129 21.5t-91 57.5l10 18q79 -76 207 -76q51 0 88 15.5t61 40t35.5 55t11.5 60.5q0 52 -25 90t-73.5 58.5t-119 22.5t-160.5 -17l29 254h351v-21h-333l-24 -209q91 17 161 12t118 -28.5t73 -65t25 -97.5q0 -35 -13.5 -69.5t-40 -61.5t-67 -43.5
t-94.5 -16.5z" />
    <glyph glyph-name="sixinferior" unicode="&#x2086;" horiz-adv-x="546" 
d="M398 484q-125 -63 -202.5 -135.5t-104.5 -153.5q28 17 78 31.5t108 14.5q54 0 94 -13.5t66 -35.5t38.5 -50.5t12.5 -58.5q0 -32 -13 -65t-40 -59t-67.5 -42.5t-94.5 -16.5q-103 0 -159 57.5t-56 157.5q0 56 22.5 109t65 102t103 92.5t136.5 81.5zM272 -79q44 0 80 12.5
t61.5 34t39 51t13.5 63.5q0 27 -12 52t-36 44t-60.5 30t-85.5 11q-58 0 -107 -14t-79 -35q-3 -13 -5 -28t-2 -31q0 -86 48 -138t145 -52z" />
    <glyph glyph-name="seveninferior" unicode="&#x2087;" horiz-adv-x="543" 
d="M222 -100q9 88 26 172.5t44.5 160t66 138.5t90.5 108h-391v21h427v-20q-56 -42 -97.5 -105.5t-71 -139.5t-47 -162t-26.5 -173h-21z" />
    <glyph glyph-name="eightinferior" unicode="&#x2088;" horiz-adv-x="543" 
d="M58 60q0 44 15 74t40.5 50t57.5 33t67 23q-32 9 -61.5 19.5t-52 26t-36 38.5t-13.5 57q0 22 11 43.5t35 38t61 27t89 10.5t89 -10.5t61 -27t35.5 -38t11.5 -43.5q0 -34 -13.5 -57t-36 -38.5t-52.5 -26t-62 -19.5q35 -10 67.5 -23t58 -33t41 -50t15.5 -74q0 -33 -13 -62
t-40 -50.5t-67.5 -34.5t-94.5 -13t-94 13t-66.5 34.5t-39.5 50.5t-13 62zM464 61q0 43 -16.5 71t-43.5 47t-62 30.5t-71 21.5q-36 -10 -70.5 -21.5t-61.5 -30.5t-43.5 -47t-16.5 -71q0 -27 11.5 -52.5t35 -45t59.5 -31t86 -11.5t86.5 11.5t60 31t35 45t11.5 52.5zM97 381
q0 -32 14.5 -53.5t38.5 -36t55.5 -24t65.5 -18.5q34 9 65.5 18.5t56 24t39 36t14.5 53.5q0 18 -10 36t-31.5 31.5t-54.5 22t-79 8.5t-79 -8.5t-54 -22t-31 -31.5t-10 -36z" />
    <glyph glyph-name="nineinferior" unicode="&#x2089;" horiz-adv-x="546" 
d="M147 -84q252 125 307 289q-27 -17 -77 -31t-110 -14q-53 0 -92.5 13.5t-65.5 35t-38.5 50t-12.5 58.5q0 32 13 64.5t40 59t67 43t94 16.5q103 0 159.5 -57.5t56.5 -157.5q0 -56 -22.5 -109.5t-65 -102t-103.5 -92.5t-137 -81zM272 479q-44 0 -79.5 -12.5t-61 -34t-39 -51
t-13.5 -62.5q0 -28 12 -53t36 -44t60 -30t85 -11q58 0 108 14t80 35q2 13 4 28t2 31q0 87 -48.5 138.5t-145.5 51.5z" />
    <glyph glyph-name="Euro" unicode="&#x20ac;" horiz-adv-x="622" 
d="M422 425h-272q-1 -11 -1.5 -22.5t-0.5 -23.5v-28t2 -27h242v-22h-239q9 -59 30 -103.5t50 -74.5t63 -45t70 -15q68 0 113 20.5t68 43.5l12 -16q-10 -12 -27.5 -25t-42 -23.5t-56 -17.5t-70.5 -7q-40 0 -78.5 17t-70.5 50t-55 82t-32 114h-64v22h61q-1 13 -1.5 27t-0.5 28
q0 12 0.5 23.5t1.5 22.5h-61v22h63q8 65 31 114t55 81.5t71 48.5t80 16q71 0 120.5 -21.5t75.5 -47.5l-14 -17q-28 25 -72.5 43.5t-107.5 18.5q-36 0 -71 -14t-64 -43.5t-49.5 -74t-28.5 -104.5h270v-22z" />
    <glyph glyph-name="trademark" unicode="&#x2122;" horiz-adv-x="761" 
d="M696 762v-362h-21v317l-122 -271h-15l-129 275v-321h-21v362h26l131 -283l126 283h25zM63 762h268v-22h-123v-340h-22v340h-123v22z" />
    <glyph glyph-name="minus" unicode="&#x2212;" horiz-adv-x="516" 
d="M452 323h-389v24h389v-24z" />
  </font>
</defs>
</svg>
