<?xml version="1.0" standalone="no"?>
<!DOCTYPE svg PUBLIC "-//W3C//DTD SVG 1.1//EN" "http://www.w3.org/Graphics/SVG/1.1/DTD/svg11.dtd" >
<svg xmlns="http://www.w3.org/2000/svg" xmlns:xlink="http://www.w3.org/1999/xlink" version="1.1">
<metadata>
Created by FontForge 20170731 at Fri Jan  4 15:31:44 2019
 By Aleksey,,,
joannavu
</metadata>
<defs>
<font id="andromeda" horiz-adv-x="358" >
  <font-face 
    font-family="andromeda"
    font-weight="500"
    font-stretch="normal"
    units-per-em="1000"
    panose-1="2 0 6 3 0 0 0 0 0 0"
    ascent="800"
    descent="-200"
    x-height="500"
    cap-height="720"
    bbox="6 -121 912 723"
    underline-thickness="50"
    underline-position="-200"
    unicode-range="U+0020-F8FE"
  />
<missing-glyph horiz-adv-x="364" 
d="M66 33h199v600h-199v-600zM33 0v666h265v-666h-265z" />
    <glyph glyph-name=".notdef" horiz-adv-x="364" 
d="M66 33h199v600h-199v-600zM33 0v666h265v-666h-265z" />
    <glyph glyph-name=".null" horiz-adv-x="0" 
 />
    <glyph glyph-name="nonmarkingreturn" horiz-adv-x="333" 
 />
    <glyph glyph-name="space" unicode=" " horiz-adv-x="300" 
 />
    <glyph glyph-name="exclam" unicode="!" 
d="M241 119h47l1 -120h-45zM241 499h47l-2 -332l-44 -1z" />
    <glyph glyph-name="comma" unicode="," 
d="M241 119h47l1 -240h-45z" />
    <glyph glyph-name="period" unicode="." 
d="M241 119h47l1 -120h-45z" />
    <glyph glyph-name="zero" unicode="0" horiz-adv-x="529" 
d="M416 91l1 23q-1 147 -1 293h-1q0 23 -14 35t-35 12q-37 -1 -125 -1q-31 -6 -33 -36l1 -329v-3q0 -35 37 -39h79h49q18 2 29.5 13t12.5 30v2zM459 90q-1 -40 -23 -65t-65 -25h-104h-15q-43 -1 -65.5 23t-22.5 64v3l-2 322q0 38 22.5 63t65.5 25h16h1h69h35h1h3
q16 0 29.5 -4.5t21.5 -11.5t13.5 -14t7.5 -11l3 -5h-1q11 -21 10 -46v-291v-27z" />
    <glyph glyph-name="one" unicode="1" horiz-adv-x="356" 
d="M241 500l45 1v-501h-45v500z" />
    <glyph glyph-name="two" unicode="2" horiz-adv-x="556" 
d="M487 49q-1 -2 -3 -5t-8 -11t-14 -14t-22 -11t-30 -5h-57t-69 -1q-44 0 -67 25.5t-23 64.5v4l-2 92v2v1q0 39 23 64.5t68 24.5q30 0 68 -1q16 1 27 1q47 0 48 41v3v86v6q0 21 -13 31t-34 10q-71 -1 -194 -1l2.5 5t7.5 11t14 14.5t21.5 11.5t28.5 5q17 0 62 -0.5t63 0.5
q41 0 63.5 -24.5t23.5 -61.5v-1v-3q0 -41 1 -83v-5q0 -39 -22.5 -64.5t-66.5 -25.5h-86h-10q-21 0 -34.5 -10t-13.5 -30q0 -4 -1 -7l2 -95v-5q0 -40 48 -40z" />
    <glyph glyph-name="three" unicode="3" horiz-adv-x="551" 
d="M186 46h200q45 -1 48 36q1 46 1 92q-1 48 -39 53q-5 -1 -11 -1q-7 1 -14 1h-142l-1 45h168q39 3 40 53q0 41 -2 84v7v6q-4 35 -48 35q-74 -1 -201 -1l2.5 5t8 11t14.5 14.5t22 11.5t30 5q17 0 63.5 -0.5t64.5 0.5q45 0 68 -25.5t23 -64.5q-1 -34 -1 -89q0 -51 -25 -76
q24 -23 25 -73v-17.5v-15v-12.5t0.5 -10.5t0.5 -8.5v-6.5v-4.5v-2v-1v-4q1 -42 -22 -69t-68 -26q-18 0 -64.5 -0.5t-63.5 -0.5t-30.5 5t-22 12t-14 15t-8.5 13z" />
    <glyph glyph-name="four" unicode="4" horiz-adv-x="556" 
d="M185 500l49 -1l-3 -176q1 -3 1 -6q1 -41 47 -40q8 0 20 -1q74 1 97 1q25 1 44 -9q0 116 -1 232h46l2 -500l-45 1l-1 175q-2 7 -2 16q0 35 -37 39h-3h-62h-63q-42 0 -64.5 23.5t-23.5 60.5v6v2z" />
    <glyph glyph-name="five" unicode="5" horiz-adv-x="551" 
d="M193 47h196q48 -1 48 39v5l-2 95q-1 4 -1 9q0 35 -37 39h-3q-17 0 -62 0.5t-63 -0.5q-42 0 -64 24t-24 61v5v1q0 40 -1 81v5q0 39 22.5 64.5t65.5 25.5h63h62q16 0 29.5 -4.5t21.5 -11.5t13.5 -14t8.5 -11l2 -5h-195q-21 0 -34 -10t-13 -30v-6q0 -42 1 -85v-4
q1 -40 47 -40q9 0 20 -1q75 1 97 1q41 1 63.5 -21.5t25.5 -58.5l2 -109v-1q0 -39 -22.5 -64.5t-66.5 -24.5h-68.5t-56.5 1q-15 0 -29 4.5t-22 11t-13.5 13.5t-7.5 11z" />
    <glyph glyph-name="six" unicode="6" horiz-adv-x="533" 
d="M366 230h-158v-138q1 -3 1 -7q0 -33 33 -39h129q47 -1 48 39v5q-1 55 -3 109h1q-6 32 -47 31h-4zM450 454h-195q-21 0 -34 -10t-13 -30q0 -4 -1 -8q1 -65 1 -131l133 1h33q42 1 65 -23t24 -61v-1v-4v-2l1 -95v-1q0 -39 -22.5 -64.5t-66.5 -24.5h-72q-25 0 -50 -1
q-44 0 -67 25t-23 64v8q0 155 -1 309v5q0 39 22 64.5t66 25.5h63h62q16 0 29.5 -4.5t21.5 -11.5t13.5 -14t7.5 -11z" />
    <glyph glyph-name="seven" unicode="7" horiz-adv-x="545" 
d="M473 0l-47 1q2 202 3 404v9q0 20 -13.5 30.5t-35.5 9.5h-200q0 2 2 5t8 11t14 14t22 11t30 5h64.5h64.5q44 0 67 -24t24 -62z" />
    <glyph glyph-name="eight" unicode="8" horiz-adv-x="555" 
d="M187 86q0 161 -1 321v5q0 39 22.5 64t66.5 24q30 0 72 -1h50q44 1 66.5 -24.5t22.5 -64.5q0 -4 -1 -8q-1 -154 -1 -309v-4q0 -39 -22.5 -64.5t-66.5 -24.5q-28 0 -60 1q-31 -1 -59 -1q-43 -1 -65.5 23.5t-23.5 62.5zM232 275q104 0 208 1v130v8q0 33 -33 39q-94 1 -128 2
q-48 0 -48 -40q0 -2 -1 -5q1 -68 2 -135zM232 230q1 -69 1 -138v-2q0 -35 32 -43q40 0 70 -1q31 1 73 1q30 7 30 39q0 4 1 8v136h-207z" />
    <glyph glyph-name="nine" unicode="9" horiz-adv-x="555" 
d="M232 323q1 -4 1 -7q0 -21 13 -31t34 -9q6 0 14 -1q73 0 146 1v130v8q0 33 -33 39q-94 1 -128 2q-48 0 -48 -40v-5q0 -44 1 -87zM196 48q144 -2 195 -2q21 -1 34 9t13 31q0 4 1 8v136h-173q-38 3 -58 26.5t-21 58.5v1v2q-1 46 -1 91v3q0 39 22.5 64t66.5 24q30 0 72 -1h50
q44 1 66.5 -24.5t22.5 -64.5q0 -4 -1 -8q-1 -154 -1 -309v-4q0 -39 -22.5 -64.5t-66.5 -24.5q-29 0 -68.5 0.5t-56.5 0.5q-15 0 -28.5 5t-21.5 11.5t-13.5 14t-8 11.5t-2.5 5z" />
    <glyph glyph-name="A" unicode="A" horiz-adv-x="807" 
d="M57 242h9h24h72h72l51 -1l-18 -69h75l-57 -172h-75l57 171h-9q-5 0 -11.5 0.5t-12.5 0.5h-72.5h-71.5h-24h-9v70zM285 242l155 478h63l234 -719l-74 -1l-190 590l-115 -348h-73z" />
    <glyph glyph-name="B" unicode="B" horiz-adv-x="698" 
d="M591 363q36 -37 36 -113q0 -65 1 -101q0 -5 1 -11q0 -61 -32 -99.5t-95 -38.5h-242l-64 1l1 719h63h241q63 0 94.5 -37t32.5 -95v-112q0 -77 -37 -113zM499 397q34 0 49.5 22.5t15.5 57.5q0 57 -1 117q-4 55 -69 55q-71 0 -232 -2v-573q161 -1 233 -2q57 0 67 46
q2 66 1 130q0 35 -15 58t-48 24h-9h-14q-22 1 -25 1v67q16 -1 37 0q5 0 10 -1z" />
    <glyph glyph-name="C" unicode="C" horiz-adv-x="675" 
d="M606 67q-1 -3 -3.5 -7.5t-11.5 -15.5t-20 -20t-30.5 -16t-42.5 -7q-24 0 -80 -0.5t-97 -0.5q-63 -1 -95 33.5t-33 92.5v4l-2 465q0 55 32.5 91t94.5 36q25 -1 90.5 -0.5t89.5 0.5q23 0 42.5 -7t31 -17t19.5 -19.5t12 -16.5l3 -7q-208 0 -282 1q-28 0 -47 -13t-20 -40
q1 -238 2 -475v-5q0 -58 68 -57z" />
    <glyph glyph-name="D" unicode="D" horiz-adv-x="709" 
d="M573 144q-1 223 -2 447q-2 30 -21 44t-48 14q-71 -1 -231 -2q0 -290 1 -580q164 0 234 -1q28 0 47.5 20.5t19.5 50.5v7zM639 138v-7q1 -57 -31 -94t-95 -37q-70 1 -241 0h-69l1 719h63h4h238q62 0 95 -36t34 -94z" />
    <glyph glyph-name="E" unicode="E" horiz-adv-x="702" 
d="M237 719h395v-65h-348v-265h248v-65h-247v-258h348v-65h-348h-4h-44h-22l2 718h20z" />
    <glyph glyph-name="F" unicode="F" horiz-adv-x="713" 
d="M247 719h396v-65h-349q0 -133 1 -266q123 0 247 1v-66h-247l1 -323h-71l2 719h20z" />
    <glyph glyph-name="G" unicode="G" horiz-adv-x="862" 
d="M625 656h-281q-31 0 -48.5 -14t-17.5 -44v0v-2v-469v-4q0 -46 45 -55q127 0 181 -1q30 0 50.5 17t20.5 48h1v39l62 1v-40q1 -35 -14 -65h1q-1 -3 -3.5 -7.5t-11.5 -15.5t-20 -20t-30.5 -16t-41.5 -7q-24 0 -80.5 -0.5t-97.5 -0.5q-63 -1 -96.5 33.5t-34.5 92.5v1v1l1 467
q0 55 32.5 91.5t94.5 35.5q25 0 90.5 0.5t89.5 0.5q23 0 42.5 -7t31 -17t20 -20t11.5 -17zM792 243v-71h-6h-5h-5.5h-7.5h-53h-52h-9.5h-8.5h-7v70h24q24 1 53 1h53h9h9h6z" />
    <glyph glyph-name="H" unicode="H" horiz-adv-x="730" 
d="M593 720h67l1 -720h-67v327h-304q1 -163 1 -327h-66v720h65v-328q152 1 304 1q-1 164 -1 327z" />
    <glyph glyph-name="I" unicode="I" horiz-adv-x="364" 
d="M229 719l64 1l1 -719h-65v718z" />
    <glyph glyph-name="J" unicode="J" horiz-adv-x="646" 
d="M512 132v588h63q1 -292 1 -583q1 -4 1 -7q0 -57 -32 -94t-94 -36h-95.5h-99.5h-47l-1 66q163 0 236 -1q30 0 49 14.5t19 43.5v9z" />
    <glyph glyph-name="K" unicode="K" horiz-adv-x="759" 
d="M443 314l247 -313h-79l-209 254l-2 112v1l190 351h75zM226 719h63l2 -718h-65v718z" />
    <glyph glyph-name="L" unicode="L" horiz-adv-x="706" 
d="M222 721l66 -1v-654h349v-65h-349h-65z" />
    <glyph glyph-name="M" unicode="M" horiz-adv-x="822" 
d="M686 720h66l-1 -720h-63l-2 584l-190 -333h-27h-6l-189 333l-2 -584h-65l1 720h66l205 -360l207 359v1z" />
    <glyph glyph-name="N" unicode="N" horiz-adv-x="709" 
d="M203 720h61l308 -568v568h67l-1 -718l-56 -1l-313 576v-577l-66 1v719z" />
    <glyph glyph-name="O" unicode="O" horiz-adv-x="707" 
d="M618 653q-208 1 -281 1q-29 0 -47.5 -13t-20.5 -40l2 -455h-65l-3 448q1 55 33 90.5t94 35.5h91h89q23 0 42.5 -6.5t31 -16.5t19.5 -20t11 -17zM221 67q210 -1 283 -2q69 0 69 58v7v451h65v-452v-1q0 -56 -32.5 -93t-95.5 -36q-42 1 -98.5 1t-81.5 1q-23 0 -42.5 7
t-31 16t-20 19.5t-12 16.5t-3.5 7z" />
    <glyph glyph-name="P" unicode="P" horiz-adv-x="722" 
d="M287 647v-646h-67l1 719h63h3h238q61 0 92.5 -35.5t34.5 -92.5v-3v-2q1 -64 0 -138q0 -148 -137 -146l-37 1l-1 66q6 0 20 0.5t26 0.5q34 0 49.5 22t15.5 57q1 74 -1 143q-4 56 -69 56q-70 0 -231 -2z" />
    <glyph glyph-name="Q" unicode="Q" horiz-adv-x="868" 
d="M798 243v-71h-6h-5h-5.5h-6.5h-52.5h-52.5h-8.5h-8.5h-6l-1 70q14 0 24 1h52.5h51.5h7.5h5h5.5h6zM582 172h64v-41q-1 -57 -32 -93.5t-94 -36.5h-149h-22q-62 -1 -94 33.5t-32 92.5q-1 2 0 4q-2 231 -3 462q1 55 33 91t94 36h23h1h99h50h3h3q24 0 45 -8q38 -13 57 -46.5
t19 -76.5l-1 -347l-65 1l-1 357q-5 53 -66 53q-54 0 -180 -1q-46 -8 -48 -51l2 -473v-4q0 -51 53 -57h113h70q23 3 38.5 17t18.5 38q0 25 1 50z" />
    <glyph glyph-name="R" unicode="R" horiz-adv-x="751" 
d="M472 363q0 4 -1 7q6 0 20 0.5t26 0.5q34 0 49.5 22t15.5 57q1 73 -1 143q-4 55 -69 55q-70 0 -230 -2v-645h-66v718h62h4h237q61 0 92.5 -35.5t33.5 -91.5v-4v-2q1 -64 1 -138q0 -132 -111 -144l147 -304l-79 1l-131 279v83z" />
    <glyph glyph-name="S" unicode="S" horiz-adv-x="693" 
d="M603 654q-208 0 -282 1q-30 0 -49 -14.5t-18 -43.5q0 -4 -1 -9q1 -60 2 -121v-6q1 -58 68 -58q13 0 30 -1q107 1 139 2q59 1 91.5 -31.5t36.5 -84.5h1l2 -158q0 -57 -32.5 -94t-95.5 -36q-42 1 -99 1h-81q-23 1 -42.5 8t-31 16t-20 19.5t-12 16.5t-3.5 7q210 -1 283 -2
q69 0 69 58v7l-3 137v13q-1 50 -54 56h-4q-25 0 -90 0.5t-91 -0.5q-60 0 -92.5 34.5t-34.5 87.5v8v1l-1 116v7q-1 56 31.5 92.5t95.5 36.5q25 -1 90.5 -0.5t89.5 0.5q23 0 42.5 -7t31 -16.5t19.5 -19t12 -16.5z" />
    <glyph glyph-name="T" unicode="T" horiz-adv-x="665" 
d="M196 720h400v-66h-167v-654h-67v654h-166v66z" />
    <glyph glyph-name="U" unicode="U" horiz-adv-x="721" 
d="M586 130l1 590l62 -1l3 -590v-1q0 -56 -33 -93t-96 -36q-42 0 -99 0.5t-82 0.5q-23 0 -42.5 7t-31.5 16.5t-20.5 19.5t-11.5 17l-3 6q210 -1 284 -1q69 0 69 58v7zM214 720h66l2 -574l-67 1z" />
    <glyph glyph-name="V" unicode="V" horiz-adv-x="794" 
d="M724 719l-235 -719h-63l-231 720h74l188 -590l190 590z" />
    <glyph glyph-name="W" unicode="W" horiz-adv-x="982" 
d="M912 720l-235 -720l-63 1l-97 302l-99 -303l-63 1l-231 719h74l188 -589l93 289l-96 300h75l59 -185l59 185h77l-99 -304l91 -285l190 589h77z" />
    <glyph glyph-name="X" unicode="X" horiz-adv-x="735" 
d="M223 719h71l149 -292l150 292h73l-187 -361l183 -357h-71l-148 288l-149 -288h-69l183 357z" />
    <glyph glyph-name="Y" unicode="Y" horiz-adv-x="737" 
d="M235 721h74l141 -280l144 280h74l-373 -721l-72 1l190 370z" />
    <glyph glyph-name="Z" unicode="Z" horiz-adv-x="732" 
d="M216 722h401v-1l45 1l-340 -657h341v-65h-375h-71l337 656h-338v66z" />
    <glyph glyph-name="a" unicode="a" horiz-adv-x="630" 
d="M87 168h6h17h50h50h36l-13 -49h52l-39 -119l-53 -1l40 120h-6h-8h-9h-50h-26.5h-23.5h-10h-7h-6v49zM246 168l108 332h44l163 -500h-52l-133 410l-80 -243z" />
    <glyph glyph-name="b" unicode="b" horiz-adv-x="571" 
d="M476 252q24 -25 25 -79v-70q1 -3 1 -7q0 -42 -22.5 -69t-65.5 -27h-66.5h-69.5h-32h-45l1 500h43h168q43 0 65.5 -25.5t22.5 -66.5q1 -20 0 -78q0 -53 -25 -78zM395 276h8h2h3h2h1q45 0 46 56q0 39 -1 81q-3 38 -48 38q-49 0 -161 -1v-399q112 -1 162 -1q40 0 47 32v90
q0 55 -43 57h-7h-10q-15 1 -17 1v46h16z" />
    <glyph glyph-name="c" unicode="c" horiz-adv-x="561" 
d="M491 46q0 -2 -2 -5t-8 -11t-14 -14t-21.5 -11t-28.5 -5h-56t-67 -1q-44 0 -66 24t-23 64q0 1 1 3q-1 161 -2 321q0 39 22.5 64t65.5 24q18 0 63 0.5t62 0.5q16 0 29 -5t21 -12t14 -13.5t8 -11.5l2 -5q-144 0 -195 1q-44 0 -46 -37l1 -329v-3q0 -40 47 -40z" />
    <glyph glyph-name="d" unicode="d" horiz-adv-x="579" 
d="M463 101q0 155 -1 311q-2 40 -48 40q-49 0 -161 -1l1 -404h163q19 0 32.5 14t13.5 35v5zM509 96v-4q1 -40 -21.5 -65.5t-66.5 -25.5h-167h-48l1 500h43h3h165q44 0 67 -25t24 -66v-314z" />
    <glyph glyph-name="e" unicode="e" horiz-adv-x="562" 
d="M217 501h275v-45h-243l1 -185h172v-45h-172v-180h243v-45h-243h-1h-2h-15h-15h-15l1 500h14z" />
    <glyph glyph-name="f" unicode="f" horiz-adv-x="565" 
d="M220 500h275v-45h-243l1 -185h172v-45h-172q0 -113 1 -225h-49l1 500h14z" />
    <glyph glyph-name="g" unicode="g" horiz-adv-x="678" 
d="M609 168v-49h-5h-12h-37t-36 -1h-7h-5h-5v-27q0 -24 -10 -45h1l-2.5 -5t-8 -11t-14 -14t-21 -11t-29.5 -5h-55t-68 -1q-43 0 -66.5 24t-23.5 64v1v1v323q1 38 23 63t65 25q18 -1 63 -0.5t62 0.5q16 0 29.5 -5t21.5 -11.5t13.5 -13.5t8.5 -12l2 -5q-144 1 -195 1
q-46 0 -46 -40v-2v-324v-3q0 -32 31 -38q88 -1 126 -1q21 0 35 12t14 33h1v27l43 1v48h17q16 1 36 1h37h12h5z" />
    <glyph glyph-name="h" unicode="h" horiz-adv-x="586" 
d="M470 501h46v-500h-46v226h-210v-227h-46v500l45 1v-228h211v228z" />
    <glyph glyph-name="i" unicode="i" horiz-adv-x="329" 
d="M214 500l45 1l1 -501h-46v500z" />
    <glyph glyph-name="j" unicode="j" horiz-adv-x="534" 
d="M419 92v408h44q0 -202 1 -405v-5q0 -39 -22 -64.5t-66 -25.5h-66h-70h-32l-1 46h164q22 0 35 9.5t13 30.5v6z" />
    <glyph glyph-name="k" unicode="k" horiz-adv-x="602" 
d="M361 219l172 -218h-56l-145 177l-1 78l132 245h52zM209 501h45l1 -500h-45z" />
    <glyph glyph-name="l" unicode="l" horiz-adv-x="565" 
d="M208 501l45 -1v-454h242v-45h-242h-45v500z" />
    <glyph glyph-name="m" unicode="m" horiz-adv-x="671" 
d="M555 500h46l-1 -500h-43l-2 406l-132 -232h-19h-4l-132 232q0 -203 -1 -407l-45 1v500h46l143 -251l144 250v1z" />
    <glyph glyph-name="n" unicode="n" horiz-adv-x="575" 
d="M203 500h42l214 -395v395h47l-1 -499h-39l-217 400v-401l-46 1v499z" />
    <glyph glyph-name="o" unicode="o" horiz-adv-x="592" 
d="M509 454h-195q-45 0 -47 -37l1 -316h-45l-2 311q0 38 22.5 63t65.5 25h63h62q16 0 29.5 -5t21.5 -11.5t13.5 -13.5t7.5 -12zM234 46q145 0 196 -1q47 0 48 40v5v313h44l1 -313v-1q0 -39 -22.5 -64.5t-66.5 -24.5h-68.5h-56.5q-16 1 -29.5 5.5t-21.5 11t-14 13.5t-8 12z
" />
    <glyph glyph-name="p" unicode="p" horiz-adv-x="586" 
d="M262 450v-450h-46v501h44h2h166q42 0 64 -24.5t24 -64.5v-2v-2q1 -45 0 -96q0 -102 -95 -101l-26 1v46h13h18q45 0 46 55q0 51 -1 100q-3 38 -48 38q-49 0 -161 -1z" />
    <glyph glyph-name="q" unicode="q" horiz-adv-x="682" 
d="M612 169v-49h-4h-12q-17 0 -37 -0.5t-36 -0.5h-6h-6h-5v49h17q16 0 36 0.5t36 0.5h12h5zM506 168l-45 1l-1 248q-3 37 -46 37h-125q-32 -6 -33 -36q0 -165 1 -329v-3q0 -35 37 -39q46 -1 79 -1q22 0 48 1q36 4 40 38v34h45v-28q0 -40 -22 -65.5t-65 -25.5h-104v1
q-8 -1 -15 -1q-44 0 -66 24t-23 64v3q0 161 -1 322q0 38 22.5 63t65.5 25q8 -1 16 -1v1h69h35h1h1h3q16 0 31 -6q26 -9 39.5 -32t13.5 -54z" />
    <glyph glyph-name="r" unicode="r" horiz-adv-x="611" 
d="M395 253v5h14h18q45 0 45 55q1 52 0 100q-3 39 -48 39q-49 -1 -161 -2v-450h-46v501h44h2h165q43 0 65 -24.5t23 -64.5q1 -1 1 -2v-2v-96q0 -92 -77 -100l102 -212h-55l-92 195v58z" />
    <glyph glyph-name="s" unicode="s" horiz-adv-x="573" 
d="M214 47h196q48 -1 48 39v5l-2 95v9q-1 35 -37 39h-4q-17 0 -62 0.5t-63 -0.5q-42 0 -64 24t-23 61q-1 2 -1 5v1v81q-1 2 -1 5q0 39 22.5 64.5t65.5 25.5h63h62q16 0 29.5 -4.5t21.5 -11.5t13.5 -14t8.5 -11l2 -5h-195q-21 0 -34 -10t-13 -30v-6l1 -85v-4q1 -40 47 -40
q9 0 21 -1q74 1 96 1q41 1 63.5 -21.5t25.5 -58.5l2 -109v-1q0 -39 -22.5 -64.5t-66.5 -24.5h-68.5t-56.5 1q-15 0 -28.5 4.5t-22 11t-14 13.5t-8.5 11z" />
    <glyph glyph-name="t" unicode="t" horiz-adv-x="574" 
d="M229 499h275v-45h-115v-453h-46v453h-115z" />
    <glyph glyph-name="u" unicode="u" horiz-adv-x="598" 
d="M227 501h45l1 -399l-46 1v398zM483 91l1 410h42l2 -410v-1q0 -39 -22.5 -64.5t-65.5 -24.5h-68.5h-56.5q-16 0 -29.5 5t-21.5 11.5t-14 13.5t-8 11l-3 5q146 -1 196 -1q48 0 48 40v5z" />
    <glyph glyph-name="v" unicode="v" horiz-adv-x="634" 
d="M565 500l-164 -500h-44l-160 500h52l130 -409l132 410z" />
    <glyph glyph-name="w" unicode="w" horiz-adv-x="822" 
d="M753 501l-164 -501h-44l-67 210l-69 -210h-44l-160 500h51l131 -410l65 202l-67 208h52l41 -129l41 130l54 -1l-69 -211l63 -199l132 410z" />
    <glyph glyph-name="x" unicode="x" horiz-adv-x="601" 
d="M223 501h50l104 -204l104 204l51 -1l-130 -251l127 -248l-49 -1l-103 201l-104 -201l-48 1l127 248z" />
    <glyph glyph-name="y" unicode="y" horiz-adv-x="583" 
d="M213 501l51 -1l98 -194l100 194h52l-259 -500h-50l132 257z" />
    <glyph glyph-name="z" unicode="z" horiz-adv-x="576" 
d="M197 501h278h31l-235 -455h236v-45h-260h-49l234 455h-235v45z" />
    <glyph glyph-name="Aacute" unicode="&#xc1;" horiz-adv-x="953" 
d="M883 243v-71h-9h-7h-7.5h-10.5h-74.5h-74.5h-13h-12h-9l-18 70h52h74.5t74.5 1h25h9zM720 0h-69l-57 171l73 -1zM647 242h-73l-115 349l-190 -590l-80 -1l239 721l63 1z" />
    <glyph glyph-name="Ccedilla" unicode="&#xc7;" horiz-adv-x="680" 
d="M611 653q-208 0 -281 1q-29 0 -47.5 -13t-19.5 -40l1 -359h-66v-71h-8h-10.5h-11.5h-66h-66h-9h-6.5h-6.5h-8v71h8h22h66t66 -1l30 1l-1 353q1 54 33 89.5t93 35.5q26 -1 91 -0.5t90 0.5q22 0 41.5 -7t31 -16.5t19.5 -19.5t12 -17zM199 171h64q1 -23 1 -46v-2
q1 -58 68 -58q32 0 102 0.5t123 0.5h54q-1 -2 -3.5 -6.5t-11.5 -16t-20 -20t-30.5 -15.5t-41.5 -8h-80t-98 -1q-62 -1 -94.5 34t-32.5 92v4v42z" />
    <glyph glyph-name="Eacute" unicode="&#xc9;" horiz-adv-x="688" 
d="M28 243h7h20h61h60l28 -1l-3 478h20h397v-64h-350q1 -133 1 -266h248v-65h-248l1 -83h-66v-70h64q1 -53 1 -106h350v-65l-349 -1h-66q-1 86 -3 172h-5h-9.5h-10.5h-60h-61h-20h-7v71z" />
    <glyph glyph-name="Iacute" unicode="&#xcd;" horiz-adv-x="369" 
d="M36 244h8h22h68h67h31v-71h-8h-11h-12h-67h-68h-22h-8v71zM230 718h67l2 -473h-66zM230 0l3 174h66l-2 -174h-67z" />
    <glyph glyph-name="aacute" unicode="&#xe1;" horiz-adv-x="737" 
d="M503 168h-50l-80 242l-132 -409h-51l162 499l44 1zM667 168v-49h-6h-17h-52h-52h-8.5h-8.5h-6l-13 49h36h52h52h8.5h8.5h6zM554 0h-48l-39 118h50z" />
    <glyph glyph-name="ccedilla" unicode="&#xe7;" horiz-adv-x="519" 
d="M450 454h-195q-45 1 -47 -37l1 -249h-46v-49h-6h-7h-8h-46h-46h-15h-6l1 49h5h7.5h7.5h46h46h21l-1 245q1 38 23 62.5t65 24.5h63h62q16 0 29.5 -4.5t21.5 -11.5t13.5 -14t7.5 -11zM164 119h44q1 -16 1 -32v-2q1 -40 47 -39h193q0 -1 -2 -4.5t-8 -11t-13.5 -13.5t-21 -11
t-29.5 -5q-17 -1 -55.5 -1h-67.5q-44 -1 -66 23.5t-22 63.5v3v29z" />
    <glyph glyph-name="eacute" unicode="&#xe9;" horiz-adv-x="570" 
d="M224 500h276v-45h-243l1 -185h172v-45h-172v-57h-45l-2 332h13zM90 168h6h13h42.5h41.5h19v-49h45q0 -37 1 -74h242v-45h-242h-45l-2 119h-4h-6.5h-7.5h-42h-42h-13h-6v49z" />
    <glyph glyph-name="iacute" unicode="&#xed;" 
d="M241 499h47l1 -331l-45 -1zM106 168h6h16h46.5h46.5h21v-49h46l1 -120h-45l-2 120h-6h-7h-8h-46.5h-47.5h-15h-6v49z" />
    <glyph glyph-name="uniF8FE" unicode="&#xf8fe;" horiz-adv-x="300" 
 />
    </font>
</defs>
</svg>
